<svg width="67" height="56" viewBox="0 0 67 56" fill="none" xmlns="http://www.w3.org/2000/svg">
<path d="M33.8767 38.3311C42.8703 38.3311 50.1611 31.2494 50.1611 22.5137C50.1611 13.778 42.8703 6.69635 33.8767 6.69635C24.883 6.69635 17.5922 13.778 17.5922 22.5137C17.5922 31.2494 24.883 38.3311 33.8767 38.3311Z" fill="#2C287D"/>
<path d="M11.0027 6.06291C11.0402 5.09877 11.3014 4.15658 11.7656 3.31087C12.2298 2.46516 12.8844 1.73914 13.6775 1.19026C14.4112 0.680274 15.2406 0.324348 16.1156 0.143969C16.9906 -0.0364095 17.8931 -0.0374955 18.7685 0.140772C18.7145 1.0798 18.4509 1.9948 17.9971 2.81854C17.5433 3.64228 16.9109 4.35385 16.1462 4.90097C15.4108 5.43043 14.5764 5.80619 13.6927 6.00582C12.809 6.20546 11.8941 6.22487 11.0027 6.06291Z" fill="#E4E4E4"/>
<path d="M7.0993 10.1297C6.5213 9.43227 6.09406 8.62256 5.84453 7.75164C5.59501 6.88072 5.52861 5.96751 5.64954 5.06963C5.88992 3.36191 6.78294 1.81405 8.14072 0.751709C9.2114 2.03414 9.74794 3.67954 9.63918 5.34699C9.57748 6.27846 9.31923 7.18628 8.88144 8.01065C8.44366 8.83501 7.83627 9.55721 7.0993 10.1297Z" fill="#E4E4E4"/>
<path d="M8.60522 12.0412C8.73493 11.299 9.01694 10.5918 9.43345 9.96411C9.84996 9.33642 10.392 8.80188 11.0252 8.39422C11.81 7.88587 12.7061 7.57502 13.6369 7.48822C14.5678 7.40141 15.5058 7.54122 16.371 7.89571C15.869 9.22509 14.9486 10.3551 13.7487 11.1154C12.2224 12.0883 10.3747 12.4209 8.60522 12.0412Z" fill="#E4E4E4"/>
<path d="M7.63126 18.0983C7.69658 17.3011 7.93818 16.5284 8.33857 15.8361C8.73896 15.1438 9.28813 14.5492 9.94637 14.0953C10.6546 13.6046 11.4625 13.2769 12.3123 13.1356C13.1621 12.9943 14.0326 13.043 14.8613 13.2782C14.5205 14.8456 13.579 16.2169 12.239 17.0976C10.8807 17.9924 9.2381 18.3492 7.63126 18.0983Z" fill="#E4E4E4"/>
<path d="M6.32759 17.4049C6.71952 16.6025 6.93564 15.7257 6.96148 14.833C6.98733 13.9403 6.8223 13.0524 6.47744 12.2287C6.12731 11.4039 5.6129 10.6592 4.96561 10.0399C4.31832 9.42058 3.55172 8.93973 2.71257 8.62665C2.36073 9.39013 2.16336 10.2157 2.13186 11.0559C2.10035 11.896 2.23533 12.7341 2.52901 13.5218C2.85854 14.3971 3.3664 15.1944 4.02033 15.8629C4.67426 16.5314 5.45998 17.0565 6.32759 17.4049Z" fill="#E4E4E4"/>
<path d="M8.20435 24.1966C8.11384 23.4583 8.18053 22.7093 8.40006 21.9987C8.61958 21.2881 8.98696 20.632 9.47804 20.0736C10.094 19.379 10.869 18.844 11.7367 18.5143C12.6043 18.1847 13.5389 18.0702 14.4604 18.1808C14.4881 18.9507 14.3597 19.7183 14.0828 20.4372C13.806 21.1561 13.3864 21.8115 12.8496 22.3637C12.2471 22.9782 11.5221 23.4589 10.7218 23.7746C9.92155 24.0904 9.06381 24.2342 8.20435 24.1966Z" fill="#E4E4E4"/>
<path d="M6.78836 23.2521C5.05024 23.2003 3.3912 22.5136 2.12442 21.3218C1.44519 20.6829 0.90575 19.91 0.540156 19.052C0.174563 18.1939 -0.00924092 17.2694 0.000357446 16.3367C1.89108 16.4614 3.6621 17.3065 4.94901 18.698C6.09605 19.9412 6.7501 21.5606 6.78836 23.2521Z" fill="#E4E4E4"/>
<path d="M7.14427 29.7102C7.02516 28.0752 6.34798 26.5309 5.22624 25.3361C3.91296 23.937 2.12013 23.0856 0.206421 22.9522C0.206401 23.8951 0.406802 24.8272 0.794321 25.6867C1.18184 26.5461 1.74761 27.3133 2.4541 27.9373C3.74683 29.0845 5.41633 29.7156 7.14427 29.7102Z" fill="#E4E4E4"/>
<path d="M8.59027 30.7409C8.43418 29.9605 8.44078 29.1561 8.60966 28.3783C8.77855 27.6005 9.10608 26.866 9.57176 26.2206C10.083 25.5064 10.7416 24.9102 11.5029 24.4725C12.2642 24.0347 13.1105 23.7655 13.9847 23.6831C14.1709 24.5059 14.172 25.3597 13.9881 26.183C13.8041 27.0062 13.4395 27.7783 12.9208 28.4433C12.4016 29.11 11.7473 29.6593 11.001 30.0553C10.2547 30.4513 9.43317 30.6849 8.59027 30.7409Z" fill="#E4E4E4"/>
<path d="M9.9838 36.0896C9.46096 34.5023 8.38361 33.1569 6.94943 32.3002C5.35577 31.3472 3.46131 31.0313 1.6449 31.4156C1.86377 32.2459 2.24454 33.0246 2.76529 33.7071C3.28604 34.3896 3.9365 34.9624 4.67927 35.3924C5.47317 35.8545 6.35095 36.1541 7.26159 36.2738C8.17223 36.3935 9.09756 36.3309 9.9838 36.0896Z" fill="#E4E4E4"/>
<path d="M12.1491 37.0642C11.7151 36.3867 11.4246 35.6273 11.2958 34.833C11.1669 34.0387 11.2023 33.2264 11.3998 32.4464C11.6148 31.6117 12.005 30.8324 12.5443 30.1603C13.0836 29.4882 13.7598 28.9387 14.5278 28.5483C15.3432 29.9069 15.5922 31.5318 15.2209 33.0723C15.0153 33.9152 14.6358 34.7058 14.1068 35.3932C13.5778 36.0807 12.9109 36.6499 12.1491 37.0642Z" fill="#E4E4E4"/>
<path d="M14.2431 40.6924C13.3284 39.269 11.9124 38.2416 10.276 37.8138C9.29381 37.5518 8.26629 37.5076 7.26528 37.6844C6.26427 37.8611 5.31393 38.2545 4.48071 38.8371C5.57051 40.2802 7.15598 41.2684 8.93112 41.6107C10.7544 41.9721 12.6468 41.6449 14.2431 40.6924Z" fill="#E4E4E4"/>
<path d="M16.7793 41.9706C16.1306 41.4406 15.619 40.7621 15.2877 39.9925C14.9565 39.2229 14.8154 38.3847 14.8764 37.549C14.9374 36.7133 15.1987 35.9045 15.6382 35.1912C16.0777 34.4779 16.6824 33.8809 17.4012 33.4509C18.2154 34.753 18.594 36.2806 18.4822 37.8125C18.3704 39.3443 17.7739 40.8007 16.7793 41.9706Z" fill="#E4E4E4"/>
<path d="M17.7908 44.5867C16.466 43.4064 14.7633 42.7384 12.9898 42.7034C11.2162 42.6683 9.48852 43.2685 8.11823 44.3956C9.41885 45.6236 11.1297 46.3234 12.9176 46.3587C14.7056 46.3941 16.4427 45.7624 17.7908 44.5867Z" fill="#E4E4E4"/>
<path d="M21.3833 45.5838C20.6764 45.1632 20.0844 44.5742 19.6602 43.8692C19.2359 43.1642 18.9926 42.3652 18.9518 41.5433C18.911 40.7214 19.074 39.9021 19.4264 39.1586C19.7787 38.415 20.3094 37.7702 20.9712 37.2816C22.0702 38.3603 22.7228 39.8136 22.7992 41.3521C22.8755 42.8906 22.37 44.4014 21.3833 45.5838Z" fill="#E4E4E4"/>
<path d="M23.3388 48.5523C22.5901 47.8981 21.716 47.4035 20.7698 47.0986C19.8236 46.7938 18.8253 46.6852 17.8357 46.7794C16.2232 46.9279 14.7072 47.6144 13.5314 48.7285C14.8717 49.9736 16.642 50.6507 18.4706 50.6179C20.2992 50.585 22.044 49.8447 23.3388 48.5523Z" fill="#E4E4E4"/>
<path d="M55.9077 6.1978C54.1541 6.4331 52.3775 5.97898 50.9516 4.93092C50.1804 4.36446 49.5449 3.63328 49.0913 2.79045C48.6377 1.94762 48.3774 1.01431 48.3293 0.0582723C49.2848 -0.0670762 50.256 0.0103222 51.1796 0.285431C52.1032 0.560539 52.9586 1.02719 53.69 1.655C54.3487 2.22177 54.8851 2.91689 55.2663 3.69794C55.6476 4.47899 55.8659 5.32957 55.9077 6.1978Z" fill="#E4E4E4"/>
<path d="M59.8785 10.2608C58.5308 9.2459 57.6285 7.74798 57.3611 6.0816C57.2149 5.13935 57.2791 4.17638 57.5492 3.26192C57.8193 2.34747 58.2886 1.50425 58.9233 0.792908C60.3078 1.9627 61.1759 3.6312 61.3395 5.43691C61.4871 7.17266 60.9642 8.89899 59.8785 10.2608Z" fill="#E4E4E4"/>
<path d="M58.2153 12.1612C58.1491 11.4043 57.9125 10.6722 57.5232 10.0198C57.134 9.36742 56.6021 8.81168 55.9676 8.39422C55.2263 7.89823 54.3758 7.58965 53.4891 7.49499C52.6023 7.40032 51.7059 7.5224 50.8766 7.85074C51.0683 8.60369 51.4078 9.31095 51.8753 9.9313C52.3429 10.5516 52.9292 11.0727 53.6001 11.464C54.9911 12.283 56.6446 12.5328 58.2153 12.1612Z" fill="#E4E4E4"/>
<path d="M60.6316 17.4049C60.2649 16.6303 60.0626 15.7881 60.0375 14.9314C60.0123 14.0747 60.1649 13.2221 60.4855 12.4273C60.8441 11.5528 61.3893 10.7673 62.0829 10.1257C62.7766 9.48414 63.602 9.00193 64.5014 8.71283C64.849 9.59791 65.0019 10.5476 64.9495 11.4971C64.8972 12.4467 64.6408 13.3737 64.198 14.2152C63.43 15.6719 62.1642 16.804 60.6316 17.4049Z" fill="#E4E4E4"/>
<path d="M52.3152 13.1619C53.13 13.0086 53.9676 13.0233 54.7766 13.205C55.5857 13.3868 56.3491 13.7318 57.0203 14.2189C57.7006 14.7097 58.2639 15.3449 58.67 16.0791C59.0761 16.8133 59.3148 17.6282 59.3691 18.4656C58.4305 18.5261 57.4895 18.394 56.6038 18.0775C55.718 17.7611 54.9062 17.2669 54.2182 16.6252C53.229 15.7049 52.5618 14.4907 52.3152 13.1619Z" fill="#E4E4E4"/>
<path d="M52.7572 18.177C53.6484 18.1717 54.5297 18.3642 55.3375 18.7408C56.1453 19.1174 56.8595 19.6686 57.4287 20.3547C57.9016 20.9286 58.255 21.5913 58.4679 22.3039C58.6809 23.0165 58.7491 23.7646 58.6686 24.504C56.9825 24.3168 55.4278 23.5036 54.3119 22.2251C53.3338 21.1008 52.7833 19.6674 52.7572 18.177Z" fill="#E4E4E4"/>
<path d="M60.0771 23.1958C60.1027 21.4689 60.7891 19.8175 61.9952 18.5818C63.3134 17.2262 65.1102 16.4416 67 16.3966C66.9351 17.973 66.3353 19.4801 65.2993 20.6695C64.642 21.4187 63.8411 22.0283 62.9441 22.4623C62.0471 22.8962 61.0722 23.1457 60.0771 23.1958Z" fill="#E4E4E4"/>
<path d="M59.9235 29.9688C59.852 29.1 59.9611 28.2258 60.2442 27.4013C60.5273 26.5769 60.978 25.82 61.5681 25.1786C62.2223 24.4655 63.0223 23.9016 63.9137 23.5252C64.805 23.1488 65.7669 22.9687 66.734 22.9972C66.6486 24.7062 65.9596 26.3293 64.7898 27.5775C63.5122 28.94 61.7822 29.7901 59.9235 29.9688Z" fill="#E4E4E4"/>
<path d="M58.3914 30.9134C57.5897 30.8215 56.8151 30.567 56.115 30.1655C55.4149 29.764 54.8039 29.2239 54.3194 28.5783C53.8145 27.9062 53.468 27.1286 53.3058 26.3036C53.1436 25.4787 53.1699 24.6277 53.3828 23.8143C55.0431 24.1454 56.5061 25.1177 57.4549 26.5205C58.3211 27.8094 58.6566 29.3831 58.3914 30.9134Z" fill="#E4E4E4"/>
<path d="M56.7056 36.0784C57.2184 34.5846 58.2152 33.305 59.5377 32.4426C60.4347 31.8596 61.4445 31.4724 62.5012 31.3064C63.5579 31.1404 64.6377 31.1994 65.6701 31.4794C64.9828 33.241 63.6553 34.6775 61.954 35.5012C60.324 36.2955 58.4691 36.4995 56.7056 36.0784Z" fill="#E4E4E4"/>
<path d="M54.9412 37.1091C53.6135 36.4216 52.5873 35.2666 52.0604 33.8669C51.7513 33.0346 51.6342 32.1431 51.7179 31.2591C51.8015 30.3751 52.0838 29.5214 52.5436 28.7619C53.303 29.1668 53.9687 29.7272 54.4973 30.4066C55.0259 31.0859 55.4056 31.8691 55.6117 32.705C55.9712 34.2043 55.7306 35.7849 54.9412 37.1091Z" fill="#E4E4E4"/>
<path d="M50.1687 42.0567C49.5179 41.5561 48.9822 40.9215 48.5978 40.1958C48.2134 39.4701 47.9893 38.6702 47.9406 37.8503C47.892 37.0305 48.0199 36.2097 48.3157 35.4436C48.6116 34.6774 49.0685 33.9838 49.6554 33.4097C50.4246 33.9394 51.0469 34.6556 51.4643 35.4914C51.8816 36.3271 52.0803 37.2551 52.0417 38.1886C52.009 38.927 51.826 39.6508 51.5039 40.316C51.1818 40.9811 50.7275 41.5734 50.1687 42.0567Z" fill="#E4E4E4"/>
<path d="M52.7572 40.4638C53.7294 39.0816 55.1905 38.1209 56.8443 37.7763C57.8095 37.5699 58.8078 37.5735 59.7715 37.7869C60.7352 38.0003 61.6418 38.4186 62.4298 39.0132C61.3393 40.3597 59.7982 41.2652 58.0917 41.562C56.2386 41.8922 54.3295 41.4991 52.7572 40.4638Z" fill="#E4E4E4"/>
<path d="M49.1608 44.9353C50.3896 43.6661 52.0382 42.888 53.7985 42.7464C55.7343 42.5802 57.6572 43.1865 59.148 44.4331C57.9307 45.5649 56.3772 46.2677 54.7238 46.4346C52.7464 46.6616 50.7568 46.1254 49.1608 44.9353Z" fill="#E4E4E4"/>
<path d="M45.8605 45.5838C45.2934 45.0399 44.8479 44.3818 44.5534 43.653C44.259 42.9243 44.1223 42.1414 44.1523 41.3559C44.1888 40.5378 44.4036 39.7375 44.7814 39.0111C45.1593 38.2847 45.6913 37.6497 46.34 37.1504C47.3262 38.3625 47.8238 39.8997 47.7351 41.4602C47.6463 43.0206 46.9777 44.4914 45.8605 45.5838Z" fill="#E4E4E4"/>
<path d="M43.9276 48.2188C45.364 47.1563 47.1325 46.6423 48.9143 46.7695C50.6961 46.8966 52.3738 47.6565 53.645 48.9122C52.2036 49.9615 50.4379 50.4674 48.6598 50.3405C46.8817 50.2136 45.2056 49.4622 43.9276 48.2188Z" fill="#E4E4E4"/>
<path d="M25.4366 45.9286L32.0486 48.7136C32.4789 48.5931 32.9241 48.5338 33.3709 48.5374C33.7851 48.54 34.1971 48.598 34.5959 48.7098L41.4589 45.9886L41.3015 47.1843L35.4201 49.8942L45.9093 53.3051L47.595 56L34.8095 51.1274C34.375 50.9619 33.9145 50.8755 33.4496 50.8725C32.9645 50.8666 32.4827 50.9531 32.0298 51.1274L19.5065 55.7714L21.6643 53.0952L31.5278 49.9205L25.6389 47.2705L25.4366 45.9286Z" fill="#E4E4E4"/>
<path d="M32.573 12.4048H35.5924L42.268 29.9689H38.7541L37.1246 25.5872H30.9922L29.3851 29.9689H25.8749L32.573 12.4048ZM36.5065 23.1959L34.0827 16.2955L31.5616 23.1959H36.5065Z" fill="white"/>
</svg>
