<svg width="64" height="56" viewBox="0 0 64 56" fill="none" xmlns="http://www.w3.org/2000/svg">
<path d="M2.59355 55.4432V52.5342H1.77944V55.4432H1.26672V52.1299H3.10865V55.4432H2.59355Z" fill="#25295C"/>
<path d="M5.4694 53.0385C5.4694 52.8459 5.44494 52.7137 5.39567 52.6419C5.34674 52.5701 5.24651 52.5345 5.09531 52.5345H4.6553V53.824H5.09531C5.24651 53.824 5.34674 53.7881 5.39567 53.7166C5.44494 53.6448 5.4694 53.5126 5.4694 53.3197V53.0385ZM4.14258 55.4432V52.1299H5.30291C5.39125 52.1299 5.46974 52.1379 5.53905 52.1534C5.60803 52.1691 5.66647 52.1893 5.71404 52.2141C5.76161 52.2389 5.80238 52.2725 5.83602 52.3148C5.86932 52.357 5.89548 52.3997 5.91485 52.4426C5.93421 52.4856 5.94916 52.5382 5.9597 52.601C5.97057 52.6634 5.97737 52.7218 5.98008 52.7758C5.9828 52.8298 5.9845 52.8946 5.9845 52.9701V53.3901C5.9845 53.4656 5.9828 53.5304 5.98008 53.5844C5.97737 53.6388 5.97057 53.6968 5.9597 53.7592C5.94916 53.822 5.93421 53.8746 5.91485 53.9176C5.89548 53.9605 5.86932 54.0031 5.83602 54.0454C5.80238 54.0877 5.76161 54.1216 5.71404 54.1461C5.66647 54.1709 5.60803 54.191 5.53905 54.2068C5.46974 54.2222 5.39125 54.2303 5.30291 54.2303H4.6553V55.4432H4.14258Z" fill="#25295C"/>
<path d="M6.95581 55.4432V52.1299H7.44067L7.43218 54.3142L8.39578 52.1299H8.94282V55.4432H8.45558L8.46645 53.1673L7.49401 55.4432H6.95581Z" fill="#25295C"/>
<path d="M11.3044 53.0385C11.3044 52.8459 11.2799 52.7137 11.2306 52.6419C11.1817 52.5701 11.0815 52.5345 10.9303 52.5345H10.4903V53.824H10.9303C11.0815 53.824 11.1817 53.7881 11.2306 53.7166C11.2799 53.6448 11.3044 53.5126 11.3044 53.3197V53.0385ZM9.97754 55.4432V52.1299H11.1379C11.2262 52.1299 11.3047 52.1379 11.374 52.1534C11.443 52.1691 11.5014 52.1893 11.549 52.2141C11.5966 52.2389 11.6373 52.2725 11.671 52.3148C11.7043 52.357 11.7304 52.3997 11.7498 52.4426C11.7692 52.4856 11.7841 52.5382 11.7947 52.601C11.8055 52.6634 11.8123 52.7218 11.815 52.7758C11.8178 52.8298 11.8195 52.8946 11.8195 52.9701V53.3901C11.8195 53.4656 11.8178 53.5304 11.815 53.5844C11.8123 53.6388 11.8055 53.6968 11.7947 53.7592C11.7841 53.822 11.7692 53.8746 11.7498 53.9176C11.7304 53.9605 11.7043 54.0031 11.671 54.0454C11.6373 54.0877 11.5966 54.1216 11.549 54.1461C11.5014 54.1709 11.443 54.191 11.374 54.2068C11.3047 54.2222 11.2262 54.2303 11.1379 54.2303H10.4903V55.4432H9.97754Z" fill="#25295C"/>
<path d="M14.0987 52.9579C14.0987 52.9018 14.0953 52.8512 14.0882 52.8055C14.0811 52.7599 14.0682 52.7153 14.0495 52.6717C14.0311 52.628 14.0067 52.5915 13.9771 52.5623C13.9472 52.5331 13.9078 52.5096 13.8582 52.4918C13.8092 52.4744 13.7525 52.4656 13.6883 52.4656C13.5418 52.4656 13.4379 52.5086 13.3767 52.5945C13.3152 52.6804 13.2846 52.8015 13.2846 52.9579V54.6144C13.2846 54.7707 13.3156 54.8918 13.3777 54.9781C13.4396 55.064 13.5446 55.1069 13.6927 55.1069C13.7726 55.1069 13.8402 55.0942 13.8959 55.0687C13.9513 55.0432 13.9934 55.0066 14.0219 54.9583C14.0501 54.9103 14.0702 54.859 14.0817 54.8039C14.093 54.7492 14.0987 54.6862 14.0987 54.6144V52.9579ZM12.7743 52.8857C12.7743 52.6069 12.8541 52.3999 13.0145 52.2643C13.1745 52.1288 13.3991 52.0613 13.6883 52.0613C13.9836 52.0613 14.2115 52.1288 14.3733 52.2643C14.535 52.3999 14.6159 52.6069 14.6159 52.8857V54.7026C14.6159 55.2418 14.308 55.5112 13.6927 55.5112C13.4008 55.5112 13.1745 55.4455 13.0145 55.3139C12.8541 55.1824 12.7743 54.9784 12.7743 54.7026V52.8857Z" fill="#25295C"/>
<path d="M17.1619 52.5343H16.5316L16.3692 54.6344C16.3648 54.6827 16.3607 54.722 16.3563 54.7518C16.3522 54.7817 16.345 54.8173 16.3349 54.8582C16.325 54.8991 16.3101 54.9347 16.29 54.9649C16.27 54.9948 16.2458 55.0192 16.2173 55.039H17.1619V52.5343ZM17.5784 56L17.5377 55.4434H15.9716L15.9268 56H15.5636L15.5208 55.039H15.6747C15.7375 55.039 15.7807 55.0196 15.8038 54.9813C15.8276 54.9427 15.8429 54.8807 15.85 54.7948L16.0552 52.13H17.6787V55.039H17.9845L17.9461 56H17.5784Z" fill="#25295C"/>
<path d="M20.2503 55.4432V53.9391H19.4362V55.4432H18.9235V52.1299H19.4362V53.5348H20.2503V52.1299H20.7654V55.4432H20.2503Z" fill="#25295C"/>
<path d="M22.6745 52.5423L22.3881 54.2984H22.9545L22.6745 52.5423ZM23.1295 55.4432L23.0143 54.7031H22.3283L22.2087 55.4432H21.698L22.2535 52.1299H23.0975L23.6402 55.4432H23.1295Z" fill="#25295C"/>
<path d="M27.7889 55.4432L27.7967 52.9231L27.2708 55.4432H26.7917L26.2657 52.9231L26.2735 55.4432H25.8243V52.1299H26.5545L27.0271 54.4625L27.51 52.1299H28.2361V55.4432H27.7889Z" fill="#25295C"/>
<path d="M29.1993 52.1299H29.674V55.4432H29.1993V52.1299Z" fill="#25295C"/>
<path d="M31.8661 55.4432V53.9391H31.1121V55.4432H30.6375V52.1299H31.1121V53.5348H31.8661V52.1299H32.3428V55.4432H31.8661Z" fill="#25295C"/>
<path d="M33.3044 55.4432V52.1299H34.6578V52.5342H33.7791V53.5267H34.6381V53.931H33.7791V55.0389H34.6578V55.4432H33.3044Z" fill="#25295C"/>
<path d="M36.8053 53.0385C36.8053 52.8459 36.7825 52.7137 36.737 52.6419C36.6915 52.5701 36.5987 52.5345 36.4591 52.5345H36.0513V53.824H36.4591C36.5987 53.824 36.6915 53.7881 36.737 53.7166C36.7825 53.6448 36.8053 53.5126 36.8053 53.3197V53.0385ZM35.5767 55.4432V52.1299H36.6507C36.7326 52.1299 36.8053 52.1379 36.8695 52.1534C36.9334 52.1691 36.9874 52.1893 37.0319 52.2141C37.0757 52.2389 37.1135 52.2725 37.1447 52.3148C37.1753 52.357 37.1998 52.3997 37.2178 52.4426C37.2354 52.4856 37.2494 52.5382 37.2592 52.601C37.2691 52.6634 37.2752 52.7218 37.2779 52.7758C37.2806 52.8298 37.282 52.8946 37.282 52.9701V53.3901C37.282 53.4656 37.2806 53.5304 37.2779 53.5844C37.2752 53.6388 37.2691 53.6968 37.2592 53.7592C37.2494 53.822 37.2354 53.8746 37.2178 53.9176C37.1998 53.9605 37.1753 54.0031 37.1447 54.0454C37.1135 54.0877 37.0757 54.1216 37.0319 54.1461C36.9874 54.1709 36.9334 54.191 36.8695 54.2068C36.8053 54.2222 36.7326 54.2303 36.6507 54.2303H36.0513V55.4432H35.5767Z" fill="#25295C"/>
<path d="M38.8654 52.5423L38.6004 54.2984H39.1247L38.8654 52.5423ZM39.2868 55.4432L39.1801 54.7031H38.545L38.4339 55.4432H37.9613L38.4757 52.1299H39.2572L39.7597 55.4432H39.2868Z" fill="#25295C"/>
<path d="M41.9569 55.4433V52.5342H41.2033V54.8474C41.2033 55.255 40.993 55.4667 40.572 55.4822V55.0916C40.6301 55.0839 40.6709 55.0534 40.6947 55.0007C40.7185 54.948 40.7304 54.8648 40.7304 54.7517V52.1299H42.4357V55.4433H41.9569Z" fill="#25295C"/>
<path d="M44.6254 54.3786C44.6254 54.29 44.6233 54.2186 44.6192 54.1645C44.6155 54.1109 44.6067 54.0592 44.5938 54.0102C44.5805 53.9615 44.5611 53.9246 44.5353 53.9001C44.5095 53.8753 44.4759 53.8559 44.4344 53.8414C44.3926 53.827 44.341 53.8199 44.2791 53.8199H43.8714V55.0389H44.2791C44.4188 55.0389 44.5115 55.003 44.5571 54.9316C44.6026 54.8601 44.6254 54.7279 44.6254 54.535V54.3786ZM43.3967 55.4432V52.1299H43.8714V53.4116H44.4708C44.5526 53.4116 44.6254 53.4193 44.6896 53.4351C44.7535 53.4505 44.8075 53.4707 44.852 53.4955C44.8958 53.5203 44.9335 53.5539 44.9648 53.5962C44.9954 53.6384 45.0198 53.681 45.0378 53.724C45.0555 53.7673 45.0694 53.8199 45.0793 53.8824C45.0891 53.9451 45.0953 54.0031 45.098 54.0572C45.1007 54.1115 45.1021 54.1759 45.1021 54.2518V54.6031C45.1021 54.6789 45.1007 54.7437 45.098 54.7977C45.0953 54.8517 45.0891 54.9101 45.0793 54.9725C45.0694 55.0352 45.0555 55.0879 45.0378 55.1309C45.0198 55.1738 44.9954 55.2164 44.9648 55.2587C44.9335 55.3013 44.8958 55.3345 44.852 55.3594C44.8075 55.3842 44.7535 55.4043 44.6896 55.4201C44.6254 55.4355 44.5526 55.4432 44.4708 55.4432H43.3967Z" fill="#25295C"/>
<path d="M47.2309 55.4432V53.9391H46.477V55.4432H46.0023V52.1299H46.477V53.5348H47.2309V52.1299H47.7077V55.4432H47.2309Z" fill="#25295C"/>
<path d="M49.4786 52.5423L49.2136 54.2984H49.7379L49.4786 52.5423ZM49.8999 55.4432L49.7932 54.7031H49.1582L49.0471 55.4432H48.5745L49.0889 52.1299H49.8704L50.3729 55.4432H49.8999Z" fill="#25295C"/>
<path d="M53.642 54.3199C53.642 54.1793 53.6134 54.0813 53.556 54.026C53.4986 53.9706 53.4191 53.9428 53.3175 53.9428H52.888V55.0389H53.2957C53.4354 55.0389 53.5281 55.003 53.5737 54.9316C53.6192 54.8598 53.642 54.7276 53.642 54.535V54.3199ZM53.6202 52.9992C53.6175 52.8234 53.593 52.702 53.5468 52.6352C53.5006 52.5678 53.4102 52.5342 53.2757 52.5342H52.888V53.5348H53.2957C53.4184 53.5348 53.503 53.5032 53.5499 53.4408C53.5968 53.3784 53.6202 53.2774 53.6202 53.1382V52.9992ZM52.4133 55.4432V52.1299H53.4656C53.574 52.1299 53.6668 52.1433 53.7449 52.1702C53.8227 52.1967 53.8839 52.2316 53.9287 52.2745C53.9736 52.3175 54.0093 52.3738 54.0354 52.4436C54.0619 52.5131 54.0792 52.5822 54.0871 52.6506C54.0949 52.7191 54.099 52.7999 54.099 52.8939V53.0385C54.099 53.0892 54.0983 53.1328 54.0969 53.1694C54.0956 53.2059 54.0915 53.2489 54.085 53.2982C54.0786 53.3479 54.0691 53.3901 54.0575 53.425C54.0453 53.4603 54.0286 53.4975 54.0069 53.5368C53.9851 53.5757 53.9583 53.6082 53.9267 53.6344C53.8951 53.6602 53.8557 53.6831 53.8091 53.7025C53.7622 53.7223 53.7092 53.7357 53.6498 53.7438C53.7143 53.7515 53.7721 53.7659 53.8231 53.7867C53.8737 53.8075 53.9151 53.8304 53.9474 53.8548C53.98 53.8797 54.0076 53.9129 54.0307 53.9548C54.0538 53.9964 54.0708 54.0333 54.082 54.0649C54.0932 54.0968 54.102 54.14 54.1078 54.1947C54.1136 54.2498 54.117 54.2924 54.1176 54.3239C54.1183 54.3551 54.1187 54.3987 54.1187 54.4548V54.6031C54.1187 54.6789 54.1173 54.7437 54.1146 54.7977C54.1119 54.8517 54.1058 54.9101 54.0959 54.9725C54.086 55.0349 54.0721 55.0879 54.0544 55.1309C54.0364 55.1735 54.012 55.2164 53.9814 55.2587C53.9501 55.301 53.9124 55.3345 53.8686 55.3594C53.8241 55.3838 53.7701 55.4043 53.7062 55.4198C53.642 55.4355 53.5692 55.4432 53.4874 55.4432H52.4133Z" fill="#25295C"/>
<path d="M56.2527 52.9579C56.2527 52.9018 56.2493 52.8512 56.2429 52.8055C56.2361 52.7599 56.2245 52.7153 56.2072 52.6717C56.1899 52.628 56.1678 52.5915 56.1399 52.5623C56.112 52.5331 56.0757 52.5096 56.0302 52.4918C55.9846 52.4744 55.9323 52.4656 55.8728 52.4656C55.7369 52.4656 55.6408 52.5086 55.584 52.5945C55.5273 52.6804 55.4991 52.8015 55.4991 52.9579V54.6144C55.4991 54.7707 55.5276 54.8918 55.5851 54.9781C55.6425 55.064 55.7397 55.1069 55.8769 55.1069C55.9507 55.1069 56.0132 55.0942 56.0648 55.0687C56.1161 55.0432 56.1549 55.0066 56.1817 54.9583C56.2079 54.9103 56.2262 54.859 56.2367 54.8039C56.2473 54.7492 56.2527 54.6862 56.2527 54.6144V52.9579ZM55.0261 52.8857C55.0261 52.6069 55.1002 52.3999 55.2487 52.2643C55.3968 52.1288 55.6051 52.0613 55.8728 52.0613C56.146 52.0613 56.3574 52.1288 56.5069 52.2643C56.6564 52.3999 56.7315 52.6069 56.7315 52.8857V54.7026C56.7315 55.2418 56.4464 55.5112 55.8769 55.5112C55.6065 55.5112 55.3968 55.4455 55.2487 55.3139C55.1002 55.1824 55.0261 54.9784 55.0261 54.7026V52.8857Z" fill="#25295C"/>
<path d="M59.0915 52.5343H58.5078L58.3576 54.6344C58.3535 54.6827 58.3494 54.722 58.3457 54.7518C58.3416 54.7817 58.3352 54.8173 58.326 54.8582C58.3165 54.8991 58.3029 54.9347 58.2845 54.9649C58.2658 54.9948 58.2434 55.0192 58.2169 55.039H59.0915V52.5343ZM59.4771 56L59.4398 55.4434H57.9896L57.9482 56H57.6118L57.572 55.039H57.7144C57.7725 55.039 57.8126 55.0196 57.8343 54.9813C57.8561 54.9427 57.87 54.8807 57.8768 54.7948L58.0667 52.13H59.5702V55.039H59.8533L59.8176 56H59.4771Z" fill="#25295C"/>
<path d="M61.5337 52.5423L61.2686 54.2984H61.7929L61.5337 52.5423ZM61.955 55.4432L61.8483 54.7031H61.2133L61.1021 55.4432H60.6295L61.1439 52.1299H61.9254L62.4279 55.4432H61.955Z" fill="#25295C"/>
<path d="M43.91 11.7357C43.6389 11.8189 43.2457 11.9582 42.4717 12.2078C42.2043 12.294 41.7144 12.492 41.4466 12.5756C40.4939 12.8728 40.693 12.8406 39.6132 13.1345C38.7631 13.3657 37.4196 13.5046 35.6572 14.535C31.8052 16.7868 28.4326 16.2754 24.5088 18.4913C22.5296 19.475 19.3347 20.0545 17.1119 19.3354C16.868 19.2566 19.7931 19.1472 22.8708 17.8846C22.8708 17.8846 28.3632 15.7077 25.2115 14.027C24.9611 13.8183 23.4565 13.1329 23.7851 10.5315C24.2007 11.2123 24.5065 11.6599 25.4164 12.0957C25.1129 11.5693 24.5622 10.6939 24.3243 9.77892C24.0199 8.60524 24.042 7.295 24.2791 6.04818C24.5849 7.18562 26.134 10.4205 27.7591 11.2415C26.153 8.97197 24.1453 6.53503 26.3759 2.20335C26.38 6.07234 28.3439 8.75086 29.3258 9.70645C27.6606 6.77057 26.7133 1.8732 28.5821 0.193874C28.1206 4.54333 30.39 10.0078 32.1127 12.3853C32.5133 12.9386 33.0763 13.3191 33.7001 13.51C34.7198 13.771 35.9008 13.2349 36.7387 12.8225C37.3466 12.5235 37.9527 12.0645 38.5327 11.7153C39.2986 11.2539 39.78 11.1553 40.692 11.4613C40.906 11.5331 41.7704 11.7075 41.9889 11.7626C42.4194 11.8709 43.6766 11.6079 44.0367 11.5059C44.4683 11.3838 44.9348 11.4213 43.91 11.7357Z" fill="white"/>
<path d="M33.8034 45.9156C33.7222 45.7526 33.5228 45.6865 33.359 45.7697C32.8782 46.0153 32.3053 46.1515 31.654 46.1515C29.7669 46.1515 28.2392 44.6302 28.261 42.7617C28.2844 40.7589 30.1104 39.2742 32.1287 39.4731C32.5948 39.5191 33.0134 39.6339 33.3787 39.8117C33.5404 39.8902 33.7348 39.8234 33.8153 39.6641C34.047 39.2027 34.3277 38.7695 34.6515 38.3716C34.7813 38.2119 34.7334 37.9767 34.5509 37.8797C33.7246 37.4422 32.745 37.2016 31.654 37.2016C28.5226 37.2016 25.9838 39.7083 25.9838 42.8009C25.9838 45.8931 28.5226 48.3999 31.654 48.3999C32.7379 48.3999 33.7117 48.1466 34.5343 47.698C34.714 47.6003 34.7609 47.3678 34.6328 47.2091C34.3114 46.8105 34.0331 46.377 33.8034 45.9156ZM42.3916 45.9156C42.3107 45.7526 42.1109 45.6865 41.9475 45.7697C41.4664 46.0153 40.8935 46.1515 40.2422 46.1515C38.355 46.1515 36.8274 44.6302 36.8492 42.7617C36.8726 40.7589 38.6986 39.2742 40.7168 39.4731C41.183 39.5191 41.6019 39.6339 41.9669 39.8117C42.1286 39.8902 42.3233 39.8234 42.4035 39.6641C42.6352 39.2027 42.9158 38.7695 43.2397 38.3716C43.3698 38.2119 43.3219 37.9767 43.1391 37.8797C42.3127 37.4422 41.3332 37.2016 40.2422 37.2016C37.1108 37.2016 34.5723 39.7083 34.5723 42.8009C34.5723 45.8931 37.1108 48.3999 40.2422 48.3999C41.326 48.3999 42.2998 48.1466 43.1224 47.698C43.3022 47.6003 43.3491 47.3678 43.2213 47.2091C42.8995 46.8105 42.6213 46.377 42.3916 45.9156ZM48.8303 46.1515C46.9565 46.1515 45.4373 44.6514 45.4373 42.8009C45.4373 40.9505 46.9565 39.4503 48.8303 39.4503C50.7045 39.4503 52.2233 40.9505 52.2233 42.8009C52.2233 44.6514 50.7045 46.1515 48.8303 46.1515ZM48.8303 37.2016C45.6989 37.2016 43.1605 39.7083 43.1605 42.8009C43.1605 45.8931 45.6989 48.3999 48.8303 48.3999C51.9617 48.3999 54.5005 45.8931 54.5005 42.8009C54.5005 39.7083 51.9617 37.2016 48.8303 37.2016ZM16.905 37.2402H15.8775C15.69 37.2402 15.5245 37.3613 15.4702 37.5388L13.3466 43.3653L11.4584 38.4649C11.2029 37.7321 10.506 37.2402 9.72251 37.2402H8.62538C8.47758 37.2402 8.377 37.3885 8.43374 37.5237L11.4024 44.602C11.5967 45.0647 12.0527 45.3664 12.559 45.3664C12.0778 46.2303 11.47 46.5793 10.2492 46.7642C10.1075 46.7856 10.0103 46.9175 10.0385 47.0568L10.2961 48.3324C10.3212 48.4576 10.4411 48.5442 10.5692 48.5307C12.9256 48.2818 14.1321 47.501 15.0825 44.9839L17.6474 38.3055C17.8448 37.7911 17.4612 37.2402 16.905 37.2402ZM23.0448 43.4555C22.355 43.4555 21.6 43.1888 20.7853 43.1888C20.4421 43.1888 20.018 43.2821 19.9311 43.3082L21.1295 39.0725L22.1318 42.8039C22.563 42.9764 23.3482 43.2243 23.9605 43.0616C23.7811 43.2737 23.5466 43.4555 23.0448 43.4555ZM23.1178 38.3508C22.9173 37.6911 22.3037 37.2402 21.6082 37.2402H19.7863C19.6521 37.2402 19.5332 37.3271 19.4948 37.4546L16.2958 47.9667C16.237 48.1603 16.3835 48.3553 16.5877 48.3553H18.2998C18.4364 48.3553 18.5563 48.2653 18.593 48.1348L19.225 45.8958C18.8795 45.8072 18.4163 45.7472 18.0701 45.9066C18.538 45.5214 19.1387 45.2976 19.8077 45.2976C20.4764 45.2976 20.8111 45.3815 21.5229 45.3815C22.2347 45.3815 22.7063 45.162 22.7376 45.1493L23.5368 48.1311C23.5721 48.2633 23.6931 48.3553 23.8313 48.3553H25.7521C25.9563 48.3553 26.1027 48.1603 26.044 47.9667L23.1178 38.3508ZM3.95279 46.8229H2.76357V44.6272C2.76357 43.8377 3.4207 43.2391 4.47638 43.2069C5.49401 43.1757 6.12361 43.7635 6.12361 44.9265C6.12361 46.2434 5.33092 46.8229 3.95279 46.8229ZM4.88683 41.3477C4.05166 41.3685 3.46521 41.5299 2.76357 42.0138V39.7161C1.97156 39.6214 1.41467 39.6211 0.915536 39.8016C1.75274 39.1876 2.98647 39.2248 5.1437 39.3507C7.65906 39.4973 8.1378 36.856 8.1378 36.856C7.10081 37.1808 5.97921 37.2915 5.06147 37.2915C3.73839 37.2915 3.41764 37.1855 2.80503 37.1855C1.22745 37.1855 0.404175 38.0646 0.404175 39.3111C0.404175 39.5433 0.497952 39.8684 0.618572 40.0633C0.624348 40.0576 0.613136 40.0694 0.618572 40.0633V48.0768C0.618572 48.2308 0.744969 48.3553 0.900926 48.3553H3.97419C6.45863 48.3553 8.25061 47.2386 8.25061 44.852C8.25061 42.9106 7.00397 41.2947 4.88683 41.3477ZM63.5827 37.5311V48.063C63.5827 48.2244 63.4502 48.3553 63.2867 48.3553H61.5947C61.4312 48.3553 61.299 48.2244 61.299 48.063V43.6545C60.5699 43.836 59.8526 43.9306 58.6546 43.9306C57.2663 43.9306 56.4195 44.3779 55.8562 44.9134V44.9137C56.4763 44.6101 57.219 44.605 57.8531 44.6926L57.8687 48.0617C57.8694 48.2237 57.7365 48.3553 57.5727 48.3553H55.9136C55.7498 48.3553 55.6173 48.2244 55.6177 48.0627L55.636 37.5626C55.6364 37.4016 55.7672 37.2714 55.9306 37.2711C56.3509 37.2704 57.1202 37.2687 57.5456 37.2627C57.711 37.2607 57.8456 37.3912 57.8452 37.5546C57.8442 38.3766 57.8415 40.6472 57.8388 42.0111C58.2621 41.8883 58.7314 41.8312 59.5954 41.7947C60.2522 41.7665 60.819 41.7084 61.2827 41.5286L61.298 37.5301C61.2984 37.369 61.4309 37.2389 61.594 37.2389H63.2867C63.4502 37.2389 63.5827 37.3697 63.5827 37.5311Z" fill="white"/>
<path d="M35.0799 16.2878C33.4327 17.0569 31.8744 17.4276 30.3584 17.7877C28.5977 18.2051 26.9348 18.5996 25.1537 19.6052L25.1238 19.6223L25.0929 19.6378C24.7823 19.7921 24.4541 19.9347 24.113 20.0642C22.9292 21.6952 22.232 23.6936 22.232 25.8531C22.232 31.3467 26.7421 35.8002 32.3053 35.8002C37.8688 35.8002 42.3789 31.3467 42.3789 25.8531C42.3789 21.3094 39.2941 17.4776 35.0799 16.2878ZM32.3053 31.806C28.9762 31.806 26.2773 29.1409 26.2773 25.8531C26.2773 22.5652 28.9762 19.9005 32.3053 19.9005C35.6347 19.9005 38.3332 22.5652 38.3332 25.8531C38.3332 29.1409 35.6347 31.806 32.3053 31.806ZM12.9999 32.6516H10.6449V28.3038C10.6449 26.7409 11.9463 25.5558 14.0369 25.4917C16.0511 25.4303 17.2984 26.5943 17.2984 28.8963C17.2984 31.5041 15.7283 32.6516 12.9999 32.6516ZM14.849 21.8103C13.196 21.8519 12.0343 22.171 10.6449 23.1293V18.5798C9.07654 18.3919 7.97431 18.3913 6.98556 18.7489C8.64333 17.5333 11.0863 17.6071 15.3576 17.8558C20.3387 18.146 21.2864 12.9161 21.2864 12.9161C19.2328 13.5597 17.0123 13.7788 15.1952 13.7788C12.5752 13.7788 11.9398 13.5687 10.7268 13.5687C7.44969 13.5687 6.00973 15.49 6.0223 17.6159C6.0257 18.1507 6.14156 18.8647 6.39775 19.2673C6.40896 19.2559 6.38722 19.2791 6.39775 19.2673V35.1345C6.39775 35.4395 6.64816 35.6861 6.95668 35.6861H13.0424C17.961 35.6861 21.5099 33.4746 21.5099 28.7487C21.5099 24.9052 19.0418 21.7053 14.849 21.8103ZM58.6644 15.2631V35.1489C58.6644 35.4539 58.4143 35.7009 58.1058 35.7009H54.9112C54.6027 35.7009 54.3523 35.4539 54.3523 35.1489V26.8248C52.9759 27.1677 51.6215 27.3462 49.3596 27.3462C46.7383 27.3462 45.1389 28.1911 44.0761 29.202L44.0758 29.2023C45.2466 28.6293 46.6489 28.6199 47.8463 28.7853L47.8758 35.1466C47.8772 35.4522 47.6264 35.7009 47.3169 35.7009H44.1838C43.875 35.7009 43.6246 35.4532 43.6252 35.1482L43.6599 15.3232C43.6606 15.0189 43.9079 14.7726 44.2158 14.7723C45.0098 14.7713 46.4627 14.7679 47.2659 14.7568C47.5775 14.7521 47.832 14.9994 47.8317 15.3074C47.8296 16.8596 47.8242 21.1466 47.8194 23.7218C48.6186 23.4896 49.5044 23.3826 51.136 23.3131C52.3758 23.2605 53.4458 23.1504 54.322 22.8112L54.3506 15.2615C54.3516 14.9578 54.6017 14.7115 54.9095 14.7115H58.1058C58.4143 14.7115 58.6644 14.9588 58.6644 15.2631Z" fill="white"/>
<path d="M44.6975 11.442C44.6876 11.3776 44.6394 11.2699 44.4287 11.2699C44.3125 11.2699 44.144 11.2971 43.9887 11.341C43.7114 11.4195 42.791 11.6168 42.2623 11.6168C42.1383 11.6168 42.0683 11.6058 42.0316 11.5964C41.9521 11.5766 41.7951 11.5423 41.614 11.5028C41.3031 11.435 40.8777 11.3427 40.7476 11.2987C40.3714 11.1726 40.0667 11.1139 39.7877 11.1139C39.2981 11.1139 38.8958 11.2957 38.4422 11.5688C38.2274 11.698 38.0063 11.8443 37.7922 11.9856C37.4212 12.2308 37.0376 12.4838 36.6611 12.6694C35.8816 13.0526 35.0526 13.4072 34.2731 13.4072C34.0859 13.4072 33.9075 13.3861 33.7512 13.3461C33.1383 13.1589 32.6205 12.7919 32.2532 12.2855C30.5716 9.96469 28.2968 4.52207 28.7542 0.211536C28.7542 0.211536 28.7844 0.0622292 28.6804 0.0132446C28.5768 -0.0357437 28.4654 0.066925 28.4654 0.066925C27.5735 0.8685 27.215 2.44247 27.4562 4.49859C27.6098 5.80782 27.9961 7.22006 28.5323 8.48232C27.6784 7.2724 26.5521 5.12334 26.549 2.2029C26.549 2.2029 26.5725 2.04789 26.4304 2.01299C26.2888 1.97776 26.2211 2.1254 26.2211 2.1254C24.2467 5.95982 25.5334 8.35918 26.9578 10.4093C25.7485 9.17619 24.6996 6.94661 24.4465 6.00377C24.4465 6.00377 24.4224 5.83131 24.277 5.83768C24.1319 5.84406 24.1084 6.01619 24.1084 6.01619C23.8485 7.38279 23.8651 8.6984 24.1563 9.82141C24.3283 10.4841 24.6606 11.127 24.946 11.6296C24.4757 11.3031 24.2362 10.9394 23.9331 10.4428C23.9331 10.4428 23.8685 10.3042 23.7384 10.3291C23.6086 10.3536 23.6127 10.5103 23.6127 10.5103C23.4822 11.543 23.6185 12.41 24.018 13.0868C24.348 13.6458 24.7693 13.931 24.9959 14.0843C25.0408 14.1148 25.0798 14.141 25.0995 14.1578L25.1131 14.1689L25.1291 14.1776C25.737 14.5017 26.0343 14.8574 26.0125 15.2352C25.9537 16.2582 23.6779 17.3795 22.8037 17.7261C20.5795 18.6388 18.4393 18.9428 17.5256 19.0729C17.0054 19.1468 16.9385 19.1562 16.9249 19.3105C16.9188 19.3803 16.9572 19.4655 17.0577 19.4977C17.7339 19.7165 18.5195 19.8276 19.3934 19.8276C21.1279 19.8272 23.118 19.3739 24.5946 18.6394C26.5151 17.5547 28.3352 17.1232 30.0953 16.7058C31.9056 16.2763 33.7774 15.8324 35.7451 14.6822C37.1269 13.8743 38.2523 13.6226 39.0738 13.4388C39.2841 13.3918 39.4826 13.3472 39.6586 13.2995C40.3667 13.1066 40.5284 13.0532 40.822 12.9563C40.9766 12.9049 41.1679 12.8415 41.4985 12.7385C41.6432 12.6932 41.8484 12.6167 42.0472 12.5426C42.2212 12.4775 42.4016 12.41 42.5249 12.3704C42.9279 12.2402 43.2276 12.1403 43.4607 12.0624C43.6744 11.9913 43.832 11.9386 43.9612 11.899C44.5731 11.7111 44.7243 11.6172 44.6975 11.442ZM12.9998 32.2237H11.0784V28.3037C11.0784 26.932 12.2727 25.9738 14.0501 25.9194C14.0963 25.9181 14.1421 25.9174 14.1873 25.9174C15.9389 25.9174 16.8651 26.9475 16.8651 28.8966C16.8651 31.1664 15.6368 32.2237 12.9998 32.2237ZM58.1057 14.2836H54.9097C54.3644 14.2836 53.9193 14.7215 53.9176 15.26L53.8901 22.5084C53.0641 22.7695 52.074 22.845 51.1175 22.8856C49.7917 22.9419 48.9548 23.0228 48.2535 23.1714C48.2583 20.5738 48.2634 16.7538 48.2651 15.3073C48.2651 15.0456 48.1621 14.7993 47.9746 14.6144C47.7877 14.4302 47.539 14.3286 47.26 14.3286C46.4582 14.34 45.008 14.3433 44.215 14.3443C43.671 14.3453 43.2276 14.7842 43.2266 15.3221L43.1919 35.1475C43.1912 35.4092 43.2945 35.6558 43.4817 35.841C43.6693 36.0265 43.9187 36.1285 44.1841 36.1285H47.3168C47.5828 36.1285 47.8326 36.0262 48.0201 35.84C48.2077 35.6541 48.3103 35.4072 48.3089 35.1448L48.2777 28.4127L47.9063 28.361C47.4405 28.297 46.9879 28.2644 46.5611 28.2644C46.4932 28.2644 46.4259 28.2651 46.3593 28.2668C47.2271 27.9369 48.2226 27.7739 49.3599 27.7739C51.2354 27.7739 52.5694 27.6574 53.919 27.3652V35.1488C53.919 35.6893 54.3641 36.1285 54.9111 36.1285H58.1057C58.6527 36.1285 59.0975 35.6893 59.0975 35.1488V15.263C59.0975 14.7232 58.6527 14.2836 58.1057 14.2836ZM35.199 15.8764L35.0424 15.8321L34.8949 15.9012C33.282 16.6538 31.7442 17.0185 30.257 17.3711C28.4657 17.7963 26.7733 18.1976 24.9385 19.2337L24.8981 19.2555C24.6048 19.4011 24.2882 19.539 23.9569 19.6652L23.8363 19.7111L23.7608 19.8151C22.4775 21.5827 21.799 23.6707 21.799 25.853C21.799 31.5737 26.512 36.2282 32.3055 36.2282C38.099 36.2282 42.812 31.5737 42.812 25.853C42.812 21.2445 39.6817 17.142 35.199 15.8764ZM15.049 21.38C14.979 21.38 14.9093 21.381 14.838 21.3827C13.3097 21.421 12.218 21.6914 11.0784 22.3464V18.2006C11.0784 18.2006 10.687 18.1536 10.6819 18.1533C10.9649 18.1405 11.2656 18.1345 11.5867 18.1345C12.6916 18.1345 13.9889 18.2046 15.3324 18.2828C15.4754 18.2912 15.6157 18.2952 15.7523 18.2952C20.6947 18.2952 21.7035 13.0442 21.713 12.9912L21.8394 12.2939L21.1554 12.508C19.4209 13.0515 17.3041 13.3508 15.1951 13.3508C13.6549 13.3508 12.8061 13.277 12.1242 13.2176C11.6478 13.1764 11.2371 13.1408 10.7271 13.1408C9.07065 13.1408 7.71426 13.6183 6.80502 14.5215C6.01368 15.3076 5.58217 16.4075 5.58931 17.6184C5.59236 18.1294 5.69396 18.8736 5.96476 19.381V35.1344C5.96476 35.6746 6.40986 36.1138 6.95656 36.1138H13.0423C18.616 36.1138 21.9434 33.3604 21.9434 28.7489C21.9434 24.4102 19.1083 21.38 15.049 21.38ZM32.3055 31.3778C29.2203 31.3778 26.7104 28.8992 26.7104 25.853C26.7104 22.8067 29.2203 20.3282 32.3055 20.3282C35.3903 20.3282 37.9002 22.8067 37.9002 25.853C37.9002 28.8992 35.3903 31.3778 32.3055 31.3778ZM42.7546 45.7398C42.6303 45.4898 42.3785 45.3344 42.0972 45.3344C41.9813 45.3344 41.8654 45.3623 41.7618 45.415C41.3231 45.6388 40.8121 45.7522 40.2423 45.7522C39.4374 45.7522 38.6824 45.4411 38.1167 44.8758C37.5506 44.3104 37.2441 43.5615 37.2537 42.766C37.2723 41.1608 38.663 39.8546 40.3541 39.8546C40.4608 39.8546 40.5685 39.86 40.6769 39.8707C41.0894 39.9113 41.4631 40.0116 41.788 40.1696C41.8875 40.2183 41.999 40.2438 42.1097 40.2438C42.3897 40.2438 42.6408 40.0898 42.7655 39.8412C42.9826 39.4097 43.248 38.999 43.5548 38.6219C43.6924 38.4527 43.7464 38.2343 43.7026 38.0219C43.6591 37.8102 43.5232 37.63 43.3302 37.528C42.4216 37.0465 41.3829 36.8023 40.2423 36.8023C36.8928 36.8023 34.1678 39.4936 34.1678 42.8009C34.1678 46.1085 36.8928 48.7991 40.2423 48.7991C41.3687 48.7991 42.4033 48.5465 43.3176 48.0475C43.5079 47.9442 43.6414 47.7643 43.6836 47.5546C43.726 47.3449 43.6727 47.1282 43.5371 46.9604C43.2337 46.5839 42.9704 46.1733 42.7546 45.7398ZM48.8305 45.7522C47.1822 45.7522 45.8415 44.4285 45.8415 42.8009C45.8415 41.1735 47.1822 39.8499 48.8305 39.8499C50.4781 39.8499 51.8188 41.1735 51.8188 42.8009C51.8188 44.4285 50.4781 45.7522 48.8305 45.7522ZM48.8305 36.8023C45.481 36.8023 42.756 39.4936 42.756 42.8009C42.756 46.1085 45.481 48.7991 48.8305 48.7991C52.1796 48.7991 54.905 46.1085 54.905 42.8009C54.905 39.4936 52.1796 36.8023 48.8305 36.8023ZM3.16773 46.4236V44.6271C3.16773 44.0312 3.68656 43.6306 4.48911 43.6061L4.55231 43.6051C5.32666 43.6051 5.71944 44.0497 5.71944 44.9264C5.71944 45.6237 5.51863 46.4236 3.95295 46.4236H3.16773ZM63.2866 36.8395H61.5941C61.2092 36.8395 60.8949 37.1489 60.8935 37.5287L60.8796 41.239C60.4865 41.343 60.0257 41.3765 59.5783 41.3953C58.9925 41.4205 58.5831 41.4544 58.244 41.5108L58.2497 37.5549C58.2501 37.3703 58.1774 37.1965 58.0452 37.066C57.913 36.9352 57.7374 36.8633 57.5403 36.8633H57.5399C57.1162 36.8694 56.349 36.8714 55.9294 36.8717C55.5451 36.8724 55.2322 37.1824 55.2315 37.5623L55.2132 48.0623C55.2128 48.2472 55.2859 48.421 55.418 48.5518C55.5502 48.6827 55.7262 48.7548 55.9134 48.7548H57.5729C57.7605 48.7548 57.9368 48.6823 58.069 48.5508C58.2015 48.4196 58.2739 48.2455 58.2732 48.0603L58.2559 44.345L58.2491 44.3443C58.3802 44.3346 58.5151 44.3299 58.6547 44.3299C59.5643 44.3299 60.2371 44.2785 60.8945 44.1527V48.0633C60.8945 48.4445 61.2088 48.7548 61.5948 48.7548H63.2866C63.6729 48.7548 63.9872 48.4445 63.9872 48.0633V37.531C63.9872 37.1499 63.6729 36.8395 63.2866 36.8395ZM20.7851 42.7895C20.6903 42.7895 20.5911 42.7955 20.4932 42.8052L21.1191 40.5924L21.7331 42.8774C21.4303 42.8284 21.117 42.7895 20.7851 42.7895ZM17.8909 37.3519C17.6673 37.0318 17.2986 36.8405 16.9052 36.8405H15.8774C15.5094 36.8405 15.19 37.0747 15.0894 37.4035L13.3362 42.215L11.8408 38.335C11.5293 37.4411 10.6778 36.8405 9.72233 36.8405H8.6252C8.60006 36.8405 8.57525 36.8422 8.55045 36.8452L8.65374 36.2752L8.0153 36.4751C7.15703 36.7442 6.10814 36.8922 5.06164 36.8922C4.2917 36.8922 3.86766 36.8556 3.52721 36.8258C3.28223 36.8046 3.07089 36.7862 2.80519 36.7862C1.10087 36.7862 0 37.7773 0 39.311C0 39.5774 0.0856223 39.912 0.214397 40.1656V48.077C0.214397 48.4505 0.522577 48.7548 0.901087 48.7548H3.97402C6.90526 48.7548 8.6551 47.2956 8.6551 44.8519C8.6551 42.5529 7.14718 40.9474 4.98756 40.9474L4.8768 40.9487C4.2037 40.9655 3.67773 41.0736 3.16773 41.3148V39.6747C3.19151 39.6747 3.2153 39.6747 3.23908 39.6747C3.79189 39.6747 4.44426 39.7096 5.11974 39.7489C5.19585 39.7536 5.27026 39.7556 5.34297 39.7556C6.8356 39.7556 7.72106 38.8383 8.1767 37.9538L11.0288 44.755C11.1963 45.1543 11.5085 45.4613 11.8911 45.6277C11.5265 46.0411 11.039 46.2404 10.1878 46.3695C10.0108 46.3961 9.85009 46.4944 9.74748 46.6393C9.64555 46.7826 9.60715 46.9631 9.64181 47.1349L9.89936 48.4099C9.95984 48.7122 10.231 48.9316 10.5432 48.9316L10.6122 48.9279C13.2366 48.6505 14.5057 47.655 15.4608 45.1257L18.0254 38.447C18.1658 38.0823 18.1155 37.673 17.8909 37.3519ZM34.1665 45.7398C34.0421 45.4898 33.79 45.3344 33.509 45.3344C33.3931 45.3344 33.2773 45.3623 33.1733 45.415C32.735 45.6388 32.224 45.7522 31.6538 45.7522C30.8492 45.7522 30.0942 45.4411 29.5282 44.8758C28.9625 44.3104 28.656 43.5615 28.6652 42.766C28.6842 41.1608 30.0749 39.8546 31.7656 39.8546C31.8726 39.8546 31.98 39.86 32.0884 39.8707C32.5012 39.9113 32.8753 40.0116 33.1998 40.1696C33.2997 40.2183 33.4108 40.2438 33.5216 40.2438C33.8015 40.2438 34.053 40.0895 34.1773 39.8415C34.3948 39.4087 34.6601 38.9983 34.9666 38.6219C35.1042 38.4527 35.1583 38.2343 35.1148 38.0223C35.0709 37.8105 34.935 37.6304 34.742 37.528C33.8335 37.0465 32.7948 36.8023 31.6538 36.8023C28.3046 36.8023 25.5797 39.4936 25.5797 42.8009C25.5797 46.1085 28.3046 48.7991 31.6538 48.7991C32.7802 48.7991 33.8151 48.5465 34.7295 48.0475C34.9197 47.9442 35.0533 47.7643 35.0954 47.5546C35.1379 47.3449 35.0845 47.1282 34.949 46.9604C34.6452 46.5836 34.3819 46.1729 34.1665 45.7398ZM23.5053 38.2357C23.2515 37.4012 22.4891 36.8405 21.608 36.8405H19.7865C19.4712 36.8405 19.1983 37.0412 19.1073 37.3398L15.9086 47.8519C15.8434 48.0663 15.8835 48.2928 16.0191 48.4726C16.1539 48.6518 16.3612 48.7548 16.5875 48.7548H18.2996C18.6166 48.7548 18.8973 48.5438 18.9826 48.2421L19.7005 45.6988C19.7359 45.6975 19.7719 45.6968 19.8075 45.6968C20.1201 45.6968 20.3549 45.7159 20.6036 45.7361C20.8697 45.7579 21.1446 45.7807 21.5227 45.7807C21.8975 45.7807 22.2155 45.7263 22.4571 45.6643L23.1458 48.2334C23.2281 48.5404 23.5101 48.7548 23.8312 48.7548H25.7523C25.9785 48.7548 26.1858 48.6518 26.321 48.4723C26.4563 48.2928 26.4964 48.0663 26.4311 47.8519L23.5053 38.2357Z" fill="#C9D3D9"/>
<path d="M33.8034 45.9156C33.7222 45.7526 33.5228 45.6865 33.359 45.7697C32.8782 46.0153 32.3053 46.1515 31.654 46.1515C29.7669 46.1515 28.2392 44.6302 28.261 42.7617C28.2844 40.7589 30.1104 39.2742 32.1287 39.4731C32.5948 39.5191 33.0134 39.6339 33.3787 39.8117C33.5404 39.8902 33.7348 39.8234 33.8153 39.6641C34.047 39.2027 34.3277 38.7695 34.6515 38.3716C34.7813 38.2119 34.7334 37.9767 34.5509 37.8797C33.7246 37.4422 32.745 37.2016 31.654 37.2016C28.5226 37.2016 25.9838 39.7083 25.9838 42.8009C25.9838 45.8931 28.5226 48.3999 31.654 48.3999C32.7379 48.3999 33.7117 48.1466 34.5343 47.698C34.714 47.6003 34.7609 47.3678 34.6328 47.2091C34.3114 46.8105 34.0331 46.377 33.8034 45.9156ZM42.3916 45.9156C42.3107 45.7526 42.1109 45.6865 41.9475 45.7697C41.4664 46.0153 40.8935 46.1515 40.2422 46.1515C38.355 46.1515 36.8274 44.6302 36.8492 42.7617C36.8726 40.7589 38.6986 39.2742 40.7168 39.4731C41.183 39.5191 41.6019 39.6339 41.9669 39.8117C42.1286 39.8902 42.3233 39.8234 42.4035 39.6641C42.6352 39.2027 42.9158 38.7695 43.2397 38.3716C43.3698 38.2119 43.3219 37.9767 43.1391 37.8797C42.3127 37.4422 41.3332 37.2016 40.2422 37.2016C37.1108 37.2016 34.5723 39.7083 34.5723 42.8009C34.5723 45.8931 37.1108 48.3999 40.2422 48.3999C41.326 48.3999 42.2998 48.1466 43.1224 47.698C43.3022 47.6003 43.3491 47.3678 43.2213 47.2091C42.8995 46.8105 42.6213 46.377 42.3916 45.9156ZM48.8303 46.1515C46.9565 46.1515 45.4373 44.6514 45.4373 42.8009C45.4373 40.9505 46.9565 39.4503 48.8303 39.4503C50.7045 39.4503 52.2233 40.9505 52.2233 42.8009C52.2233 44.6514 50.7045 46.1515 48.8303 46.1515ZM48.8303 37.2016C45.6989 37.2016 43.1605 39.7083 43.1605 42.8009C43.1605 45.8931 45.6989 48.3999 48.8303 48.3999C51.9617 48.3999 54.5005 45.8931 54.5005 42.8009C54.5005 39.7083 51.9617 37.2016 48.8303 37.2016ZM16.905 37.2402H15.8775C15.69 37.2402 15.5245 37.3613 15.4702 37.5388L13.3466 43.3653L11.4584 38.4649C11.2029 37.7321 10.506 37.2402 9.72251 37.2402H8.62538C8.47758 37.2402 8.377 37.3885 8.43374 37.5237L11.4024 44.602C11.5967 45.0647 12.0527 45.3664 12.559 45.3664C12.0778 46.2303 11.47 46.5793 10.2492 46.7642C10.1075 46.7856 10.0103 46.9175 10.0385 47.0568L10.2961 48.3324C10.3212 48.4576 10.4411 48.5442 10.5692 48.5307C12.9256 48.2818 14.1321 47.501 15.0825 44.9839L17.6474 38.3055C17.8448 37.7911 17.4612 37.2402 16.905 37.2402ZM23.0448 43.4555C22.355 43.4555 21.6 43.1888 20.7853 43.1888C20.4421 43.1888 20.018 43.2821 19.9311 43.3082L21.1295 39.0725L22.1318 42.8039C22.563 42.9764 23.3482 43.2243 23.9605 43.0616C23.7811 43.2737 23.5466 43.4555 23.0448 43.4555ZM23.1178 38.3508C22.9173 37.6911 22.3037 37.2402 21.6082 37.2402H19.7863C19.6521 37.2402 19.5332 37.3271 19.4948 37.4546L16.2958 47.9667C16.237 48.1603 16.3835 48.3553 16.5877 48.3553H18.2998C18.4364 48.3553 18.5563 48.2653 18.593 48.1348L19.225 45.8958C18.8795 45.8072 18.4163 45.7472 18.0701 45.9066C18.538 45.5214 19.1387 45.2976 19.8077 45.2976C20.4764 45.2976 20.8111 45.3815 21.5229 45.3815C22.2347 45.3815 22.7063 45.162 22.7376 45.1493L23.5368 48.1311C23.5721 48.2633 23.6931 48.3553 23.8313 48.3553H25.7521C25.9563 48.3553 26.1027 48.1603 26.044 47.9667L23.1178 38.3508ZM3.95279 46.8229H2.76357V44.6272C2.76357 43.8377 3.4207 43.2391 4.47638 43.2069C5.49401 43.1757 6.12361 43.7635 6.12361 44.9265C6.12361 46.2434 5.33092 46.8229 3.95279 46.8229ZM4.88683 41.3477C4.05166 41.3685 3.46521 41.5299 2.76357 42.0138V39.7161C1.97156 39.6214 1.41467 39.6211 0.915536 39.8016C1.75274 39.1876 2.98647 39.2248 5.1437 39.3507C7.65906 39.4973 8.1378 36.856 8.1378 36.856C7.10081 37.1808 5.97921 37.2915 5.06147 37.2915C3.73839 37.2915 3.41764 37.1855 2.80503 37.1855C1.22745 37.1855 0.404175 38.0646 0.404175 39.3111C0.404175 39.5433 0.497952 39.8684 0.618572 40.0633C0.624348 40.0576 0.613136 40.0694 0.618572 40.0633V48.0768C0.618572 48.2308 0.744969 48.3553 0.900926 48.3553H3.97419C6.45863 48.3553 8.25061 47.2386 8.25061 44.852C8.25061 42.9106 7.00397 41.2947 4.88683 41.3477ZM63.5827 37.5311V48.063C63.5827 48.2244 63.4502 48.3553 63.2867 48.3553H61.5947C61.4312 48.3553 61.299 48.2244 61.299 48.063V43.6545C60.5699 43.836 59.8526 43.9306 58.6546 43.9306C57.2663 43.9306 56.4195 44.3779 55.8562 44.9134V44.9137C56.4763 44.6101 57.219 44.605 57.8531 44.6926L57.8687 48.0617C57.8694 48.2237 57.7365 48.3553 57.5727 48.3553H55.9136C55.7498 48.3553 55.6173 48.2244 55.6177 48.0627L55.636 37.5626C55.6364 37.4016 55.7672 37.2714 55.9306 37.2711C56.3509 37.2704 57.1202 37.2687 57.5456 37.2627C57.711 37.2607 57.8456 37.3912 57.8452 37.5546C57.8442 38.3766 57.8415 40.6472 57.8388 42.0111C58.2621 41.8883 58.7314 41.8312 59.5954 41.7947C60.2522 41.7665 60.819 41.7084 61.2827 41.5286L61.298 37.5301C61.2984 37.369 61.4309 37.2389 61.594 37.2389H63.2867C63.4502 37.2389 63.5827 37.3697 63.5827 37.5311Z" fill="#25295C"/>
<path d="M35.0799 16.2878C33.4327 17.0569 31.8744 17.4276 30.3584 17.7877C28.5977 18.2051 26.9348 18.5996 25.1537 19.6052L25.1238 19.6223L25.0929 19.6378C24.7823 19.7921 24.4541 19.9347 24.113 20.0642C22.9292 21.6952 22.232 23.6936 22.232 25.8531C22.232 31.3467 26.7421 35.8002 32.3053 35.8002C37.8688 35.8002 42.3789 31.3467 42.3789 25.8531C42.3789 21.3094 39.2941 17.4776 35.0799 16.2878ZM32.3053 31.806C28.9762 31.806 26.2773 29.1409 26.2773 25.8531C26.2773 22.5652 28.9762 19.9005 32.3053 19.9005C35.6347 19.9005 38.3332 22.5652 38.3332 25.8531C38.3332 29.1409 35.6347 31.806 32.3053 31.806ZM12.9999 32.6516H10.6449V28.3038C10.6449 26.7409 11.9463 25.5558 14.0369 25.4917C16.0511 25.4303 17.2984 26.5943 17.2984 28.8963C17.2984 31.5041 15.7283 32.6516 12.9999 32.6516ZM14.849 21.8103C13.196 21.8519 12.0343 22.171 10.6449 23.1293V18.5798C9.07654 18.3919 7.97431 18.3913 6.98556 18.7489C8.64333 17.5333 11.0863 17.6071 15.3576 17.8558C20.3387 18.146 21.2864 12.9161 21.2864 12.9161C19.2328 13.5597 17.0123 13.7788 15.1952 13.7788C12.5752 13.7788 11.9398 13.5687 10.7268 13.5687C7.44969 13.5687 6.00973 15.49 6.0223 17.6159C6.0257 18.1507 6.14156 18.8647 6.39775 19.2673C6.40896 19.2559 6.38722 19.2791 6.39775 19.2673V35.1345C6.39775 35.4395 6.64816 35.6861 6.95668 35.6861H13.0424C17.961 35.6861 21.5099 33.4746 21.5099 28.7487C21.5099 24.9052 19.0418 21.7053 14.849 21.8103ZM58.6644 15.2631V35.1489C58.6644 35.4539 58.4143 35.7009 58.1058 35.7009H54.9112C54.6027 35.7009 54.3523 35.4539 54.3523 35.1489V26.8248C52.9759 27.1677 51.6215 27.3462 49.3596 27.3462C46.7383 27.3462 45.1389 28.1911 44.0761 29.202L44.0758 29.2023C45.2466 28.6293 46.6489 28.6199 47.8463 28.7853L47.8758 35.1466C47.8772 35.4522 47.6264 35.7009 47.3169 35.7009H44.1838C43.875 35.7009 43.6246 35.4532 43.6252 35.1482L43.6599 15.3232C43.6606 15.0189 43.9079 14.7726 44.2158 14.7723C45.0098 14.7713 46.4627 14.7679 47.2659 14.7568C47.5775 14.7521 47.832 14.9994 47.8317 15.3074C47.8296 16.8596 47.8242 21.1466 47.8194 23.7218C48.6186 23.4896 49.5044 23.3826 51.136 23.3131C52.3758 23.2605 53.4458 23.1504 54.322 22.8112L54.3506 15.2615C54.3516 14.9578 54.6017 14.7115 54.9095 14.7115H58.1058C58.4143 14.7115 58.6644 14.9588 58.6644 15.2631Z" fill="#25295C"/>
<path d="M43.91 11.7357C43.6389 11.8189 43.2457 11.9582 42.4717 12.2078C42.2043 12.294 41.7144 12.492 41.4466 12.5756C40.4939 12.8728 40.693 12.8406 39.6132 13.1345C38.7631 13.3657 37.4196 13.5046 35.6572 14.535C31.8052 16.7868 28.4326 16.2754 24.5088 18.4913C22.5296 19.475 19.3347 20.0545 17.1119 19.3354C16.868 19.2566 19.7931 19.1472 22.8708 17.8846C22.8708 17.8846 28.3632 15.7077 25.2115 14.027C24.9611 13.8183 23.4565 13.1329 23.7851 10.5315C24.2007 11.2123 24.5065 11.6599 25.4164 12.0957C25.1129 11.5693 24.5622 10.6939 24.3243 9.77892C24.0199 8.60524 24.042 7.295 24.2791 6.04818C24.5849 7.18562 26.134 10.4205 27.7591 11.2415C26.153 8.97197 24.1453 6.53503 26.3759 2.20335C26.38 6.07234 28.3439 8.75086 29.3258 9.70645C27.6606 6.77057 26.7133 1.8732 28.5821 0.193874C28.1206 4.54333 30.39 10.0078 32.1127 12.3853C32.5133 12.9386 33.0763 13.3191 33.7001 13.51C34.7198 13.771 35.9008 13.2349 36.7387 12.8225C37.3466 12.5235 37.9527 12.0645 38.5327 11.7153C39.2986 11.2539 39.78 11.1553 40.692 11.4613C40.906 11.5331 41.7704 11.7075 41.9889 11.7626C42.4194 11.8709 43.6766 11.6079 44.0367 11.5059C44.4683 11.3838 44.9348 11.4213 43.91 11.7357Z" fill="#DC0032"/>
<path d="M42.3918 45.9156C42.3449 45.8217 42.2525 45.7573 42.158 45.7391C42.0758 45.7237 41.9905 45.7472 41.9565 45.7643C41.9049 45.7908 41.8791 45.8032 41.8281 45.8277C42.0377 46.2199 42.2895 46.6068 42.5674 46.9507C42.6952 47.1094 42.6483 47.3416 42.4686 47.4396C41.646 47.8885 40.9566 48.0348 39.8727 48.0348C38.4008 48.0348 37.0604 47.4812 36.0526 46.5729C37.0896 47.6956 38.5826 48.3999 40.2424 48.3999C41.3262 48.3999 42.3 48.1466 43.1226 47.698C43.3024 47.6003 43.3489 47.3678 43.2212 47.2091C42.8997 46.8105 42.6211 46.377 42.3918 45.9156ZM33.8036 45.9156C33.7567 45.8217 33.6643 45.7573 33.5695 45.7391C33.4876 45.7237 33.402 45.7472 33.3684 45.7643C33.3171 45.7908 33.2909 45.8032 33.2396 45.8277C33.4496 46.2199 33.7013 46.6068 33.9789 46.9507C34.107 47.1094 34.0601 47.3416 33.8804 47.4396C33.0578 47.8885 32.3684 48.0348 31.2845 48.0348C29.8126 48.0348 28.4722 47.4812 27.4641 46.5729C28.5011 47.6956 29.9944 48.3999 31.6539 48.3999C32.7381 48.3999 33.7119 48.1466 34.5345 47.698C34.7142 47.6003 34.7611 47.3678 34.633 47.2091C34.3116 46.8105 34.033 46.377 33.8036 45.9156ZM22.6267 44.7581C22.2319 44.9251 21.8649 45.0164 21.1531 45.0164C20.4413 45.0164 20.304 44.9325 19.6353 44.9325C18.9666 44.9325 18.1841 45.2972 18.07 45.9066C18.3384 45.6928 18.5837 45.561 18.757 45.4935C19.0811 45.3603 19.4277 45.2976 19.8076 45.2976C20.4763 45.2976 20.8109 45.3815 21.5231 45.3815C21.9431 45.3815 22.4633 45.2942 22.7378 45.1493L22.6267 44.7581ZM7.04664 42.0497C7.58825 42.6845 7.88113 43.5471 7.88113 44.4869C7.88113 46.8732 6.08882 47.9905 3.60472 47.9905H0.618774V48.0768C0.618774 48.2308 0.745171 48.3553 0.901128 48.3553H3.9744C6.45849 48.3553 8.25081 47.2386 8.25081 44.852C8.25081 43.7169 7.82405 42.6935 7.04664 42.0497ZM17.2491 37.318C17.3405 37.5032 17.3605 37.7247 17.278 37.9404L14.713 44.6188C13.7711 47.1135 12.5765 47.9026 10.2613 48.159L10.2963 48.3324C10.3214 48.4576 10.4413 48.5442 10.5694 48.5307C12.9254 48.2818 14.1323 47.501 15.0827 44.9839L17.6476 38.3055C17.8005 37.9069 17.6038 37.4875 17.2491 37.318ZM18.2236 47.7698C18.1869 47.9003 18.0666 47.9905 17.93 47.9905H16.2919C16.2512 48.1757 16.3918 48.3553 16.5879 48.3553H18.2997C18.4366 48.3553 18.5565 48.2653 18.5932 48.1348L19.2252 45.8958C19.0886 45.8606 18.9337 45.8311 18.775 45.8166L18.2236 47.7698ZM23.118 38.3508C23.0147 38.0106 22.7511 37.6136 22.2614 37.3794C22.3593 37.5153 22.5224 37.6606 22.6298 37.9857L25.5909 47.7235C25.6538 47.9201 25.5831 47.9905 25.3826 47.9905H23.4989L23.537 48.1311C23.5723 48.2633 23.6933 48.3553 23.8315 48.3553H25.7523C25.9565 48.3553 26.1029 48.1603 26.0438 47.9667L23.118 38.3508ZM63.2869 37.2389H63.2132V47.698C63.2132 47.8593 63.0807 47.9905 62.9173 47.9905H61.2989V48.063C61.2989 48.2244 61.4314 48.3553 61.5949 48.3553H63.2869C63.4504 48.3553 63.5829 48.2244 63.5829 48.063V37.5311C63.5829 37.3697 63.4504 37.2389 63.2869 37.2389ZM61.2989 43.2052C60.5698 43.3867 59.4828 43.5656 58.2851 43.5656C57.7071 43.5656 57.0677 43.6981 56.6953 43.9122C56.1404 44.2313 55.9549 44.6155 55.8564 44.9134C56.1717 44.6339 56.3868 44.4668 56.8091 44.2789C57.2885 44.0672 57.8889 43.9306 58.6548 43.9306C59.651 43.9306 60.6652 43.8377 61.2989 43.6545V43.2052ZM57.4849 44.6544L57.4989 47.6969C57.4999 47.8587 57.367 47.9905 57.2033 47.9905H55.6179L55.6175 48.0627C55.6172 48.2244 55.7497 48.3553 55.9135 48.3553H57.5729C57.7367 48.3553 57.8696 48.2237 57.8689 48.0617L57.8533 44.6926C57.7337 44.6762 57.6107 44.6631 57.4849 44.6544ZM52.6506 38.6635C53.57 39.6587 54.1307 40.9827 54.1307 42.4359C54.1307 45.5281 51.5922 48.0348 48.4608 48.0348C46.9889 48.0348 45.6485 47.4812 44.6407 46.5729C45.6774 47.6956 47.1704 48.3999 48.8305 48.3999C51.9619 48.3999 54.5007 45.8931 54.5007 42.8009C54.5007 41.1619 53.7872 39.6875 52.6506 38.6635ZM2.76378 42.0138V39.7161C2.63364 39.7006 2.512 39.6885 2.3941 39.6785V42.2443C2.52016 42.1574 2.64282 42.0809 2.76378 42.0138ZM42.8702 38.0065C42.5464 38.4045 42.2654 38.8373 42.0337 39.299C41.9535 39.4584 41.7591 39.5255 41.597 39.4466C41.2321 39.2688 40.8135 39.1541 40.3473 39.1081C38.3291 38.9091 36.5028 40.3938 36.4797 42.3966C36.4675 43.431 36.9309 44.3584 37.6665 44.9808C37.1494 44.3856 36.8395 43.6095 36.8494 42.7617C36.8725 40.7589 38.6988 39.2742 40.717 39.4731C41.1832 39.5191 41.6018 39.6339 41.9671 39.8117C42.1288 39.8902 42.3231 39.8234 42.4033 39.6641C42.6351 39.2027 42.916 38.7695 43.2399 38.3716C43.3697 38.2119 43.3217 37.9767 43.1389 37.8797C43.0747 37.8455 43.0074 37.815 42.9412 37.7831C42.9459 37.8606 42.9242 37.9398 42.8702 38.0065ZM34.282 38.0065C33.9582 38.4045 33.6772 38.8373 33.4455 39.299C33.3653 39.4584 33.1706 39.5255 33.0089 39.4466C32.644 39.2688 32.2254 39.1541 31.7592 39.1081C29.7409 38.9091 27.9146 40.3938 27.8915 42.3966C27.8793 43.431 28.3427 44.3584 29.0784 44.9808C28.5612 44.3856 28.2513 43.6095 28.2612 42.7617C28.2843 40.7589 30.1106 39.2742 32.1285 39.4731C32.595 39.5191 33.0136 39.6339 33.3786 39.8117C33.5406 39.8902 33.735 39.8234 33.8152 39.6641C34.0469 39.2027 34.3279 38.7695 34.6517 38.3716C34.7815 38.2119 34.7336 37.9767 34.5508 37.8797C34.4862 37.8455 34.4193 37.815 34.353 37.7831C34.3574 37.8606 34.336 37.9398 34.282 38.0065ZM46.254 44.9798C45.7454 44.394 45.4372 43.6334 45.4372 42.8009C45.4372 40.9505 46.9567 39.4503 48.8305 39.4503C49.6732 39.4503 50.4438 39.7546 51.037 40.2566C50.4149 39.5399 49.4917 39.0853 48.4608 39.0853C46.587 39.0853 45.0675 40.5854 45.0675 42.4359C45.0675 43.4542 45.5279 44.3655 46.254 44.9798ZM57.4693 42.1242C57.5899 42.0742 57.6912 42.052 57.8397 42.0111C57.842 40.6428 57.8444 38.2911 57.8454 37.5546C57.8454 37.3912 57.7109 37.2607 57.5458 37.2627C57.5237 37.263 57.4999 37.2633 57.4758 37.2637C57.4747 38.1408 57.4717 40.7991 57.4693 42.1242ZM21.1297 39.0725L20.8993 38.2149L19.4155 43.4481C19.4736 43.4307 19.6917 43.3659 19.9313 43.3082L21.1297 39.0725ZM22.0301 42.4224L22.132 42.8039C22.3508 42.8915 22.6607 42.9982 22.9926 43.0609C23.2261 43.1026 23.6352 43.1536 23.9603 43.0616C22.9498 42.9207 22.4711 42.5684 22.0301 42.4224ZM4.77389 38.9856C2.61665 38.8598 1.51782 38.9413 0.915738 39.8016C1.26129 39.5553 1.68363 39.3916 2.21912 39.3322C2.95201 39.2356 3.89149 39.2775 5.1439 39.3507C7.1377 39.4668 7.85123 37.8324 8.06155 37.1493C8.03063 37.064 8.06019 36.9758 8.12339 36.9235C8.13325 36.8802 8.138 36.856 8.138 36.856C7.96709 36.9094 7.79381 36.955 7.61985 36.9973C7.33749 37.7566 6.58149 39.0906 4.77389 38.9856ZM2.76378 44.6272C2.76378 43.8377 3.4209 43.2391 4.47659 43.2069C4.86801 43.1952 5.20132 43.2757 5.46431 43.4445C5.18502 43.0284 4.71646 42.8234 4.10691 42.8418C3.05123 42.8741 2.3941 43.4726 2.3941 44.2618V46.8229H2.76378V44.6272ZM10.5225 37.4214C11.0404 37.666 11.336 38.1129 11.4583 38.4649L13.3468 43.3653L13.1426 43.8847L10.9415 38.0998C10.8783 37.9186 10.6343 37.5693 10.5225 37.4214Z" fill="#25295C"/>
<path d="M10.645 28.3037C10.645 26.7408 11.9463 25.5557 14.0366 25.492C14.9031 25.4655 15.6268 25.6671 16.1708 26.0872C15.6078 25.3766 14.725 25.03 13.6034 25.0642C11.5128 25.1279 10.2118 26.313 10.2118 27.8759V32.6515H10.645V28.3037Z" fill="#25295C"/>
<path d="M47.3982 14.8793C47.3962 16.4314 47.3907 21.258 47.386 23.8332C47.5267 23.7919 47.6704 23.7553 47.8202 23.7218C47.8246 21.1238 47.8297 16.7555 47.8314 15.3071C47.8318 15.0403 47.6405 14.8199 47.387 14.7685C47.3945 14.8041 47.3982 14.8414 47.3982 14.8793Z" fill="#25295C"/>
<path d="M21.2865 12.9161C21.0922 12.9772 20.8951 13.0309 20.6981 13.0842C20.275 14.4461 18.8578 17.6572 14.9246 17.4283C10.6533 17.1794 7.89091 17.2948 6.98608 18.749C7.42983 18.455 7.74242 18.2494 8.51405 18.0296C10.0899 17.588 12.2336 17.6739 15.3578 17.8561C20.3389 18.146 21.2865 12.9161 21.2865 12.9161Z" fill="#25295C"/>
<path d="M27.8317 29.8427C26.8653 28.7871 26.2768 27.3883 26.2768 25.8532C26.2768 22.5654 28.976 19.9006 32.3051 19.9006C33.8596 19.9006 35.2761 20.4817 36.3451 21.4356C35.2422 20.2304 33.6469 19.4725 31.8719 19.4725C28.5428 19.4725 25.8436 22.1376 25.8436 25.4251C25.8436 27.1779 26.6108 28.7532 27.8317 29.8427Z" fill="#25295C"/>
<path d="M10.645 23.1292V18.5798C10.4952 18.5617 10.3535 18.5472 10.2118 18.5328V23.4104C10.3586 23.3094 10.5023 23.2168 10.645 23.1292Z" fill="#25295C"/>
<path d="M58.2193 14.7244C58.2268 14.7607 58.2312 14.7983 58.2312 14.8368V34.7226C58.2312 35.0273 57.9808 35.2746 57.6723 35.2746H54.4777C54.4386 35.2746 54.4006 35.2702 54.3639 35.2628C54.4166 35.5135 54.6415 35.702 54.9109 35.702H58.1055C58.4144 35.702 58.6644 35.4554 58.6644 35.1504V15.2646C58.6644 14.9986 58.4735 14.7764 58.2193 14.7244Z" fill="#25295C"/>
<path d="M54.3522 26.2948C52.9958 26.7095 51.1879 26.9182 48.9263 26.9182C47.9566 26.9182 47.1269 27.0336 46.4123 27.2306C45.3339 27.5275 44.2799 28.4995 44.0757 29.2018C44.4878 28.832 44.7688 28.6019 45.2584 28.3153C46.2509 27.7416 47.5655 27.346 49.3595 27.346C51.3843 27.346 53.0848 27.1691 54.3522 26.8246V26.2948Z" fill="#25295C"/>
<path d="M39.1972 18.5996C40.9002 20.381 41.9453 22.782 41.9453 25.4253C41.9453 30.9189 37.4351 35.3724 31.872 35.3724C29.2007 35.3724 26.774 34.3436 24.9708 32.668C26.8083 34.595 29.4134 35.8002 32.3052 35.8002C37.8687 35.8002 42.3789 31.3467 42.3789 25.8531C42.3789 22.992 41.155 20.4142 39.1972 18.5996Z" fill="#25295C"/>
<path d="M19.2824 23.3339C20.4461 24.6039 21.0771 26.3805 21.0771 28.3219C21.0771 33.0478 17.5278 35.2593 12.6092 35.2593H6.52349C6.48442 35.2593 6.4467 35.2552 6.40967 35.2479C6.46233 35.4985 6.68726 35.6871 6.95705 35.6871H13.0424C17.961 35.6871 21.5103 33.4756 21.5103 28.7497C21.5103 26.5795 20.7227 24.6146 19.2824 23.3339Z" fill="#25295C"/>
<path d="M47.4143 28.7361L47.4422 34.7199C47.4436 35.0259 47.1931 35.2742 46.8833 35.2742H43.7505C43.7115 35.2742 43.6734 35.2702 43.6367 35.2628C43.6894 35.5135 43.914 35.702 44.1838 35.702H47.3165C47.6264 35.702 47.8768 35.4537 47.8754 35.1477L47.8459 28.7864C47.7045 28.767 47.5604 28.7502 47.4143 28.7361Z" fill="#25295C"/>
<path d="M57.3033 30.2139H57.5966V31.7157H57.3033V31.1336H55.9663L56.2426 31.7157H55.9177L55.6418 31.1336V30.7957H57.3033V30.2139Z" fill="#C9D3D9"/>
<path d="M56.2915 25.8545C56.0499 25.9565 55.912 26.1866 55.912 26.5185C55.912 26.848 56.0584 27.0637 56.2799 27.0637C56.478 27.0637 56.5817 26.902 56.5817 26.6037C56.5817 26.3255 56.4869 26.0786 56.2915 25.8545ZM56.6044 25.4569C57.2313 25.4569 57.6309 25.8971 57.6309 26.5896C57.6309 26.8792 57.5646 27.1432 57.4443 27.3278L57.1623 27.2056C57.2683 27.0496 57.3261 26.8335 57.3261 26.601C57.3261 26.1101 57.0444 25.8004 56.5959 25.8004C56.5701 25.8004 56.547 25.8004 56.5242 25.8035C56.7628 26.0363 56.8834 26.3255 56.8834 26.6664C56.8834 27.1234 56.6561 27.4046 56.2881 27.4046C55.8715 27.4046 55.6072 27.058 55.6072 26.5158C55.6072 25.8571 55.9867 25.4569 56.6044 25.4569Z" fill="#C9D3D9"/>
<path d="M56.9583 20.9709C56.7599 20.9709 56.6563 21.1326 56.6563 21.4309C56.6563 21.7091 56.7514 21.956 56.9468 22.1802C57.1884 22.0782 57.3263 21.848 57.3263 21.5161C57.3263 21.1867 57.1795 20.9709 56.9583 20.9709ZM56.9495 20.6273C57.3664 20.6273 57.6311 20.9766 57.6311 21.5188C57.6311 22.1775 57.2516 22.5778 56.6332 22.5778C56.0066 22.5778 55.6071 22.1379 55.6071 21.445C55.6071 21.1555 55.6733 20.8914 55.7939 20.7069L56.0756 20.829C55.9693 20.985 55.9118 21.2011 55.9118 21.4336C55.9118 21.9248 56.1938 22.2342 56.642 22.2342C56.6678 22.2342 56.6909 22.2342 56.714 22.2315C56.4755 21.9986 56.3546 21.7091 56.3546 21.3685C56.3546 20.9112 56.5815 20.6273 56.9495 20.6273Z" fill="#C9D3D9"/>
<path d="M57.3033 16.2634H57.5966V17.7653H57.3033V17.1831H55.9663L56.2426 17.7653H55.9177L55.6418 17.1831V16.8452H57.3033V16.2634Z" fill="#C9D3D9"/>
</svg>
