<svg width="953" height="215" viewBox="0 0 953 215" fill="none" xmlns="http://www.w3.org/2000/svg">
<path d="M22 0.5L21.4974 191.499" stroke="#EAEAEA"/>
<path d="M952 0.5V191.5" stroke="#EAEAEA"/>
<path d="M22 191H952" stroke="#EAEAEA"/>
<path d="M22 144H952" stroke="#EAEAEA"/>
<path d="M22 96H952" stroke="#EAEAEA"/>
<path d="M22 49H952" stroke="#EAEAEA"/>
<path d="M22 1H952" stroke="#EAEAEA"/>
<path d="M22 191H952" stroke="#EAEAEA"/>
<path d="M22 169H82V191H22V169Z" fill="#2C287D"/>
<path d="M167 116H227V191H167V116Z" fill="#2C287D"/>
<path d="M312 84H372V191H312V84Z" fill="#2C287D"/>
<path d="M457 65H517V191H457V65Z" fill="#2C287D"/>
<path d="M602 56H662V191H602V56Z" fill="#2C287D"/>
<path d="M747 33H807V191H747V33Z" fill="#2C287D"/>
<path d="M892 14H952V191H892V14Z" fill="#2C287D"/>
<path d="M30.1777 207.693C30.1777 208.064 30.1406 208.436 30.0664 208.807C29.9922 209.174 29.8789 209.525 29.7266 209.861C29.5742 210.193 29.3828 210.504 29.1523 210.793C28.9258 211.078 28.6562 211.328 28.3438 211.543C28.0312 211.754 27.6777 211.918 27.2832 212.035C26.8926 212.156 26.459 212.217 25.9824 212.217C25.5059 212.217 25.0703 212.156 24.6758 212.035C24.2812 211.918 23.9277 211.754 23.6152 211.543C23.3066 211.328 23.0371 211.078 22.8066 210.793C22.5762 210.504 22.3848 210.193 22.2324 209.861C22.0801 209.525 21.9668 209.174 21.8926 208.807C21.8184 208.436 21.7812 208.064 21.7812 207.693C21.7812 207.025 21.875 206.414 22.0625 205.859C22.2539 205.305 22.5293 204.828 22.8887 204.43C23.248 204.031 23.6875 203.723 24.207 203.504C24.7266 203.281 25.3184 203.17 25.9824 203.17C26.6426 203.17 27.2324 203.281 27.752 203.504C28.2754 203.723 28.7148 204.031 29.0703 204.43C29.4297 204.828 29.7031 205.305 29.8906 205.859C30.082 206.414 30.1777 207.025 30.1777 207.693ZM29.0293 207.693C29.0293 207.182 28.9609 206.711 28.8242 206.281C28.6875 205.848 28.4883 205.477 28.2266 205.168C27.9688 204.855 27.6504 204.613 27.2715 204.441C26.8926 204.266 26.4629 204.178 25.9824 204.178C25.498 204.178 25.0664 204.266 24.6875 204.441C24.3086 204.613 23.9883 204.855 23.7266 205.168C23.4688 205.477 23.2715 205.848 23.1348 206.281C22.998 206.711 22.9297 207.182 22.9297 207.693C22.9297 208.217 22.9922 208.695 23.1172 209.129C23.2422 209.559 23.4316 209.928 23.6855 210.236C23.9395 210.545 24.2559 210.785 24.6348 210.957C25.0176 211.125 25.4668 211.209 25.9824 211.209C26.4941 211.209 26.9414 211.125 27.3242 210.957C27.707 210.785 28.0234 210.545 28.2734 210.236C28.5273 209.928 28.7168 209.559 28.8418 209.129C28.9668 208.695 29.0293 208.217 29.0293 207.693ZM36.6758 212H31.8242V213.535H30.8164V211.062H31.6426C31.8145 210.641 31.9512 210.211 32.0527 209.773C32.1543 209.332 32.2324 208.889 32.2871 208.443C32.3418 207.994 32.377 207.543 32.3926 207.09C32.4082 206.637 32.416 206.182 32.416 205.725H36.7988V211.062H37.6836V213.535H36.6758V212ZM35.7207 211.062V206.662H33.4473C33.4199 207.018 33.3906 207.383 33.3594 207.758C33.332 208.133 33.293 208.51 33.2422 208.889C33.1953 209.264 33.1309 209.635 33.0488 210.002C32.9707 210.369 32.8672 210.723 32.7383 211.062H35.7207ZM44.0645 209.996C44.0215 210.27 43.9277 210.537 43.7832 210.799C43.6387 211.061 43.4492 211.295 43.2148 211.502C42.9805 211.709 42.7031 211.875 42.3828 212C42.0664 212.129 41.7148 212.193 41.3281 212.193C40.9062 212.193 40.5156 212.125 40.1562 211.988C39.8008 211.848 39.4922 211.639 39.2305 211.361C38.9727 211.08 38.7695 210.729 38.6211 210.307C38.4727 209.885 38.3984 209.389 38.3984 208.818C38.3984 208.436 38.4395 208.09 38.5215 207.781C38.6074 207.469 38.7207 207.191 38.8613 206.949C39.0059 206.703 39.1719 206.492 39.3594 206.316C39.5469 206.137 39.7441 205.99 39.9512 205.877C40.1621 205.76 40.377 205.674 40.5957 205.619C40.8145 205.561 41.0254 205.531 41.2285 205.531C41.6582 205.531 42.0508 205.596 42.4062 205.725C42.7617 205.854 43.0664 206.051 43.3203 206.316C43.5781 206.578 43.7773 206.908 43.918 207.307C44.0625 207.701 44.1348 208.166 44.1348 208.701V209.24H39.5469C39.5508 209.545 39.5938 209.822 39.6758 210.072C39.7578 210.318 39.875 210.529 40.0273 210.705C40.1797 210.881 40.3633 211.018 40.5781 211.115C40.7969 211.209 41.043 211.256 41.3164 211.256C41.5938 211.256 41.8281 211.217 42.0195 211.139C42.2109 211.061 42.3711 210.961 42.5 210.84C42.6289 210.719 42.7324 210.584 42.8105 210.436C42.8926 210.287 42.9609 210.141 43.0156 209.996H44.0645ZM43.0508 208.379C43.043 208.074 42.9961 207.803 42.9102 207.564C42.8281 207.326 42.7109 207.127 42.5586 206.967C42.4102 206.803 42.2305 206.68 42.0195 206.598C41.8086 206.512 41.5742 206.469 41.3164 206.469C41.0703 206.469 40.8438 206.518 40.6367 206.615C40.4297 206.709 40.248 206.842 40.0918 207.014C39.9355 207.182 39.8105 207.383 39.7168 207.617C39.623 207.848 39.5664 208.102 39.5469 208.379H43.0508ZM50.334 209.791C50.3184 209.943 50.2871 210.109 50.2402 210.289C50.1973 210.469 50.1328 210.648 50.0469 210.828C49.9609 211.004 49.8496 211.174 49.7129 211.338C49.5801 211.502 49.416 211.648 49.2207 211.777C49.0293 211.902 48.8027 212.002 48.541 212.076C48.2793 212.154 47.9805 212.193 47.6445 212.193C47.4609 212.193 47.2676 212.17 47.0645 212.123C46.8613 212.08 46.6621 212.006 46.4668 211.9C46.2754 211.795 46.0918 211.66 45.916 211.496C45.7441 211.328 45.5918 211.121 45.459 210.875C45.3301 210.629 45.2266 210.344 45.1484 210.02C45.0703 209.691 45.0312 209.316 45.0312 208.895C45.0312 208.375 45.1055 207.908 45.2539 207.494C45.4023 207.076 45.5996 206.723 45.8457 206.434C46.0957 206.145 46.3848 205.922 46.7129 205.766C47.0449 205.609 47.3926 205.531 47.7559 205.531C48.084 205.531 48.373 205.566 48.623 205.637C48.877 205.707 49.0977 205.801 49.2852 205.918C49.4727 206.035 49.6309 206.172 49.7598 206.328C49.8887 206.48 49.9922 206.643 50.0703 206.814C50.1523 206.982 50.2129 207.154 50.252 207.33C50.2949 207.506 50.3223 207.674 50.334 207.834H49.3262C49.2715 207.408 49.123 207.074 48.8809 206.832C48.6426 206.59 48.3066 206.469 47.873 206.469C47.5762 206.469 47.3164 206.529 47.0938 206.65C46.875 206.771 46.6914 206.941 46.543 207.16C46.3984 207.375 46.2891 207.637 46.2148 207.945C46.1445 208.25 46.1094 208.586 46.1094 208.953C46.1094 209.367 46.1484 209.725 46.2266 210.025C46.3047 210.322 46.416 210.568 46.5605 210.764C46.7051 210.955 46.8809 211.098 47.0879 211.191C47.2988 211.281 47.5371 211.326 47.8027 211.326C47.9902 211.326 48.168 211.293 48.3359 211.227C48.5039 211.156 48.6543 211.057 48.7871 210.928C48.9199 210.795 49.0332 210.633 49.127 210.441C49.2207 210.25 49.2871 210.033 49.3262 209.791H50.334ZM56.334 209.791C56.3184 209.943 56.2871 210.109 56.2402 210.289C56.1973 210.469 56.1328 210.648 56.0469 210.828C55.9609 211.004 55.8496 211.174 55.7129 211.338C55.5801 211.502 55.416 211.648 55.2207 211.777C55.0293 211.902 54.8027 212.002 54.541 212.076C54.2793 212.154 53.9805 212.193 53.6445 212.193C53.4609 212.193 53.2676 212.17 53.0645 212.123C52.8613 212.08 52.6621 212.006 52.4668 211.9C52.2754 211.795 52.0918 211.66 51.916 211.496C51.7441 211.328 51.5918 211.121 51.459 210.875C51.3301 210.629 51.2266 210.344 51.1484 210.02C51.0703 209.691 51.0312 209.316 51.0312 208.895C51.0312 208.375 51.1055 207.908 51.2539 207.494C51.4023 207.076 51.5996 206.723 51.8457 206.434C52.0957 206.145 52.3848 205.922 52.7129 205.766C53.0449 205.609 53.3926 205.531 53.7559 205.531C54.084 205.531 54.373 205.566 54.623 205.637C54.877 205.707 55.0977 205.801 55.2852 205.918C55.4727 206.035 55.6309 206.172 55.7598 206.328C55.8887 206.48 55.9922 206.643 56.0703 206.814C56.1523 206.982 56.2129 207.154 56.252 207.33C56.2949 207.506 56.3223 207.674 56.334 207.834H55.3262C55.2715 207.408 55.123 207.074 54.8809 206.832C54.6426 206.59 54.3066 206.469 53.873 206.469C53.5762 206.469 53.3164 206.529 53.0938 206.65C52.875 206.771 52.6914 206.941 52.543 207.16C52.3984 207.375 52.2891 207.637 52.2148 207.945C52.1445 208.25 52.1094 208.586 52.1094 208.953C52.1094 209.367 52.1484 209.725 52.2266 210.025C52.3047 210.322 52.416 210.568 52.5605 210.764C52.7051 210.955 52.8809 211.098 53.0879 211.191C53.2988 211.281 53.5371 211.326 53.8027 211.326C53.9902 211.326 54.168 211.293 54.3359 211.227C54.5039 211.156 54.6543 211.057 54.7871 210.928C54.9199 210.795 55.0332 210.633 55.127 210.441C55.2207 210.25 55.2871 210.033 55.3262 209.791H56.334ZM57.3887 207.605C57.4004 207.223 57.4727 206.9 57.6055 206.639C57.7383 206.373 57.918 206.158 58.1445 205.994C58.3711 205.83 58.6387 205.713 58.9473 205.643C59.2598 205.568 59.5996 205.531 59.9668 205.531C60.2715 205.531 60.5664 205.562 60.8516 205.625C61.1406 205.688 61.3965 205.789 61.6191 205.93C61.8418 206.066 62.0195 206.246 62.1523 206.469C62.2891 206.688 62.3574 206.955 62.3574 207.271V210.922C62.3574 211.023 62.3848 211.111 62.4395 211.186C62.4941 211.256 62.582 211.291 62.7031 211.291C62.7578 211.291 62.8145 211.287 62.873 211.279C62.9316 211.268 62.9922 211.256 63.0547 211.244V211.988C62.9648 212.012 62.875 212.033 62.7852 212.053C62.6992 212.072 62.5957 212.082 62.4746 212.082C62.2871 212.082 62.125 212.066 61.9883 212.035C61.8555 212.004 61.7422 211.953 61.6484 211.883C61.5586 211.809 61.4883 211.715 61.4375 211.602C61.3867 211.484 61.3535 211.342 61.3379 211.174C61.2051 211.318 61.0645 211.453 60.916 211.578C60.7676 211.699 60.6016 211.807 60.418 211.9C60.2344 211.99 60.0293 212.061 59.8027 212.111C59.5762 212.166 59.3203 212.193 59.0352 212.193C58.793 212.193 58.5566 212.154 58.3262 212.076C58.0996 211.998 57.8945 211.883 57.7109 211.73C57.5312 211.578 57.3867 211.391 57.2773 211.168C57.168 210.941 57.1133 210.68 57.1133 210.383C57.1133 210.059 57.168 209.779 57.2773 209.545C57.3867 209.307 57.5293 209.109 57.7051 208.953C57.8809 208.793 58.082 208.67 58.3086 208.584C58.5352 208.498 58.7656 208.441 59 208.414L60.7637 208.197C60.9316 208.178 61.0625 208.113 61.1562 208.004C61.2539 207.891 61.3027 207.711 61.3027 207.465C61.3027 207.086 61.1777 206.814 60.9277 206.65C60.6816 206.482 60.3262 206.398 59.8613 206.398C59.3848 206.398 59.0293 206.5 58.7949 206.703C58.5605 206.902 58.4277 207.203 58.3965 207.605H57.3887ZM61.2793 208.807C61.1934 208.869 61.0859 208.922 60.957 208.965C60.832 209.004 60.6934 209.037 60.541 209.064C60.3887 209.092 60.2266 209.117 60.0547 209.141C59.8828 209.16 59.7109 209.182 59.5391 209.205C59.3438 209.232 59.1641 209.271 59 209.322C58.8359 209.373 58.6934 209.439 58.5723 209.521C58.4512 209.604 58.3574 209.703 58.291 209.82C58.2246 209.934 58.1914 210.068 58.1914 210.225C58.1914 210.404 58.2188 210.562 58.2734 210.699C58.332 210.836 58.4102 210.951 58.5078 211.045C58.6094 211.139 58.7305 211.209 58.8711 211.256C59.0117 211.303 59.166 211.326 59.334 211.326C59.4395 211.326 59.5605 211.314 59.6973 211.291C59.834 211.264 59.9746 211.225 60.1191 211.174C60.2637 211.123 60.4043 211.059 60.541 210.98C60.6816 210.898 60.8066 210.801 60.916 210.688C61.0254 210.574 61.1133 210.445 61.1797 210.301C61.2461 210.156 61.2793 209.994 61.2793 209.814V208.807ZM64.2852 213.225C64.5547 213.178 64.7441 212.988 64.8535 212.656C64.9121 212.48 64.9414 212.311 64.9414 212.146C64.9414 212.119 64.9395 212.094 64.9355 212.07C64.9355 212.051 64.9316 212.027 64.9238 212H64.2852V210.723H65.5391V211.906C65.5391 212.371 65.4453 212.779 65.2578 213.131C65.0703 213.482 64.7461 213.699 64.2852 213.781V213.225ZM71.1172 206.059V205.25C71.8789 205.176 72.4102 205.053 72.7109 204.881C73.0117 204.705 73.2363 204.293 73.3848 203.645H74.2168V212H73.0918V206.059H71.1172ZM78.2422 209.973C78.2734 210.555 78.498 210.957 78.916 211.18C79.1309 211.297 79.373 211.355 79.6426 211.355C80.1465 211.355 80.5762 211.146 80.9316 210.729C81.2871 210.307 81.5391 209.453 81.6875 208.168C81.4531 208.539 81.1621 208.801 80.8145 208.953C80.4707 209.102 80.0996 209.176 79.7012 209.176C78.8926 209.176 78.252 208.924 77.7793 208.42C77.3105 207.916 77.0762 207.268 77.0762 206.475C77.0762 205.713 77.3086 205.043 77.7734 204.465C78.2383 203.887 78.9238 203.598 79.8301 203.598C81.0527 203.598 81.8965 204.148 82.3613 205.25C82.6191 205.855 82.748 206.613 82.748 207.523C82.748 208.551 82.5938 209.461 82.2852 210.254C81.7734 211.574 80.9062 212.234 79.6836 212.234C78.8633 212.234 78.2402 212.02 77.8145 211.59C77.3887 211.16 77.1758 210.621 77.1758 209.973H78.2422ZM79.8418 208.25C80.2598 208.25 80.6406 208.113 80.9844 207.84C81.332 207.562 81.5059 207.08 81.5059 206.393C81.5059 205.775 81.3496 205.316 81.0371 205.016C80.7285 204.711 80.334 204.559 79.8535 204.559C79.3379 204.559 78.9277 204.732 78.623 205.08C78.3223 205.424 78.1719 205.885 78.1719 206.463C78.1719 207.01 78.3047 207.445 78.5703 207.77C78.8359 208.09 79.2598 208.25 79.8418 208.25ZM84.9219 209.973C84.9531 210.555 85.1777 210.957 85.5957 211.18C85.8105 211.297 86.0527 211.355 86.3223 211.355C86.8262 211.355 87.2559 211.146 87.6113 210.729C87.9668 210.307 88.2188 209.453 88.3672 208.168C88.1328 208.539 87.8418 208.801 87.4941 208.953C87.1504 209.102 86.7793 209.176 86.3809 209.176C85.5723 209.176 84.9316 208.924 84.459 208.42C83.9902 207.916 83.7559 207.268 83.7559 206.475C83.7559 205.713 83.9883 205.043 84.4531 204.465C84.918 203.887 85.6035 203.598 86.5098 203.598C87.7324 203.598 88.5762 204.148 89.041 205.25C89.2988 205.855 89.4277 206.613 89.4277 207.523C89.4277 208.551 89.2734 209.461 88.9648 210.254C88.4531 211.574 87.5859 212.234 86.3633 212.234C85.543 212.234 84.9199 212.02 84.4941 211.59C84.0684 211.16 83.8555 210.621 83.8555 209.973H84.9219ZM86.5215 208.25C86.9395 208.25 87.3203 208.113 87.6641 207.84C88.0117 207.562 88.1855 207.08 88.1855 206.393C88.1855 205.775 88.0293 205.316 87.7168 205.016C87.4082 204.711 87.0137 204.559 86.5332 204.559C86.0176 204.559 85.6074 204.732 85.3027 205.08C85.002 205.424 84.8516 205.885 84.8516 206.463C84.8516 207.01 84.9844 207.445 85.25 207.77C85.5156 208.09 85.9395 208.25 86.5215 208.25ZM96.2832 203.75V204.67C96.0137 204.932 95.6543 205.387 95.2051 206.035C94.7598 206.684 94.3652 207.383 94.0215 208.133C93.6816 208.863 93.4238 209.529 93.248 210.131C93.1348 210.518 92.9883 211.141 92.8086 212H91.6426C91.9082 210.398 92.4941 208.805 93.4004 207.219C93.9355 206.289 94.498 205.486 95.0879 204.811H90.4473V203.75H96.2832Z" fill="#A3A3A3"/>
<path d="M153.312 203.387H154.461V206.938H159.043V203.387H160.197V212H159.043V207.945H154.461V212H153.312V203.387ZM161.885 205.725H162.963V210.535H162.986L166.068 205.725H167.305V212H166.221V207.189H166.197L163.121 212H161.885V205.725ZM168.893 205.725H169.971V208.76L173.141 205.725H174.553L171.605 208.496L174.6 212H173.211L170.762 209.152L169.971 209.814V212H168.893V205.725ZM179.85 208.854C179.85 208.506 179.811 208.188 179.732 207.898C179.654 207.605 179.537 207.354 179.381 207.143C179.225 206.932 179.031 206.768 178.801 206.65C178.574 206.529 178.311 206.469 178.01 206.469C177.709 206.469 177.445 206.529 177.219 206.65C176.992 206.768 176.801 206.932 176.645 207.143C176.488 207.354 176.371 207.605 176.293 207.898C176.215 208.188 176.176 208.506 176.176 208.854C176.176 209.205 176.215 209.529 176.293 209.826C176.371 210.119 176.488 210.371 176.645 210.582C176.801 210.793 176.992 210.959 177.219 211.08C177.445 211.197 177.709 211.256 178.01 211.256C178.311 211.256 178.574 211.197 178.801 211.08C179.031 210.959 179.225 210.793 179.381 210.582C179.537 210.371 179.654 210.119 179.732 209.826C179.811 209.529 179.85 209.205 179.85 208.854ZM180.928 208.854C180.928 209.369 180.861 209.834 180.729 210.248C180.596 210.658 180.404 211.008 180.154 211.297C179.904 211.586 179.598 211.809 179.234 211.965C178.875 212.117 178.467 212.193 178.01 212.193C177.553 212.193 177.145 212.117 176.785 211.965C176.426 211.809 176.121 211.586 175.871 211.297C175.621 211.008 175.43 210.658 175.297 210.248C175.164 209.834 175.098 209.369 175.098 208.854C175.098 208.346 175.164 207.887 175.297 207.477C175.43 207.066 175.621 206.717 175.871 206.428C176.121 206.139 176.426 205.918 176.785 205.766C177.145 205.609 177.553 205.531 178.01 205.531C178.467 205.531 178.875 205.609 179.234 205.766C179.598 205.918 179.904 206.139 180.154 206.428C180.404 206.717 180.596 207.066 180.729 207.477C180.861 207.887 180.928 208.346 180.928 208.854ZM186.371 206.662H183.969L183.922 208.168C183.898 208.93 183.84 209.566 183.746 210.078C183.652 210.586 183.523 210.994 183.359 211.303C183.199 211.611 183.004 211.83 182.773 211.959C182.543 212.088 182.279 212.152 181.982 212.152C181.873 212.152 181.777 212.135 181.695 212.1C181.617 212.068 181.557 212.035 181.514 212V211.051C181.666 211.109 181.801 211.139 181.918 211.139C182 211.139 182.078 211.125 182.152 211.098C182.23 211.07 182.303 211.018 182.369 210.939C182.439 210.861 182.504 210.752 182.562 210.611C182.621 210.467 182.672 210.279 182.715 210.049C182.762 209.818 182.799 209.539 182.826 209.211C182.857 208.883 182.879 208.492 182.891 208.039L182.943 205.725H187.449V212H186.371V206.662ZM189.025 207.605C189.037 207.223 189.109 206.9 189.242 206.639C189.375 206.373 189.555 206.158 189.781 205.994C190.008 205.83 190.275 205.713 190.584 205.643C190.896 205.568 191.236 205.531 191.604 205.531C191.908 205.531 192.203 205.562 192.488 205.625C192.777 205.688 193.033 205.789 193.256 205.93C193.479 206.066 193.656 206.246 193.789 206.469C193.926 206.688 193.994 206.955 193.994 207.271V210.922C193.994 211.023 194.021 211.111 194.076 211.186C194.131 211.256 194.219 211.291 194.34 211.291C194.395 211.291 194.451 211.287 194.51 211.279C194.568 211.268 194.629 211.256 194.691 211.244V211.988C194.602 212.012 194.512 212.033 194.422 212.053C194.336 212.072 194.232 212.082 194.111 212.082C193.924 212.082 193.762 212.066 193.625 212.035C193.492 212.004 193.379 211.953 193.285 211.883C193.195 211.809 193.125 211.715 193.074 211.602C193.023 211.484 192.99 211.342 192.975 211.174C192.842 211.318 192.701 211.453 192.553 211.578C192.404 211.699 192.238 211.807 192.055 211.9C191.871 211.99 191.666 212.061 191.439 212.111C191.213 212.166 190.957 212.193 190.672 212.193C190.43 212.193 190.193 212.154 189.963 212.076C189.736 211.998 189.531 211.883 189.348 211.73C189.168 211.578 189.023 211.391 188.914 211.168C188.805 210.941 188.75 210.68 188.75 210.383C188.75 210.059 188.805 209.779 188.914 209.545C189.023 209.307 189.166 209.109 189.342 208.953C189.518 208.793 189.719 208.67 189.945 208.584C190.172 208.498 190.402 208.441 190.637 208.414L192.4 208.197C192.568 208.178 192.699 208.113 192.793 208.004C192.891 207.891 192.939 207.711 192.939 207.465C192.939 207.086 192.814 206.814 192.564 206.65C192.318 206.482 191.963 206.398 191.498 206.398C191.021 206.398 190.666 206.5 190.432 206.703C190.197 206.902 190.064 207.203 190.033 207.605H189.025ZM192.916 208.807C192.83 208.869 192.723 208.922 192.594 208.965C192.469 209.004 192.33 209.037 192.178 209.064C192.025 209.092 191.863 209.117 191.691 209.141C191.52 209.16 191.348 209.182 191.176 209.205C190.98 209.232 190.801 209.271 190.637 209.322C190.473 209.373 190.33 209.439 190.209 209.521C190.088 209.604 189.994 209.703 189.928 209.82C189.861 209.934 189.828 210.068 189.828 210.225C189.828 210.404 189.855 210.562 189.91 210.699C189.969 210.836 190.047 210.951 190.145 211.045C190.246 211.139 190.367 211.209 190.508 211.256C190.648 211.303 190.803 211.326 190.971 211.326C191.076 211.326 191.197 211.314 191.334 211.291C191.471 211.264 191.611 211.225 191.756 211.174C191.9 211.123 192.041 211.059 192.178 210.98C192.318 210.898 192.443 210.801 192.553 210.688C192.662 210.574 192.75 210.445 192.816 210.301C192.883 210.156 192.916 209.994 192.916 209.814V208.807ZM201.061 209.996C201.018 210.27 200.924 210.537 200.779 210.799C200.635 211.061 200.445 211.295 200.211 211.502C199.977 211.709 199.699 211.875 199.379 212C199.062 212.129 198.711 212.193 198.324 212.193C197.902 212.193 197.512 212.125 197.152 211.988C196.797 211.848 196.488 211.639 196.227 211.361C195.969 211.08 195.766 210.729 195.617 210.307C195.469 209.885 195.395 209.389 195.395 208.818C195.395 208.436 195.436 208.09 195.518 207.781C195.604 207.469 195.717 207.191 195.857 206.949C196.002 206.703 196.168 206.492 196.355 206.316C196.543 206.137 196.74 205.99 196.947 205.877C197.158 205.76 197.373 205.674 197.592 205.619C197.811 205.561 198.021 205.531 198.225 205.531C198.654 205.531 199.047 205.596 199.402 205.725C199.758 205.854 200.062 206.051 200.316 206.316C200.574 206.578 200.773 206.908 200.914 207.307C201.059 207.701 201.131 208.166 201.131 208.701V209.24H196.543C196.547 209.545 196.59 209.822 196.672 210.072C196.754 210.318 196.871 210.529 197.023 210.705C197.176 210.881 197.359 211.018 197.574 211.115C197.793 211.209 198.039 211.256 198.312 211.256C198.59 211.256 198.824 211.217 199.016 211.139C199.207 211.061 199.367 210.961 199.496 210.84C199.625 210.719 199.729 210.584 199.807 210.436C199.889 210.287 199.957 210.141 200.012 209.996H201.061ZM200.047 208.379C200.039 208.074 199.992 207.803 199.906 207.564C199.824 207.326 199.707 207.127 199.555 206.967C199.406 206.803 199.227 206.68 199.016 206.598C198.805 206.512 198.57 206.469 198.312 206.469C198.066 206.469 197.84 206.518 197.633 206.615C197.426 206.709 197.244 206.842 197.088 207.014C196.932 207.182 196.807 207.383 196.713 207.617C196.619 207.848 196.562 208.102 196.543 208.379H200.047ZM202.396 205.725H205.068C205.834 205.725 206.406 205.867 206.785 206.152C207.168 206.438 207.359 206.852 207.359 207.395C207.359 207.684 207.289 207.928 207.148 208.127C207.008 208.326 206.822 208.502 206.592 208.654C206.924 208.779 207.188 208.959 207.383 209.193C207.578 209.428 207.676 209.73 207.676 210.102C207.676 210.395 207.627 210.658 207.529 210.893C207.432 211.127 207.283 211.326 207.084 211.49C206.885 211.654 206.631 211.781 206.322 211.871C206.018 211.957 205.656 212 205.238 212H202.396V205.725ZM203.475 211.139H205.115C205.4 211.139 205.637 211.117 205.824 211.074C206.016 211.027 206.168 210.961 206.281 210.875C206.395 210.789 206.475 210.686 206.521 210.564C206.568 210.443 206.592 210.307 206.592 210.154C206.592 210.002 206.568 209.865 206.521 209.744C206.475 209.619 206.395 209.516 206.281 209.434C206.168 209.348 206.016 209.283 205.824 209.24C205.637 209.193 205.4 209.17 205.115 209.17H203.475V211.139ZM203.475 208.379H205.104C205.467 208.379 205.754 208.307 205.965 208.162C206.176 208.018 206.281 207.793 206.281 207.488C206.281 207.316 206.252 207.174 206.193 207.061C206.135 206.943 206.057 206.85 205.959 206.779C205.861 206.709 205.75 206.66 205.625 206.633C205.504 206.602 205.379 206.586 205.25 206.586H203.475V208.379ZM209.176 213.225C209.445 213.178 209.635 212.988 209.744 212.656C209.803 212.48 209.832 212.311 209.832 212.146C209.832 212.119 209.83 212.094 209.826 212.07C209.826 212.051 209.822 212.027 209.814 212H209.176V210.723H210.43V211.906C210.43 212.371 210.336 212.779 210.148 213.131C209.961 213.482 209.637 213.699 209.176 213.781V213.225ZM215.234 212C215.273 211.277 215.422 210.648 215.68 210.113C215.941 209.578 216.449 209.092 217.203 208.654L218.328 208.004C218.832 207.711 219.186 207.461 219.389 207.254C219.709 206.93 219.869 206.559 219.869 206.141C219.869 205.652 219.723 205.266 219.43 204.98C219.137 204.691 218.746 204.547 218.258 204.547C217.535 204.547 217.035 204.82 216.758 205.367C216.609 205.66 216.527 206.066 216.512 206.586H215.439C215.451 205.855 215.586 205.26 215.844 204.799C216.301 203.986 217.107 203.58 218.264 203.58C219.225 203.58 219.926 203.84 220.367 204.359C220.812 204.879 221.035 205.457 221.035 206.094C221.035 206.766 220.799 207.34 220.326 207.816C220.053 208.094 219.562 208.43 218.855 208.824L218.053 209.27C217.67 209.48 217.369 209.682 217.15 209.873C216.76 210.213 216.514 210.59 216.412 211.004H220.994V212H215.234ZM224.785 203.609C225.871 203.609 226.656 204.057 227.141 204.951C227.516 205.643 227.703 206.59 227.703 207.793C227.703 208.934 227.533 209.877 227.193 210.623C226.701 211.693 225.896 212.229 224.779 212.229C223.771 212.229 223.021 211.791 222.529 210.916C222.119 210.186 221.914 209.205 221.914 207.975C221.914 207.021 222.037 206.203 222.283 205.52C222.744 204.246 223.578 203.609 224.785 203.609ZM224.773 211.268C225.32 211.268 225.756 211.025 226.08 210.541C226.404 210.057 226.566 209.154 226.566 207.834C226.566 206.881 226.449 206.098 226.215 205.484C225.98 204.867 225.525 204.559 224.85 204.559C224.229 204.559 223.773 204.852 223.484 205.438C223.199 206.02 223.057 206.879 223.057 208.016C223.057 208.871 223.148 209.559 223.332 210.078C223.613 210.871 224.094 211.268 224.773 211.268ZM231.465 203.609C232.551 203.609 233.336 204.057 233.82 204.951C234.195 205.643 234.383 206.59 234.383 207.793C234.383 208.934 234.213 209.877 233.873 210.623C233.381 211.693 232.576 212.229 231.459 212.229C230.451 212.229 229.701 211.791 229.209 210.916C228.799 210.186 228.594 209.205 228.594 207.975C228.594 207.021 228.717 206.203 228.963 205.52C229.424 204.246 230.258 203.609 231.465 203.609ZM231.453 211.268C232 211.268 232.436 211.025 232.76 210.541C233.084 210.057 233.246 209.154 233.246 207.834C233.246 206.881 233.129 206.098 232.895 205.484C232.66 204.867 232.205 204.559 231.529 204.559C230.908 204.559 230.453 204.852 230.164 205.438C229.879 206.02 229.736 206.879 229.736 208.016C229.736 208.871 229.828 209.559 230.012 210.078C230.293 210.871 230.773 211.268 231.453 211.268ZM238.162 207.125C238.627 207.125 238.99 206.996 239.252 206.738C239.514 206.477 239.645 206.166 239.645 205.807C239.645 205.494 239.52 205.207 239.27 204.945C239.02 204.684 238.639 204.553 238.127 204.553C237.619 204.553 237.252 204.684 237.025 204.945C236.799 205.207 236.686 205.514 236.686 205.865C236.686 206.26 236.832 206.568 237.125 206.791C237.418 207.014 237.764 207.125 238.162 207.125ZM238.227 211.279C238.715 211.279 239.119 211.148 239.439 210.887C239.764 210.621 239.926 210.227 239.926 209.703C239.926 209.16 239.76 208.748 239.428 208.467C239.096 208.186 238.67 208.045 238.15 208.045C237.646 208.045 237.234 208.189 236.914 208.479C236.598 208.764 236.439 209.16 236.439 209.668C236.439 210.105 236.584 210.484 236.873 210.805C237.166 211.121 237.617 211.279 238.227 211.279ZM236.727 207.529C236.434 207.404 236.205 207.258 236.041 207.09C235.732 206.777 235.578 206.371 235.578 205.871C235.578 205.246 235.805 204.709 236.258 204.26C236.711 203.811 237.354 203.586 238.186 203.586C238.99 203.586 239.621 203.799 240.078 204.225C240.535 204.646 240.764 205.141 240.764 205.707C240.764 206.23 240.631 206.654 240.365 206.979C240.217 207.162 239.986 207.342 239.674 207.518C240.021 207.678 240.295 207.861 240.494 208.068C240.865 208.459 241.051 208.967 241.051 209.592C241.051 210.33 240.803 210.957 240.307 211.473C239.811 211.984 239.109 212.24 238.203 212.24C237.387 212.24 236.695 212.02 236.129 211.578C235.566 211.133 235.285 210.488 235.285 209.645C235.285 209.148 235.406 208.721 235.648 208.361C235.891 207.998 236.25 207.721 236.727 207.529Z" fill="#A3A3A3"/>
<path d="M284.312 203.387H285.461V207.582L289.662 203.387H291.268L287.682 206.861L291.367 212H289.891L286.855 207.658L285.461 209V212H284.312V203.387ZM292.158 205.725H293.236V206.586H293.26C293.33 206.441 293.418 206.305 293.523 206.176C293.633 206.047 293.762 205.936 293.91 205.842C294.062 205.744 294.236 205.668 294.432 205.613C294.631 205.559 294.857 205.531 295.111 205.531C295.447 205.531 295.77 205.596 296.078 205.725C296.387 205.854 296.66 206.047 296.898 206.305C297.137 206.562 297.326 206.887 297.467 207.277C297.607 207.664 297.678 208.115 297.678 208.631C297.678 209.275 297.611 209.824 297.479 210.277C297.35 210.727 297.164 211.094 296.922 211.379C296.684 211.664 296.395 211.871 296.055 212C295.715 212.129 295.336 212.193 294.918 212.193C294.711 212.193 294.518 212.166 294.338 212.111C294.158 212.057 293.996 211.986 293.852 211.9C293.711 211.811 293.59 211.713 293.488 211.607C293.387 211.498 293.311 211.393 293.26 211.291H293.236V214.473H292.158V205.725ZM293.213 208.895C293.213 209.234 293.246 209.549 293.312 209.838C293.379 210.123 293.48 210.371 293.617 210.582C293.758 210.793 293.932 210.959 294.139 211.08C294.35 211.197 294.598 211.256 294.883 211.256C295.18 211.256 295.436 211.197 295.65 211.08C295.869 210.959 296.049 210.793 296.189 210.582C296.33 210.371 296.434 210.123 296.5 209.838C296.566 209.549 296.6 209.234 296.6 208.895C296.6 208.539 296.566 208.213 296.5 207.916C296.434 207.619 296.33 207.363 296.189 207.148C296.049 206.934 295.869 206.768 295.65 206.65C295.436 206.529 295.18 206.469 294.883 206.469C294.598 206.469 294.35 206.529 294.139 206.65C293.932 206.768 293.758 206.934 293.617 207.148C293.48 207.363 293.379 207.619 293.312 207.916C293.246 208.213 293.213 208.539 293.213 208.895ZM303.279 208.854C303.279 208.506 303.24 208.188 303.162 207.898C303.084 207.605 302.967 207.354 302.811 207.143C302.654 206.932 302.461 206.768 302.23 206.65C302.004 206.529 301.74 206.469 301.439 206.469C301.139 206.469 300.875 206.529 300.648 206.65C300.422 206.768 300.23 206.932 300.074 207.143C299.918 207.354 299.801 207.605 299.723 207.898C299.645 208.188 299.605 208.506 299.605 208.854C299.605 209.205 299.645 209.529 299.723 209.826C299.801 210.119 299.918 210.371 300.074 210.582C300.23 210.793 300.422 210.959 300.648 211.08C300.875 211.197 301.139 211.256 301.439 211.256C301.74 211.256 302.004 211.197 302.23 211.08C302.461 210.959 302.654 210.793 302.811 210.582C302.967 210.371 303.084 210.119 303.162 209.826C303.24 209.529 303.279 209.205 303.279 208.854ZM304.357 208.854C304.357 209.369 304.291 209.834 304.158 210.248C304.025 210.658 303.834 211.008 303.584 211.297C303.334 211.586 303.027 211.809 302.664 211.965C302.305 212.117 301.896 212.193 301.439 212.193C300.982 212.193 300.574 212.117 300.215 211.965C299.855 211.809 299.551 211.586 299.301 211.297C299.051 211.008 298.859 210.658 298.727 210.248C298.594 209.834 298.527 209.369 298.527 208.854C298.527 208.346 298.594 207.887 298.727 207.477C298.859 207.066 299.051 206.717 299.301 206.428C299.551 206.139 299.855 205.918 300.215 205.766C300.574 205.609 300.982 205.531 301.439 205.531C301.896 205.531 302.305 205.609 302.664 205.766C303.027 205.918 303.334 206.139 303.584 206.428C303.834 206.717 304.025 207.066 304.158 207.477C304.291 207.887 304.357 208.346 304.357 208.854ZM309.584 206.662H306.654V212H305.576V205.725H310.668V212H309.584V206.662ZM312.256 205.725H313.334V210.535H313.357L316.439 205.725H317.676V212H316.592V207.189H316.568L313.492 212H312.256V205.725ZM319.264 205.725H321.936C322.701 205.725 323.273 205.867 323.652 206.152C324.035 206.438 324.227 206.852 324.227 207.395C324.227 207.684 324.156 207.928 324.016 208.127C323.875 208.326 323.689 208.502 323.459 208.654C323.791 208.779 324.055 208.959 324.25 209.193C324.445 209.428 324.543 209.73 324.543 210.102C324.543 210.395 324.494 210.658 324.396 210.893C324.299 211.127 324.15 211.326 323.951 211.49C323.752 211.654 323.498 211.781 323.189 211.871C322.885 211.957 322.523 212 322.105 212H319.264V205.725ZM320.342 211.139H321.982C322.268 211.139 322.504 211.117 322.691 211.074C322.883 211.027 323.035 210.961 323.148 210.875C323.262 210.789 323.342 210.686 323.389 210.564C323.436 210.443 323.459 210.307 323.459 210.154C323.459 210.002 323.436 209.865 323.389 209.744C323.342 209.619 323.262 209.516 323.148 209.434C323.035 209.348 322.883 209.283 322.691 209.24C322.504 209.193 322.268 209.17 321.982 209.17H320.342V211.139ZM320.342 208.379H321.971C322.334 208.379 322.621 208.307 322.832 208.162C323.043 208.018 323.148 207.793 323.148 207.488C323.148 207.316 323.119 207.174 323.061 207.061C323.002 206.943 322.924 206.85 322.826 206.779C322.729 206.709 322.617 206.66 322.492 206.633C322.371 206.602 322.246 206.586 322.117 206.586H320.342V208.379ZM325.838 205.725H326.916V208.256H329.846V205.725H330.93V212H329.846V209.193H326.916V212H325.838V205.725ZM332.518 205.725H333.596V210.535H333.619L336.701 205.725H337.938V212H336.854V207.189H336.83L333.754 212H332.518V205.725ZM339.525 205.725H340.604V211.062H343.533V205.725H344.617V211.062H345.391V213.535H344.383V212H339.525V205.725ZM346.381 205.725H347.459V208.76L350.629 205.725H352.041L349.094 208.496L352.088 212H350.699L348.25 209.152L347.459 209.814V212H346.381V205.725ZM352.955 205.725H354.033V210.535H354.057L357.139 205.725H358.375V212H357.291V207.189H357.268L354.191 212H352.955V205.725ZM361.656 203.287C361.707 203.537 361.812 203.736 361.973 203.885C362.133 204.029 362.369 204.102 362.682 204.102C362.998 204.102 363.236 204.031 363.396 203.891C363.557 203.746 363.66 203.545 363.707 203.287H364.709C364.705 203.521 364.654 203.734 364.557 203.926C364.459 204.113 364.32 204.273 364.141 204.406C363.965 204.539 363.752 204.643 363.502 204.717C363.256 204.787 362.982 204.822 362.682 204.822C362.381 204.822 362.107 204.787 361.861 204.717C361.615 204.646 361.404 204.545 361.229 204.412C361.053 204.279 360.914 204.119 360.812 203.932C360.715 203.74 360.664 203.525 360.66 203.287H361.656ZM359.963 205.725H361.041V210.535H361.064L364.146 205.725H365.383V212H364.299V207.189H364.275L361.199 212H359.963V205.725ZM367.176 213.225C367.445 213.178 367.635 212.988 367.744 212.656C367.803 212.48 367.832 212.311 367.832 212.146C367.832 212.119 367.83 212.094 367.826 212.07C367.826 212.051 367.822 212.027 367.814 212H367.176V210.723H368.43V211.906C368.43 212.371 368.336 212.779 368.148 213.131C367.961 213.482 367.637 213.699 367.176 213.781V213.225ZM373.234 212C373.273 211.277 373.422 210.648 373.68 210.113C373.941 209.578 374.449 209.092 375.203 208.654L376.328 208.004C376.832 207.711 377.186 207.461 377.389 207.254C377.709 206.93 377.869 206.559 377.869 206.141C377.869 205.652 377.723 205.266 377.43 204.98C377.137 204.691 376.746 204.547 376.258 204.547C375.535 204.547 375.035 204.82 374.758 205.367C374.609 205.66 374.527 206.066 374.512 206.586H373.439C373.451 205.855 373.586 205.26 373.844 204.799C374.301 203.986 375.107 203.58 376.264 203.58C377.225 203.58 377.926 203.84 378.367 204.359C378.812 204.879 379.035 205.457 379.035 206.094C379.035 206.766 378.799 207.34 378.326 207.816C378.053 208.094 377.562 208.43 376.855 208.824L376.053 209.27C375.67 209.48 375.369 209.682 375.15 209.873C374.76 210.213 374.514 210.59 374.412 211.004H378.994V212H373.234ZM382.785 203.609C383.871 203.609 384.656 204.057 385.141 204.951C385.516 205.643 385.703 206.59 385.703 207.793C385.703 208.934 385.533 209.877 385.193 210.623C384.701 211.693 383.896 212.229 382.779 212.229C381.771 212.229 381.021 211.791 380.529 210.916C380.119 210.186 379.914 209.205 379.914 207.975C379.914 207.021 380.037 206.203 380.283 205.52C380.744 204.246 381.578 203.609 382.785 203.609ZM382.773 211.268C383.32 211.268 383.756 211.025 384.08 210.541C384.404 210.057 384.566 209.154 384.566 207.834C384.566 206.881 384.449 206.098 384.215 205.484C383.98 204.867 383.525 204.559 382.85 204.559C382.229 204.559 381.773 204.852 381.484 205.438C381.199 206.02 381.057 206.879 381.057 208.016C381.057 208.871 381.148 209.559 381.332 210.078C381.613 210.871 382.094 211.268 382.773 211.268ZM387.367 206.059V205.25C388.129 205.176 388.66 205.053 388.961 204.881C389.262 204.705 389.486 204.293 389.635 203.645H390.467V212H389.342V206.059H387.367ZM396.145 203.609C397.23 203.609 398.016 204.057 398.5 204.951C398.875 205.643 399.062 206.59 399.062 207.793C399.062 208.934 398.893 209.877 398.553 210.623C398.061 211.693 397.256 212.229 396.139 212.229C395.131 212.229 394.381 211.791 393.889 210.916C393.479 210.186 393.273 209.205 393.273 207.975C393.273 207.021 393.396 206.203 393.643 205.52C394.104 204.246 394.938 203.609 396.145 203.609ZM396.133 211.268C396.68 211.268 397.115 211.025 397.439 210.541C397.764 210.057 397.926 209.154 397.926 207.834C397.926 206.881 397.809 206.098 397.574 205.484C397.34 204.867 396.885 204.559 396.209 204.559C395.588 204.559 395.133 204.852 394.844 205.438C394.559 206.02 394.416 206.879 394.416 208.016C394.416 208.871 394.508 209.559 394.691 210.078C394.973 210.871 395.453 211.268 396.133 211.268Z" fill="#A3A3A3"/>
<path d="M449.656 212L452.715 207.582L449.826 203.387H451.25L453.436 206.686L455.621 203.387H457.045L454.156 207.582L457.215 212H455.785L453.436 208.461L451.086 212H449.656ZM463.578 209.996C463.535 210.27 463.441 210.537 463.297 210.799C463.152 211.061 462.963 211.295 462.729 211.502C462.494 211.709 462.217 211.875 461.896 212C461.58 212.129 461.229 212.193 460.842 212.193C460.42 212.193 460.029 212.125 459.67 211.988C459.314 211.848 459.006 211.639 458.744 211.361C458.486 211.08 458.283 210.729 458.135 210.307C457.986 209.885 457.912 209.389 457.912 208.818C457.912 208.436 457.953 208.09 458.035 207.781C458.121 207.469 458.234 207.191 458.375 206.949C458.52 206.703 458.686 206.492 458.873 206.316C459.061 206.137 459.258 205.99 459.465 205.877C459.676 205.76 459.891 205.674 460.109 205.619C460.328 205.561 460.539 205.531 460.742 205.531C461.172 205.531 461.564 205.596 461.92 205.725C462.275 205.854 462.58 206.051 462.834 206.316C463.092 206.578 463.291 206.908 463.432 207.307C463.576 207.701 463.648 208.166 463.648 208.701V209.24H459.061C459.064 209.545 459.107 209.822 459.189 210.072C459.271 210.318 459.389 210.529 459.541 210.705C459.693 210.881 459.877 211.018 460.092 211.115C460.311 211.209 460.557 211.256 460.83 211.256C461.107 211.256 461.342 211.217 461.533 211.139C461.725 211.061 461.885 210.961 462.014 210.84C462.143 210.719 462.246 210.584 462.324 210.436C462.406 210.287 462.475 210.141 462.529 209.996H463.578ZM462.564 208.379C462.557 208.074 462.51 207.803 462.424 207.564C462.342 207.326 462.225 207.127 462.072 206.967C461.924 206.803 461.744 206.68 461.533 206.598C461.322 206.512 461.088 206.469 460.83 206.469C460.584 206.469 460.357 206.518 460.15 206.615C459.943 206.709 459.762 206.842 459.605 207.014C459.449 207.182 459.324 207.383 459.23 207.617C459.137 207.848 459.08 208.102 459.061 208.379H462.564ZM464.855 205.725H465.934V206.586H465.957C466.027 206.441 466.115 206.305 466.221 206.176C466.33 206.047 466.459 205.936 466.607 205.842C466.76 205.744 466.934 205.668 467.129 205.613C467.328 205.559 467.555 205.531 467.809 205.531C468.145 205.531 468.467 205.596 468.775 205.725C469.084 205.854 469.357 206.047 469.596 206.305C469.834 206.562 470.023 206.887 470.164 207.277C470.305 207.664 470.375 208.115 470.375 208.631C470.375 209.275 470.309 209.824 470.176 210.277C470.047 210.727 469.861 211.094 469.619 211.379C469.381 211.664 469.092 211.871 468.752 212C468.412 212.129 468.033 212.193 467.615 212.193C467.408 212.193 467.215 212.166 467.035 212.111C466.855 212.057 466.693 211.986 466.549 211.9C466.408 211.811 466.287 211.713 466.186 211.607C466.084 211.498 466.008 211.393 465.957 211.291H465.934V214.473H464.855V205.725ZM465.91 208.895C465.91 209.234 465.943 209.549 466.01 209.838C466.076 210.123 466.178 210.371 466.314 210.582C466.455 210.793 466.629 210.959 466.836 211.08C467.047 211.197 467.295 211.256 467.58 211.256C467.877 211.256 468.133 211.197 468.348 211.08C468.566 210.959 468.746 210.793 468.887 210.582C469.027 210.371 469.131 210.123 469.197 209.838C469.264 209.549 469.297 209.234 469.297 208.895C469.297 208.539 469.264 208.213 469.197 207.916C469.131 207.619 469.027 207.363 468.887 207.148C468.746 206.934 468.566 206.768 468.348 206.65C468.133 206.529 467.877 206.469 467.58 206.469C467.295 206.469 467.047 206.529 466.836 206.65C466.629 206.768 466.455 206.934 466.314 207.148C466.178 207.363 466.076 207.619 466.01 207.916C465.943 208.213 465.91 208.539 465.91 208.895ZM476.527 209.791C476.512 209.943 476.48 210.109 476.434 210.289C476.391 210.469 476.326 210.648 476.24 210.828C476.154 211.004 476.043 211.174 475.906 211.338C475.773 211.502 475.609 211.648 475.414 211.777C475.223 211.902 474.996 212.002 474.734 212.076C474.473 212.154 474.174 212.193 473.838 212.193C473.654 212.193 473.461 212.17 473.258 212.123C473.055 212.08 472.855 212.006 472.66 211.9C472.469 211.795 472.285 211.66 472.109 211.496C471.938 211.328 471.785 211.121 471.652 210.875C471.523 210.629 471.42 210.344 471.342 210.02C471.264 209.691 471.225 209.316 471.225 208.895C471.225 208.375 471.299 207.908 471.447 207.494C471.596 207.076 471.793 206.723 472.039 206.434C472.289 206.145 472.578 205.922 472.906 205.766C473.238 205.609 473.586 205.531 473.949 205.531C474.277 205.531 474.566 205.566 474.816 205.637C475.07 205.707 475.291 205.801 475.479 205.918C475.666 206.035 475.824 206.172 475.953 206.328C476.082 206.48 476.186 206.643 476.264 206.814C476.346 206.982 476.406 207.154 476.445 207.33C476.488 207.506 476.516 207.674 476.527 207.834H475.52C475.465 207.408 475.316 207.074 475.074 206.832C474.836 206.59 474.5 206.469 474.066 206.469C473.77 206.469 473.51 206.529 473.287 206.65C473.068 206.771 472.885 206.941 472.736 207.16C472.592 207.375 472.482 207.637 472.408 207.945C472.338 208.25 472.303 208.586 472.303 208.953C472.303 209.367 472.342 209.725 472.42 210.025C472.498 210.322 472.609 210.568 472.754 210.764C472.898 210.955 473.074 211.098 473.281 211.191C473.492 211.281 473.73 211.326 473.996 211.326C474.184 211.326 474.361 211.293 474.529 211.227C474.697 211.156 474.848 211.057 474.98 210.928C475.113 210.795 475.227 210.633 475.32 210.441C475.414 210.25 475.48 210.033 475.52 209.791H476.527ZM481.977 208.854C481.977 208.506 481.938 208.188 481.859 207.898C481.781 207.605 481.664 207.354 481.508 207.143C481.352 206.932 481.158 206.768 480.928 206.65C480.701 206.529 480.438 206.469 480.137 206.469C479.836 206.469 479.572 206.529 479.346 206.65C479.119 206.768 478.928 206.932 478.771 207.143C478.615 207.354 478.498 207.605 478.42 207.898C478.342 208.188 478.303 208.506 478.303 208.854C478.303 209.205 478.342 209.529 478.42 209.826C478.498 210.119 478.615 210.371 478.771 210.582C478.928 210.793 479.119 210.959 479.346 211.08C479.572 211.197 479.836 211.256 480.137 211.256C480.438 211.256 480.701 211.197 480.928 211.08C481.158 210.959 481.352 210.793 481.508 210.582C481.664 210.371 481.781 210.119 481.859 209.826C481.938 209.529 481.977 209.205 481.977 208.854ZM483.055 208.854C483.055 209.369 482.988 209.834 482.855 210.248C482.723 210.658 482.531 211.008 482.281 211.297C482.031 211.586 481.725 211.809 481.361 211.965C481.002 212.117 480.594 212.193 480.137 212.193C479.68 212.193 479.271 212.117 478.912 211.965C478.553 211.809 478.248 211.586 477.998 211.297C477.748 211.008 477.557 210.658 477.424 210.248C477.291 209.834 477.225 209.369 477.225 208.854C477.225 208.346 477.291 207.887 477.424 207.477C477.557 207.066 477.748 206.717 477.998 206.428C478.248 206.139 478.553 205.918 478.912 205.766C479.271 205.609 479.68 205.531 480.137 205.531C480.594 205.531 481.002 205.609 481.361 205.766C481.725 205.918 482.031 206.139 482.281 206.428C482.531 206.717 482.723 207.066 482.855 207.477C482.988 207.887 483.055 208.346 483.055 208.854ZM484.273 205.725H485.352V208.256H488.281V205.725H489.365V212H488.281V209.193H485.352V212H484.273V205.725ZM491.158 213.225C491.428 213.178 491.617 212.988 491.727 212.656C491.785 212.48 491.814 212.311 491.814 212.146C491.814 212.119 491.812 212.094 491.809 212.07C491.809 212.051 491.805 212.027 491.797 212H491.158V210.723H492.412V211.906C492.412 212.371 492.318 212.779 492.131 213.131C491.943 213.482 491.619 213.699 491.158 213.781V213.225ZM497.217 212C497.256 211.277 497.404 210.648 497.662 210.113C497.924 209.578 498.432 209.092 499.186 208.654L500.311 208.004C500.814 207.711 501.168 207.461 501.371 207.254C501.691 206.93 501.852 206.559 501.852 206.141C501.852 205.652 501.705 205.266 501.412 204.98C501.119 204.691 500.729 204.547 500.24 204.547C499.518 204.547 499.018 204.82 498.74 205.367C498.592 205.66 498.51 206.066 498.494 206.586H497.422C497.434 205.855 497.568 205.26 497.826 204.799C498.283 203.986 499.09 203.58 500.246 203.58C501.207 203.58 501.908 203.84 502.35 204.359C502.795 204.879 503.018 205.457 503.018 206.094C503.018 206.766 502.781 207.34 502.309 207.816C502.035 208.094 501.545 208.43 500.838 208.824L500.035 209.27C499.652 209.48 499.352 209.682 499.133 209.873C498.742 210.213 498.496 210.59 498.395 211.004H502.977V212H497.217ZM506.768 203.609C507.854 203.609 508.639 204.057 509.123 204.951C509.498 205.643 509.686 206.59 509.686 207.793C509.686 208.934 509.516 209.877 509.176 210.623C508.684 211.693 507.879 212.229 506.762 212.229C505.754 212.229 505.004 211.791 504.512 210.916C504.102 210.186 503.896 209.205 503.896 207.975C503.896 207.021 504.02 206.203 504.266 205.52C504.727 204.246 505.561 203.609 506.768 203.609ZM506.756 211.268C507.303 211.268 507.738 211.025 508.062 210.541C508.387 210.057 508.549 209.154 508.549 207.834C508.549 206.881 508.432 206.098 508.197 205.484C507.963 204.867 507.508 204.559 506.832 204.559C506.211 204.559 505.756 204.852 505.467 205.438C505.182 206.02 505.039 206.879 505.039 208.016C505.039 208.871 505.131 209.559 505.314 210.078C505.596 210.871 506.076 211.268 506.756 211.268ZM511.35 206.059V205.25C512.111 205.176 512.643 205.053 512.943 204.881C513.244 204.705 513.469 204.293 513.617 203.645H514.449V212H513.324V206.059H511.35ZM523.156 203.75V204.67C522.887 204.932 522.527 205.387 522.078 206.035C521.633 206.684 521.238 207.383 520.895 208.133C520.555 208.863 520.297 209.529 520.121 210.131C520.008 210.518 519.861 211.141 519.682 212H518.516C518.781 210.398 519.367 208.805 520.273 207.219C520.809 206.289 521.371 205.486 521.961 204.811H517.32V203.75H523.156Z" fill="#A3A3A3"/>
<path d="M583.283 203.387H584.432V207.582L588.633 203.387H590.238L586.652 206.861L590.338 212H588.861L585.826 207.658L584.432 209V212H583.283V203.387ZM591.129 205.725H592.207V206.586H592.23C592.301 206.441 592.389 206.305 592.494 206.176C592.604 206.047 592.732 205.936 592.881 205.842C593.033 205.744 593.207 205.668 593.402 205.613C593.602 205.559 593.828 205.531 594.082 205.531C594.418 205.531 594.74 205.596 595.049 205.725C595.357 205.854 595.631 206.047 595.869 206.305C596.107 206.562 596.297 206.887 596.438 207.277C596.578 207.664 596.648 208.115 596.648 208.631C596.648 209.275 596.582 209.824 596.449 210.277C596.32 210.727 596.135 211.094 595.893 211.379C595.654 211.664 595.365 211.871 595.025 212C594.686 212.129 594.307 212.193 593.889 212.193C593.682 212.193 593.488 212.166 593.309 212.111C593.129 212.057 592.967 211.986 592.822 211.9C592.682 211.811 592.561 211.713 592.459 211.607C592.357 211.498 592.281 211.393 592.23 211.291H592.207V214.473H591.129V205.725ZM592.184 208.895C592.184 209.234 592.217 209.549 592.283 209.838C592.35 210.123 592.451 210.371 592.588 210.582C592.729 210.793 592.902 210.959 593.109 211.08C593.32 211.197 593.568 211.256 593.854 211.256C594.15 211.256 594.406 211.197 594.621 211.08C594.84 210.959 595.02 210.793 595.16 210.582C595.301 210.371 595.404 210.123 595.471 209.838C595.537 209.549 595.57 209.234 595.57 208.895C595.57 208.539 595.537 208.213 595.471 207.916C595.404 207.619 595.301 207.363 595.16 207.148C595.02 206.934 594.84 206.768 594.621 206.65C594.406 206.529 594.15 206.469 593.854 206.469C593.568 206.469 593.32 206.529 593.109 206.65C592.902 206.768 592.729 206.934 592.588 207.148C592.451 207.363 592.35 207.619 592.283 207.916C592.217 208.213 592.184 208.539 592.184 208.895ZM597.867 205.725H598.945V210.535H598.969L602.051 205.725H603.287V212H602.203V207.189H602.18L599.104 212H597.867V205.725ZM604.875 205.725H607.547C608.312 205.725 608.885 205.867 609.264 206.152C609.646 206.438 609.838 206.852 609.838 207.395C609.838 207.684 609.768 207.928 609.627 208.127C609.486 208.326 609.301 208.502 609.07 208.654C609.402 208.779 609.666 208.959 609.861 209.193C610.057 209.428 610.154 209.73 610.154 210.102C610.154 210.395 610.105 210.658 610.008 210.893C609.91 211.127 609.762 211.326 609.562 211.49C609.363 211.654 609.109 211.781 608.801 211.871C608.496 211.957 608.135 212 607.717 212H604.875V205.725ZM605.953 211.139H607.594C607.879 211.139 608.115 211.117 608.303 211.074C608.494 211.027 608.646 210.961 608.76 210.875C608.873 210.789 608.953 210.686 609 210.564C609.047 210.443 609.07 210.307 609.07 210.154C609.07 210.002 609.047 209.865 609 209.744C608.953 209.619 608.873 209.516 608.76 209.434C608.646 209.348 608.494 209.283 608.303 209.24C608.115 209.193 607.879 209.17 607.594 209.17H605.953V211.139ZM605.953 208.379H607.582C607.945 208.379 608.232 208.307 608.443 208.162C608.654 208.018 608.76 207.793 608.76 207.488C608.76 207.316 608.73 207.174 608.672 207.061C608.613 206.943 608.535 206.85 608.438 206.779C608.34 206.709 608.229 206.66 608.104 206.633C607.982 206.602 607.857 206.586 607.729 206.586H605.953V208.379ZM615.832 208.854C615.832 208.506 615.793 208.188 615.715 207.898C615.637 207.605 615.52 207.354 615.363 207.143C615.207 206.932 615.014 206.768 614.783 206.65C614.557 206.529 614.293 206.469 613.992 206.469C613.691 206.469 613.428 206.529 613.201 206.65C612.975 206.768 612.783 206.932 612.627 207.143C612.471 207.354 612.354 207.605 612.275 207.898C612.197 208.188 612.158 208.506 612.158 208.854C612.158 209.205 612.197 209.529 612.275 209.826C612.354 210.119 612.471 210.371 612.627 210.582C612.783 210.793 612.975 210.959 613.201 211.08C613.428 211.197 613.691 211.256 613.992 211.256C614.293 211.256 614.557 211.197 614.783 211.08C615.014 210.959 615.207 210.793 615.363 210.582C615.52 210.371 615.637 210.119 615.715 209.826C615.793 209.529 615.832 209.205 615.832 208.854ZM616.91 208.854C616.91 209.369 616.844 209.834 616.711 210.248C616.578 210.658 616.387 211.008 616.137 211.297C615.887 211.586 615.58 211.809 615.217 211.965C614.857 212.117 614.449 212.193 613.992 212.193C613.535 212.193 613.127 212.117 612.768 211.965C612.408 211.809 612.104 211.586 611.854 211.297C611.604 211.008 611.412 210.658 611.279 210.248C611.146 209.834 611.08 209.369 611.08 208.854C611.08 208.346 611.146 207.887 611.279 207.477C611.412 207.066 611.604 206.717 611.854 206.428C612.104 206.139 612.408 205.918 612.768 205.766C613.127 205.609 613.535 205.531 613.992 205.531C614.449 205.531 614.857 205.609 615.217 205.766C615.58 205.918 615.887 206.139 616.137 206.428C616.387 206.717 616.578 207.066 616.711 207.477C616.844 207.887 616.91 208.346 616.91 208.854ZM619.822 203.287C619.873 203.537 619.979 203.736 620.139 203.885C620.299 204.029 620.535 204.102 620.848 204.102C621.164 204.102 621.402 204.031 621.562 203.891C621.723 203.746 621.826 203.545 621.873 203.287H622.875C622.871 203.521 622.82 203.734 622.723 203.926C622.625 204.113 622.486 204.273 622.307 204.406C622.131 204.539 621.918 204.643 621.668 204.717C621.422 204.787 621.148 204.822 620.848 204.822C620.547 204.822 620.273 204.787 620.027 204.717C619.781 204.646 619.57 204.545 619.395 204.412C619.219 204.279 619.08 204.119 618.979 203.932C618.881 203.74 618.83 203.525 618.826 203.287H619.822ZM618.129 205.725H619.207V210.535H619.23L622.312 205.725H623.549V212H622.465V207.189H622.441L619.365 212H618.129V205.725ZM632.08 207.418C632.689 207.418 633.129 207.289 633.398 207.031C633.668 206.773 633.803 206.398 633.803 205.906C633.803 205.414 633.668 205.039 633.398 204.781C633.129 204.523 632.689 204.395 632.08 204.395H629.725V207.418H632.08ZM628.576 203.387H632.197C632.67 203.387 633.078 203.447 633.422 203.568C633.77 203.689 634.057 203.861 634.283 204.084C634.51 204.303 634.678 204.566 634.787 204.875C634.9 205.184 634.957 205.527 634.957 205.906C634.957 206.285 634.9 206.629 634.787 206.938C634.678 207.246 634.51 207.512 634.283 207.734C634.057 207.953 633.77 208.123 633.422 208.244C633.078 208.365 632.67 208.426 632.197 208.426H629.725V212H628.576V203.387ZM640.863 208.854C640.863 208.506 640.824 208.188 640.746 207.898C640.668 207.605 640.551 207.354 640.395 207.143C640.238 206.932 640.045 206.768 639.814 206.65C639.588 206.529 639.324 206.469 639.023 206.469C638.723 206.469 638.459 206.529 638.232 206.65C638.006 206.768 637.814 206.932 637.658 207.143C637.502 207.354 637.385 207.605 637.307 207.898C637.229 208.188 637.189 208.506 637.189 208.854C637.189 209.205 637.229 209.529 637.307 209.826C637.385 210.119 637.502 210.371 637.658 210.582C637.814 210.793 638.006 210.959 638.232 211.08C638.459 211.197 638.723 211.256 639.023 211.256C639.324 211.256 639.588 211.197 639.814 211.08C640.045 210.959 640.238 210.793 640.395 210.582C640.551 210.371 640.668 210.119 640.746 209.826C640.824 209.529 640.863 209.205 640.863 208.854ZM641.941 208.854C641.941 209.369 641.875 209.834 641.742 210.248C641.609 210.658 641.418 211.008 641.168 211.297C640.918 211.586 640.611 211.809 640.248 211.965C639.889 212.117 639.48 212.193 639.023 212.193C638.566 212.193 638.158 212.117 637.799 211.965C637.439 211.809 637.135 211.586 636.885 211.297C636.635 211.008 636.443 210.658 636.311 210.248C636.178 209.834 636.111 209.369 636.111 208.854C636.111 208.346 636.178 207.887 636.311 207.477C636.443 207.066 636.635 206.717 636.885 206.428C637.135 206.139 637.439 205.918 637.799 205.766C638.158 205.609 638.566 205.531 639.023 205.531C639.48 205.531 639.889 205.609 640.248 205.766C640.611 205.918 640.918 206.139 641.168 206.428C641.418 206.717 641.609 207.066 641.742 207.477C641.875 207.887 641.941 208.346 641.941 208.854ZM643.16 205.725H647.057V206.662H644.238V212H643.16V205.725ZM648.205 213.225C648.475 213.178 648.664 212.988 648.773 212.656C648.832 212.48 648.861 212.311 648.861 212.146C648.861 212.119 648.859 212.094 648.855 212.07C648.855 212.051 648.852 212.027 648.844 212H648.205V210.723H649.459V211.906C649.459 212.371 649.365 212.779 649.178 213.131C648.99 213.482 648.666 213.699 648.205 213.781V213.225ZM654.264 212C654.303 211.277 654.451 210.648 654.709 210.113C654.971 209.578 655.479 209.092 656.232 208.654L657.357 208.004C657.861 207.711 658.215 207.461 658.418 207.254C658.738 206.93 658.898 206.559 658.898 206.141C658.898 205.652 658.752 205.266 658.459 204.98C658.166 204.691 657.775 204.547 657.287 204.547C656.564 204.547 656.064 204.82 655.787 205.367C655.639 205.66 655.557 206.066 655.541 206.586H654.469C654.48 205.855 654.615 205.26 654.873 204.799C655.33 203.986 656.137 203.58 657.293 203.58C658.254 203.58 658.955 203.84 659.396 204.359C659.842 204.879 660.064 205.457 660.064 206.094C660.064 206.766 659.828 207.34 659.355 207.816C659.082 208.094 658.592 208.43 657.885 208.824L657.082 209.27C656.699 209.48 656.398 209.682 656.18 209.873C655.789 210.213 655.543 210.59 655.441 211.004H660.023V212H654.264ZM663.814 203.609C664.9 203.609 665.686 204.057 666.17 204.951C666.545 205.643 666.732 206.59 666.732 207.793C666.732 208.934 666.562 209.877 666.223 210.623C665.73 211.693 664.926 212.229 663.809 212.229C662.801 212.229 662.051 211.791 661.559 210.916C661.148 210.186 660.943 209.205 660.943 207.975C660.943 207.021 661.066 206.203 661.312 205.52C661.773 204.246 662.607 203.609 663.814 203.609ZM663.803 211.268C664.35 211.268 664.785 211.025 665.109 210.541C665.434 210.057 665.596 209.154 665.596 207.834C665.596 206.881 665.479 206.098 665.244 205.484C665.01 204.867 664.555 204.559 663.879 204.559C663.258 204.559 662.803 204.852 662.514 205.438C662.229 206.02 662.086 206.879 662.086 208.016C662.086 208.871 662.178 209.559 662.361 210.078C662.643 210.871 663.123 211.268 663.803 211.268ZM668.396 206.059V205.25C669.158 205.176 669.689 205.053 669.99 204.881C670.291 204.705 670.516 204.293 670.664 203.645H671.496V212H670.371V206.059H668.396ZM677.191 207.125C677.656 207.125 678.02 206.996 678.281 206.738C678.543 206.477 678.674 206.166 678.674 205.807C678.674 205.494 678.549 205.207 678.299 204.945C678.049 204.684 677.668 204.553 677.156 204.553C676.648 204.553 676.281 204.684 676.055 204.945C675.828 205.207 675.715 205.514 675.715 205.865C675.715 206.26 675.861 206.568 676.154 206.791C676.447 207.014 676.793 207.125 677.191 207.125ZM677.256 211.279C677.744 211.279 678.148 211.148 678.469 210.887C678.793 210.621 678.955 210.227 678.955 209.703C678.955 209.16 678.789 208.748 678.457 208.467C678.125 208.186 677.699 208.045 677.18 208.045C676.676 208.045 676.264 208.189 675.943 208.479C675.627 208.764 675.469 209.16 675.469 209.668C675.469 210.105 675.613 210.484 675.902 210.805C676.195 211.121 676.646 211.279 677.256 211.279ZM675.756 207.529C675.463 207.404 675.234 207.258 675.07 207.09C674.762 206.777 674.607 206.371 674.607 205.871C674.607 205.246 674.834 204.709 675.287 204.26C675.74 203.811 676.383 203.586 677.215 203.586C678.02 203.586 678.65 203.799 679.107 204.225C679.564 204.646 679.793 205.141 679.793 205.707C679.793 206.23 679.66 206.654 679.395 206.979C679.246 207.162 679.016 207.342 678.703 207.518C679.051 207.678 679.324 207.861 679.523 208.068C679.895 208.459 680.08 208.967 680.08 209.592C680.08 210.33 679.832 210.957 679.336 211.473C678.84 211.984 678.139 212.24 677.232 212.24C676.416 212.24 675.725 212.02 675.158 211.578C674.596 211.133 674.314 210.488 674.314 209.645C674.314 209.148 674.436 208.721 674.678 208.361C674.92 207.998 675.279 207.721 675.756 207.529Z" fill="#A3A3A3"/>
<path d="M731.172 206.996H732.725C732.971 206.996 733.184 206.959 733.363 206.885C733.543 206.807 733.691 206.705 733.809 206.58C733.926 206.451 734.012 206.309 734.066 206.152C734.125 205.992 734.154 205.83 734.154 205.666C734.154 205.396 734.102 205.168 733.996 204.98C733.891 204.793 733.746 204.641 733.562 204.523C733.379 204.402 733.16 204.314 732.906 204.26C732.656 204.205 732.383 204.178 732.086 204.178C731.715 204.178 731.387 204.23 731.102 204.336C730.82 204.438 730.584 204.576 730.393 204.752C730.205 204.924 730.064 205.125 729.971 205.355C729.881 205.586 729.84 205.828 729.848 206.082H728.764C728.764 205.715 728.807 205.387 728.893 205.098C728.982 204.809 729.105 204.557 729.262 204.342C729.418 204.127 729.602 203.945 729.812 203.797C730.023 203.648 730.252 203.527 730.498 203.434C730.748 203.34 731.01 203.273 731.283 203.234C731.561 203.191 731.84 203.17 732.121 203.17C732.582 203.17 733.002 203.221 733.381 203.322C733.764 203.42 734.092 203.568 734.365 203.768C734.639 203.963 734.852 204.209 735.004 204.506C735.156 204.799 735.232 205.141 735.232 205.531C735.232 205.977 735.145 206.354 734.969 206.662C734.797 206.967 734.498 207.197 734.072 207.354V207.383C734.295 207.445 734.498 207.537 734.682 207.658C734.869 207.775 735.029 207.924 735.162 208.104C735.299 208.279 735.404 208.488 735.479 208.73C735.557 208.973 735.596 209.25 735.596 209.562C735.596 210 735.5 210.385 735.309 210.717C735.117 211.049 734.861 211.326 734.541 211.549C734.221 211.771 733.848 211.938 733.422 212.047C733 212.16 732.559 212.217 732.098 212.217C731.605 212.217 731.146 212.17 730.721 212.076C730.295 211.986 729.92 211.836 729.596 211.625C729.275 211.414 729.018 211.137 728.822 210.793C728.627 210.445 728.516 210.02 728.488 209.516H729.619C729.639 209.762 729.695 209.988 729.789 210.195C729.887 210.402 730.029 210.582 730.217 210.734C730.408 210.883 730.648 211 730.938 211.086C731.23 211.168 731.582 211.209 731.992 211.209C732.363 211.209 732.699 211.178 733 211.115C733.305 211.053 733.562 210.953 733.773 210.816C733.988 210.68 734.152 210.504 734.266 210.289C734.383 210.07 734.441 209.809 734.441 209.504C734.441 209.277 734.404 209.07 734.33 208.883C734.26 208.695 734.15 208.533 734.002 208.396C733.854 208.26 733.668 208.154 733.445 208.08C733.223 208.002 732.959 207.963 732.654 207.963H731.172V206.996ZM736.855 207.605C736.867 207.223 736.939 206.9 737.072 206.639C737.205 206.373 737.385 206.158 737.611 205.994C737.838 205.83 738.105 205.713 738.414 205.643C738.727 205.568 739.066 205.531 739.434 205.531C739.738 205.531 740.033 205.562 740.318 205.625C740.607 205.688 740.863 205.789 741.086 205.93C741.309 206.066 741.486 206.246 741.619 206.469C741.756 206.688 741.824 206.955 741.824 207.271V210.922C741.824 211.023 741.852 211.111 741.906 211.186C741.961 211.256 742.049 211.291 742.17 211.291C742.225 211.291 742.281 211.287 742.34 211.279C742.398 211.268 742.459 211.256 742.521 211.244V211.988C742.432 212.012 742.342 212.033 742.252 212.053C742.166 212.072 742.062 212.082 741.941 212.082C741.754 212.082 741.592 212.066 741.455 212.035C741.322 212.004 741.209 211.953 741.115 211.883C741.025 211.809 740.955 211.715 740.904 211.602C740.854 211.484 740.82 211.342 740.805 211.174C740.672 211.318 740.531 211.453 740.383 211.578C740.234 211.699 740.068 211.807 739.885 211.9C739.701 211.99 739.496 212.061 739.27 212.111C739.043 212.166 738.787 212.193 738.502 212.193C738.26 212.193 738.023 212.154 737.793 212.076C737.566 211.998 737.361 211.883 737.178 211.73C736.998 211.578 736.854 211.391 736.744 211.168C736.635 210.941 736.58 210.68 736.58 210.383C736.58 210.059 736.635 209.779 736.744 209.545C736.854 209.307 736.996 209.109 737.172 208.953C737.348 208.793 737.549 208.67 737.775 208.584C738.002 208.498 738.232 208.441 738.467 208.414L740.23 208.197C740.398 208.178 740.529 208.113 740.623 208.004C740.721 207.891 740.77 207.711 740.77 207.465C740.77 207.086 740.645 206.814 740.395 206.65C740.148 206.482 739.793 206.398 739.328 206.398C738.852 206.398 738.496 206.5 738.262 206.703C738.027 206.902 737.895 207.203 737.863 207.605H736.855ZM740.746 208.807C740.66 208.869 740.553 208.922 740.424 208.965C740.299 209.004 740.16 209.037 740.008 209.064C739.855 209.092 739.693 209.117 739.521 209.141C739.35 209.16 739.178 209.182 739.006 209.205C738.811 209.232 738.631 209.271 738.467 209.322C738.303 209.373 738.16 209.439 738.039 209.521C737.918 209.604 737.824 209.703 737.758 209.82C737.691 209.934 737.658 210.068 737.658 210.225C737.658 210.404 737.686 210.562 737.74 210.699C737.799 210.836 737.877 210.951 737.975 211.045C738.076 211.139 738.197 211.209 738.338 211.256C738.479 211.303 738.633 211.326 738.801 211.326C738.906 211.326 739.027 211.314 739.164 211.291C739.301 211.264 739.441 211.225 739.586 211.174C739.73 211.123 739.871 211.059 740.008 210.98C740.148 210.898 740.273 210.801 740.383 210.688C740.492 210.574 740.58 210.445 740.646 210.301C740.713 210.156 740.746 209.994 740.746 209.814V208.807ZM747.555 206.662H744.625V212H743.547V205.725H748.639V212H747.555V206.662ZM754.609 208.854C754.609 208.506 754.57 208.188 754.492 207.898C754.414 207.605 754.297 207.354 754.141 207.143C753.984 206.932 753.791 206.768 753.561 206.65C753.334 206.529 753.07 206.469 752.77 206.469C752.469 206.469 752.205 206.529 751.979 206.65C751.752 206.768 751.561 206.932 751.404 207.143C751.248 207.354 751.131 207.605 751.053 207.898C750.975 208.188 750.936 208.506 750.936 208.854C750.936 209.205 750.975 209.529 751.053 209.826C751.131 210.119 751.248 210.371 751.404 210.582C751.561 210.793 751.752 210.959 751.979 211.08C752.205 211.197 752.469 211.256 752.77 211.256C753.07 211.256 753.334 211.197 753.561 211.08C753.791 210.959 753.984 210.793 754.141 210.582C754.297 210.371 754.414 210.119 754.492 209.826C754.57 209.529 754.609 209.205 754.609 208.854ZM755.688 208.854C755.688 209.369 755.621 209.834 755.488 210.248C755.355 210.658 755.164 211.008 754.914 211.297C754.664 211.586 754.357 211.809 753.994 211.965C753.635 212.117 753.227 212.193 752.77 212.193C752.312 212.193 751.904 212.117 751.545 211.965C751.186 211.809 750.881 211.586 750.631 211.297C750.381 211.008 750.189 210.658 750.057 210.248C749.924 209.834 749.857 209.369 749.857 208.854C749.857 208.346 749.924 207.887 750.057 207.477C750.189 207.066 750.381 206.717 750.631 206.428C750.881 206.139 751.186 205.918 751.545 205.766C751.904 205.609 752.312 205.531 752.77 205.531C753.227 205.531 753.635 205.609 753.994 205.766C754.357 205.918 754.664 206.139 754.914 206.428C755.164 206.717 755.355 207.066 755.488 207.477C755.621 207.887 755.688 208.346 755.688 208.854ZM756.848 205.725H757.926V206.586H757.949C758.02 206.441 758.107 206.305 758.213 206.176C758.322 206.047 758.451 205.936 758.6 205.842C758.752 205.744 758.926 205.668 759.121 205.613C759.32 205.559 759.547 205.531 759.801 205.531C760.137 205.531 760.459 205.596 760.768 205.725C761.076 205.854 761.35 206.047 761.588 206.305C761.826 206.562 762.016 206.887 762.156 207.277C762.297 207.664 762.367 208.115 762.367 208.631C762.367 209.275 762.301 209.824 762.168 210.277C762.039 210.727 761.854 211.094 761.611 211.379C761.373 211.664 761.084 211.871 760.744 212C760.404 212.129 760.025 212.193 759.607 212.193C759.4 212.193 759.207 212.166 759.027 212.111C758.848 212.057 758.686 211.986 758.541 211.9C758.4 211.811 758.279 211.713 758.178 211.607C758.076 211.498 758 211.393 757.949 211.291H757.926V214.473H756.848V205.725ZM757.902 208.895C757.902 209.234 757.936 209.549 758.002 209.838C758.068 210.123 758.17 210.371 758.307 210.582C758.447 210.793 758.621 210.959 758.828 211.08C759.039 211.197 759.287 211.256 759.572 211.256C759.869 211.256 760.125 211.197 760.34 211.08C760.559 210.959 760.738 210.793 760.879 210.582C761.02 210.371 761.123 210.123 761.189 209.838C761.256 209.549 761.289 209.234 761.289 208.895C761.289 208.539 761.256 208.213 761.189 207.916C761.123 207.619 761.02 207.363 760.879 207.148C760.738 206.934 760.559 206.768 760.34 206.65C760.125 206.529 759.869 206.469 759.572 206.469C759.287 206.469 759.039 206.529 758.828 206.65C758.621 206.768 758.447 206.934 758.307 207.148C758.17 207.363 758.068 207.619 758.002 207.916C757.936 208.213 757.902 208.539 757.902 208.895ZM767.969 208.854C767.969 208.506 767.93 208.188 767.852 207.898C767.773 207.605 767.656 207.354 767.5 207.143C767.344 206.932 767.15 206.768 766.92 206.65C766.693 206.529 766.43 206.469 766.129 206.469C765.828 206.469 765.564 206.529 765.338 206.65C765.111 206.768 764.92 206.932 764.764 207.143C764.607 207.354 764.49 207.605 764.412 207.898C764.334 208.188 764.295 208.506 764.295 208.854C764.295 209.205 764.334 209.529 764.412 209.826C764.49 210.119 764.607 210.371 764.764 210.582C764.92 210.793 765.111 210.959 765.338 211.08C765.564 211.197 765.828 211.256 766.129 211.256C766.43 211.256 766.693 211.197 766.92 211.08C767.15 210.959 767.344 210.793 767.5 210.582C767.656 210.371 767.773 210.119 767.852 209.826C767.93 209.529 767.969 209.205 767.969 208.854ZM769.047 208.854C769.047 209.369 768.98 209.834 768.848 210.248C768.715 210.658 768.523 211.008 768.273 211.297C768.023 211.586 767.717 211.809 767.354 211.965C766.994 212.117 766.586 212.193 766.129 212.193C765.672 212.193 765.264 212.117 764.904 211.965C764.545 211.809 764.24 211.586 763.99 211.297C763.74 211.008 763.549 210.658 763.416 210.248C763.283 209.834 763.217 209.369 763.217 208.854C763.217 208.346 763.283 207.887 763.416 207.477C763.549 207.066 763.74 206.717 763.99 206.428C764.24 206.139 764.545 205.918 764.904 205.766C765.264 205.609 765.672 205.531 766.129 205.531C766.586 205.531 766.994 205.609 767.354 205.766C767.717 205.918 768.023 206.139 768.273 206.428C768.523 206.717 768.715 207.066 768.848 207.477C768.98 207.887 769.047 208.346 769.047 208.854ZM774.707 208.291H775.252L777.309 205.725H778.609L776.143 208.701L778.703 212H777.373L775.252 209.146H774.707V212H773.629V209.146H773.078L770.939 212H769.609L772.193 208.701L769.738 205.725H771.045L773.078 208.291H773.629V205.725H774.707V208.291ZM779.629 205.725H780.707V208.086H782.447C782.791 208.086 783.098 208.133 783.367 208.227C783.637 208.316 783.865 208.447 784.053 208.619C784.24 208.787 784.383 208.992 784.48 209.234C784.582 209.473 784.633 209.742 784.633 210.043C784.633 210.348 784.582 210.621 784.48 210.863C784.383 211.102 784.24 211.307 784.053 211.479C783.865 211.646 783.637 211.775 783.367 211.865C783.098 211.955 782.791 212 782.447 212H779.629V205.725ZM780.707 211.139H782.236C782.424 211.139 782.598 211.119 782.758 211.08C782.922 211.041 783.062 210.979 783.18 210.893C783.297 210.803 783.389 210.689 783.455 210.553C783.521 210.412 783.555 210.242 783.555 210.043C783.555 209.848 783.52 209.682 783.449 209.545C783.383 209.408 783.287 209.297 783.162 209.211C783.041 209.121 782.893 209.057 782.717 209.018C782.545 208.975 782.352 208.953 782.137 208.953H780.707V211.139ZM790.973 209.996C790.93 210.27 790.836 210.537 790.691 210.799C790.547 211.061 790.357 211.295 790.123 211.502C789.889 211.709 789.611 211.875 789.291 212C788.975 212.129 788.623 212.193 788.236 212.193C787.814 212.193 787.424 212.125 787.064 211.988C786.709 211.848 786.4 211.639 786.139 211.361C785.881 211.08 785.678 210.729 785.529 210.307C785.381 209.885 785.307 209.389 785.307 208.818C785.307 208.436 785.348 208.09 785.43 207.781C785.516 207.469 785.629 207.191 785.77 206.949C785.914 206.703 786.08 206.492 786.268 206.316C786.455 206.137 786.652 205.99 786.859 205.877C787.07 205.76 787.285 205.674 787.504 205.619C787.723 205.561 787.934 205.531 788.137 205.531C788.566 205.531 788.959 205.596 789.314 205.725C789.67 205.854 789.975 206.051 790.229 206.316C790.486 206.578 790.686 206.908 790.826 207.307C790.971 207.701 791.043 208.166 791.043 208.701V209.24H786.455C786.459 209.545 786.502 209.822 786.584 210.072C786.666 210.318 786.783 210.529 786.936 210.705C787.088 210.881 787.271 211.018 787.486 211.115C787.705 211.209 787.951 211.256 788.225 211.256C788.502 211.256 788.736 211.217 788.928 211.139C789.119 211.061 789.279 210.961 789.408 210.84C789.537 210.719 789.641 210.584 789.719 210.436C789.801 210.287 789.869 210.141 789.924 209.996H790.973ZM789.959 208.379C789.951 208.074 789.904 207.803 789.818 207.564C789.736 207.326 789.619 207.127 789.467 206.967C789.318 206.803 789.139 206.68 788.928 206.598C788.717 206.512 788.482 206.469 788.225 206.469C787.979 206.469 787.752 206.518 787.545 206.615C787.338 206.709 787.156 206.842 787 207.014C786.844 207.182 786.719 207.383 786.625 207.617C786.531 207.848 786.475 208.102 786.455 208.379H789.959ZM792.514 213.225C792.783 213.178 792.973 212.988 793.082 212.656C793.141 212.48 793.17 212.311 793.17 212.146C793.17 212.119 793.168 212.094 793.164 212.07C793.164 212.051 793.16 212.027 793.152 212H792.514V210.723H793.768V211.906C793.768 212.371 793.674 212.779 793.486 213.131C793.299 213.482 792.975 213.699 792.514 213.781V213.225ZM798.572 212C798.611 211.277 798.76 210.648 799.018 210.113C799.279 209.578 799.787 209.092 800.541 208.654L801.666 208.004C802.17 207.711 802.523 207.461 802.727 207.254C803.047 206.93 803.207 206.559 803.207 206.141C803.207 205.652 803.061 205.266 802.768 204.98C802.475 204.691 802.084 204.547 801.596 204.547C800.873 204.547 800.373 204.82 800.096 205.367C799.947 205.66 799.865 206.066 799.85 206.586H798.777C798.789 205.855 798.924 205.26 799.182 204.799C799.639 203.986 800.445 203.58 801.602 203.58C802.562 203.58 803.264 203.84 803.705 204.359C804.15 204.879 804.373 205.457 804.373 206.094C804.373 206.766 804.137 207.34 803.664 207.816C803.391 208.094 802.9 208.43 802.193 208.824L801.391 209.27C801.008 209.48 800.707 209.682 800.488 209.873C800.098 210.213 799.852 210.59 799.75 211.004H804.332V212H798.572ZM808.123 203.609C809.209 203.609 809.994 204.057 810.479 204.951C810.854 205.643 811.041 206.59 811.041 207.793C811.041 208.934 810.871 209.877 810.531 210.623C810.039 211.693 809.234 212.229 808.117 212.229C807.109 212.229 806.359 211.791 805.867 210.916C805.457 210.186 805.252 209.205 805.252 207.975C805.252 207.021 805.375 206.203 805.621 205.52C806.082 204.246 806.916 203.609 808.123 203.609ZM808.111 211.268C808.658 211.268 809.094 211.025 809.418 210.541C809.742 210.057 809.904 209.154 809.904 207.834C809.904 206.881 809.787 206.098 809.553 205.484C809.318 204.867 808.863 204.559 808.188 204.559C807.566 204.559 807.111 204.852 806.822 205.438C806.537 206.02 806.395 206.879 806.395 208.016C806.395 208.871 806.486 209.559 806.67 210.078C806.951 210.871 807.432 211.268 808.111 211.268ZM812.705 206.059V205.25C813.467 205.176 813.998 205.053 814.299 204.881C814.6 204.705 814.824 204.293 814.973 203.645H815.805V212H814.68V206.059H812.705ZM819.83 209.973C819.861 210.555 820.086 210.957 820.504 211.18C820.719 211.297 820.961 211.355 821.23 211.355C821.734 211.355 822.164 211.146 822.52 210.729C822.875 210.307 823.127 209.453 823.275 208.168C823.041 208.539 822.75 208.801 822.402 208.953C822.059 209.102 821.688 209.176 821.289 209.176C820.48 209.176 819.84 208.924 819.367 208.42C818.898 207.916 818.664 207.268 818.664 206.475C818.664 205.713 818.896 205.043 819.361 204.465C819.826 203.887 820.512 203.598 821.418 203.598C822.641 203.598 823.484 204.148 823.949 205.25C824.207 205.855 824.336 206.613 824.336 207.523C824.336 208.551 824.182 209.461 823.873 210.254C823.361 211.574 822.494 212.234 821.271 212.234C820.451 212.234 819.828 212.02 819.402 211.59C818.977 211.16 818.764 210.621 818.764 209.973H819.83ZM821.43 208.25C821.848 208.25 822.229 208.113 822.572 207.84C822.92 207.562 823.094 207.08 823.094 206.393C823.094 205.775 822.938 205.316 822.625 205.016C822.316 204.711 821.922 204.559 821.441 204.559C820.926 204.559 820.516 204.732 820.211 205.08C819.91 205.424 819.76 205.885 819.76 206.463C819.76 207.01 819.893 207.445 820.158 207.77C820.424 208.09 820.848 208.25 821.43 208.25Z" fill="#A3A3A3"/>
<path d="M883.451 213.846V210.992H884.23C884.312 210.805 884.389 210.615 884.459 210.424C884.529 210.229 884.594 210.01 884.652 209.768C884.715 209.521 884.771 209.24 884.822 208.924C884.877 208.607 884.928 208.232 884.975 207.799C885.029 207.342 885.072 206.893 885.104 206.451C885.135 206.006 885.158 205.59 885.174 205.203C885.193 204.816 885.205 204.467 885.209 204.154C885.217 203.842 885.223 203.586 885.227 203.387H890.641V210.992H891.613V213.846H890.535V212H884.529V213.846H883.451ZM886.305 204.395C886.305 204.953 886.281 205.51 886.234 206.064C886.191 206.619 886.139 207.178 886.076 207.74C886.033 208.186 885.988 208.564 885.941 208.877C885.898 209.186 885.852 209.461 885.801 209.703C885.754 209.941 885.699 210.162 885.637 210.365C885.578 210.564 885.51 210.773 885.432 210.992H889.457V204.395H886.305ZM892.439 205.725H893.518V208.256H896.447V205.725H897.531V212H896.447V209.193H893.518V212H892.439V205.725ZM904.463 209.996C904.42 210.27 904.326 210.537 904.182 210.799C904.037 211.061 903.848 211.295 903.613 211.502C903.379 211.709 903.102 211.875 902.781 212C902.465 212.129 902.113 212.193 901.727 212.193C901.305 212.193 900.914 212.125 900.555 211.988C900.199 211.848 899.891 211.639 899.629 211.361C899.371 211.08 899.168 210.729 899.02 210.307C898.871 209.885 898.797 209.389 898.797 208.818C898.797 208.436 898.838 208.09 898.92 207.781C899.006 207.469 899.119 207.191 899.26 206.949C899.404 206.703 899.57 206.492 899.758 206.316C899.945 206.137 900.143 205.99 900.35 205.877C900.561 205.76 900.775 205.674 900.994 205.619C901.213 205.561 901.424 205.531 901.627 205.531C902.057 205.531 902.449 205.596 902.805 205.725C903.16 205.854 903.465 206.051 903.719 206.316C903.977 206.578 904.176 206.908 904.316 207.307C904.461 207.701 904.533 208.166 904.533 208.701V209.24H899.945C899.949 209.545 899.992 209.822 900.074 210.072C900.156 210.318 900.273 210.529 900.426 210.705C900.578 210.881 900.762 211.018 900.977 211.115C901.195 211.209 901.441 211.256 901.715 211.256C901.992 211.256 902.227 211.217 902.418 211.139C902.609 211.061 902.77 210.961 902.898 210.84C903.027 210.719 903.131 210.584 903.209 210.436C903.291 210.287 903.359 210.141 903.414 209.996H904.463ZM903.449 208.379C903.441 208.074 903.395 207.803 903.309 207.564C903.227 207.326 903.109 207.127 902.957 206.967C902.809 206.803 902.629 206.68 902.418 206.598C902.207 206.512 901.973 206.469 901.715 206.469C901.469 206.469 901.242 206.518 901.035 206.615C900.828 206.709 900.646 206.842 900.49 207.014C900.334 207.182 900.209 207.383 900.115 207.617C900.021 207.848 899.965 208.102 899.945 208.379H903.449ZM909.807 206.662H906.877V212H905.799V205.725H910.891V212H909.807V206.662ZM912.42 205.725H913.498V206.586H913.521C913.592 206.441 913.68 206.305 913.785 206.176C913.895 206.047 914.023 205.936 914.172 205.842C914.324 205.744 914.498 205.668 914.693 205.613C914.893 205.559 915.119 205.531 915.373 205.531C915.709 205.531 916.031 205.596 916.34 205.725C916.648 205.854 916.922 206.047 917.16 206.305C917.398 206.562 917.588 206.887 917.729 207.277C917.869 207.664 917.939 208.115 917.939 208.631C917.939 209.275 917.873 209.824 917.74 210.277C917.611 210.727 917.426 211.094 917.184 211.379C916.945 211.664 916.656 211.871 916.316 212C915.977 212.129 915.598 212.193 915.18 212.193C914.973 212.193 914.779 212.166 914.6 212.111C914.42 212.057 914.258 211.986 914.113 211.9C913.973 211.811 913.852 211.713 913.75 211.607C913.648 211.498 913.572 211.393 913.521 211.291H913.498V214.473H912.42V205.725ZM913.475 208.895C913.475 209.234 913.508 209.549 913.574 209.838C913.641 210.123 913.742 210.371 913.879 210.582C914.02 210.793 914.193 210.959 914.4 211.08C914.611 211.197 914.859 211.256 915.145 211.256C915.441 211.256 915.697 211.197 915.912 211.08C916.131 210.959 916.311 210.793 916.451 210.582C916.592 210.371 916.695 210.123 916.762 209.838C916.828 209.549 916.861 209.234 916.861 208.895C916.861 208.539 916.828 208.213 916.762 207.916C916.695 207.619 916.592 207.363 916.451 207.148C916.311 206.934 916.131 206.768 915.912 206.65C915.697 206.529 915.441 206.469 915.145 206.469C914.859 206.469 914.611 206.529 914.4 206.65C914.193 206.768 914.02 206.934 913.879 207.148C913.742 207.363 913.641 207.619 913.574 207.916C913.508 208.213 913.475 208.539 913.475 208.895ZM919.363 213.225C919.633 213.178 919.822 212.988 919.932 212.656C919.99 212.48 920.02 212.311 920.02 212.146C920.02 212.119 920.018 212.094 920.014 212.07C920.014 212.051 920.01 212.027 920.002 212H919.363V210.723H920.617V211.906C920.617 212.371 920.523 212.779 920.336 213.131C920.148 213.482 919.824 213.699 919.363 213.781V213.225ZM925.422 212C925.461 211.277 925.609 210.648 925.867 210.113C926.129 209.578 926.637 209.092 927.391 208.654L928.516 208.004C929.02 207.711 929.373 207.461 929.576 207.254C929.896 206.93 930.057 206.559 930.057 206.141C930.057 205.652 929.91 205.266 929.617 204.98C929.324 204.691 928.934 204.547 928.445 204.547C927.723 204.547 927.223 204.82 926.945 205.367C926.797 205.66 926.715 206.066 926.699 206.586H925.627C925.639 205.855 925.773 205.26 926.031 204.799C926.488 203.986 927.295 203.58 928.451 203.58C929.412 203.58 930.113 203.84 930.555 204.359C931 204.879 931.223 205.457 931.223 206.094C931.223 206.766 930.986 207.34 930.514 207.816C930.24 208.094 929.75 208.43 929.043 208.824L928.24 209.27C927.857 209.48 927.557 209.682 927.338 209.873C926.947 210.213 926.701 210.59 926.6 211.004H931.182V212H925.422ZM934.973 203.609C936.059 203.609 936.844 204.057 937.328 204.951C937.703 205.643 937.891 206.59 937.891 207.793C937.891 208.934 937.721 209.877 937.381 210.623C936.889 211.693 936.084 212.229 934.967 212.229C933.959 212.229 933.209 211.791 932.717 210.916C932.307 210.186 932.102 209.205 932.102 207.975C932.102 207.021 932.225 206.203 932.471 205.52C932.932 204.246 933.766 203.609 934.973 203.609ZM934.961 211.268C935.508 211.268 935.943 211.025 936.268 210.541C936.592 210.057 936.754 209.154 936.754 207.834C936.754 206.881 936.637 206.098 936.402 205.484C936.168 204.867 935.713 204.559 935.037 204.559C934.416 204.559 933.961 204.852 933.672 205.438C933.387 206.02 933.244 206.879 933.244 208.016C933.244 208.871 933.336 209.559 933.52 210.078C933.801 210.871 934.281 211.268 934.961 211.268ZM938.781 212C938.82 211.277 938.969 210.648 939.227 210.113C939.488 209.578 939.996 209.092 940.75 208.654L941.875 208.004C942.379 207.711 942.732 207.461 942.936 207.254C943.256 206.93 943.416 206.559 943.416 206.141C943.416 205.652 943.27 205.266 942.977 204.98C942.684 204.691 942.293 204.547 941.805 204.547C941.082 204.547 940.582 204.82 940.305 205.367C940.156 205.66 940.074 206.066 940.059 206.586H938.986C938.998 205.855 939.133 205.26 939.391 204.799C939.848 203.986 940.654 203.58 941.811 203.58C942.771 203.58 943.473 203.84 943.914 204.359C944.359 204.879 944.582 205.457 944.582 206.094C944.582 206.766 944.346 207.34 943.873 207.816C943.6 208.094 943.109 208.43 942.402 208.824L941.6 209.27C941.217 209.48 940.916 209.682 940.697 209.873C940.307 210.213 940.061 210.59 939.959 211.004H944.541V212H938.781ZM946.234 206.059V205.25C946.996 205.176 947.527 205.053 947.828 204.881C948.129 204.705 948.354 204.293 948.502 203.645H949.334V212H948.209V206.059H946.234Z" fill="#A3A3A3"/>
<path d="M9.13867 182.008C10.0436 182.008 10.6979 182.381 11.1016 183.126C11.4141 183.702 11.5703 184.492 11.5703 185.494C11.5703 186.445 11.4287 187.231 11.1455 187.853C10.7354 188.744 10.0648 189.19 9.13379 189.19C8.29395 189.19 7.66895 188.826 7.25879 188.097C6.91699 187.488 6.74609 186.671 6.74609 185.646C6.74609 184.851 6.84863 184.169 7.05371 183.6C7.43783 182.538 8.13281 182.008 9.13867 182.008ZM9.12891 188.39C9.58464 188.39 9.94759 188.188 10.2178 187.784C10.488 187.381 10.623 186.629 10.623 185.528C10.623 184.734 10.5254 184.081 10.3301 183.57C10.1348 183.056 9.75553 182.799 9.19238 182.799C8.6748 182.799 8.29557 183.043 8.05469 183.531C7.81706 184.016 7.69824 184.732 7.69824 185.68C7.69824 186.393 7.77474 186.965 7.92773 187.398C8.16211 188.059 8.5625 188.39 9.12891 188.39Z" fill="#A3A3A3"/>
<path d="M1.82422 141.049V140.375C2.45898 140.313 2.90169 140.211 3.15234 140.067C3.40299 139.921 3.59017 139.577 3.71387 139.037H4.40723V146H3.46973V141.049H1.82422ZM9.13867 139.008C10.0436 139.008 10.6979 139.381 11.1016 140.126C11.4141 140.702 11.5703 141.492 11.5703 142.494C11.5703 143.445 11.4287 144.231 11.1455 144.853C10.7354 145.744 10.0648 146.19 9.13379 146.19C8.29395 146.19 7.66895 145.826 7.25879 145.097C6.91699 144.488 6.74609 143.671 6.74609 142.646C6.74609 141.851 6.84863 141.169 7.05371 140.6C7.43783 139.538 8.13281 139.008 9.13867 139.008ZM9.12891 145.39C9.58464 145.39 9.94759 145.188 10.2178 144.784C10.488 144.381 10.623 143.629 10.623 142.528C10.623 141.734 10.5254 141.081 10.3301 140.57C10.1348 140.056 9.75553 139.799 9.19238 139.799C8.6748 139.799 8.29557 140.043 8.05469 140.531C7.81706 141.016 7.69824 141.732 7.69824 142.68C7.69824 143.393 7.77474 143.965 7.92773 144.398C8.16211 145.059 8.5625 145.39 9.12891 145.39Z" fill="#A3A3A3"/>
<path d="M1.17969 98C1.21224 97.3978 1.33594 96.8737 1.55078 96.4277C1.76888 95.9818 2.19206 95.5765 2.82031 95.2119L3.75781 94.6699C4.17773 94.4258 4.47233 94.2174 4.6416 94.0449C4.90853 93.7747 5.04199 93.4655 5.04199 93.1172C5.04199 92.7103 4.91992 92.388 4.67578 92.1504C4.43164 91.9095 4.10612 91.7891 3.69922 91.7891C3.09701 91.7891 2.68034 92.0169 2.44922 92.4727C2.32552 92.7168 2.25716 93.0553 2.24414 93.4883H1.35059C1.36035 92.8796 1.47266 92.3831 1.6875 91.999C2.06836 91.3219 2.74056 90.9834 3.7041 90.9834C4.50488 90.9834 5.08919 91.1999 5.45703 91.6328C5.82812 92.0658 6.01367 92.5475 6.01367 93.0781C6.01367 93.638 5.81673 94.1165 5.42285 94.5137C5.19499 94.7448 4.78646 95.0247 4.19727 95.3535L3.52832 95.7246C3.20931 95.9004 2.95866 96.068 2.77637 96.2275C2.45085 96.5107 2.24577 96.8249 2.16113 97.1699H5.97949V98H1.17969ZM9.13867 91.0078C10.0436 91.0078 10.6979 91.3805 11.1016 92.126C11.4141 92.7021 11.5703 93.4915 11.5703 94.4941C11.5703 95.4447 11.4287 96.2308 11.1455 96.8525C10.7354 97.7445 10.0648 98.1904 9.13379 98.1904C8.29395 98.1904 7.66895 97.8258 7.25879 97.0967C6.91699 96.488 6.74609 95.6709 6.74609 94.6455C6.74609 93.8512 6.84863 93.1693 7.05371 92.5996C7.43783 91.5384 8.13281 91.0078 9.13867 91.0078ZM9.12891 97.3896C9.58464 97.3896 9.94759 97.1878 10.2178 96.7842C10.488 96.3805 10.623 95.6286 10.623 94.5283C10.623 93.734 10.5254 93.0814 10.3301 92.5703C10.1348 92.056 9.75553 91.7988 9.19238 91.7988C8.6748 91.7988 8.29557 92.043 8.05469 92.5312C7.81706 93.0163 7.69824 93.7324 7.69824 94.6797C7.69824 95.3926 7.77474 95.9655 7.92773 96.3984C8.16211 97.0592 8.5625 97.3896 9.12891 97.3896Z" fill="#A3A3A3"/>
<path d="M3.46484 51.1904C2.63802 51.1904 2.03743 50.9642 1.66309 50.5117C1.29199 50.056 1.10645 49.5026 1.10645 48.8516H2.02441C2.06348 49.304 2.14811 49.6328 2.27832 49.8379C2.50618 50.2057 2.91797 50.3896 3.51367 50.3896C3.97591 50.3896 4.34701 50.266 4.62695 50.0186C4.9069 49.7712 5.04688 49.4521 5.04688 49.0615C5.04688 48.5798 4.89876 48.2428 4.60254 48.0508C4.30957 47.8587 3.90104 47.7627 3.37695 47.7627C3.31836 47.7627 3.25814 47.7643 3.19629 47.7676C3.1377 47.7676 3.07747 47.7692 3.01562 47.7725V46.9961C3.10677 47.0059 3.18327 47.0124 3.24512 47.0156C3.30697 47.0189 3.3737 47.0205 3.44531 47.0205C3.77409 47.0205 4.04427 46.9684 4.25586 46.8643C4.62695 46.682 4.8125 46.3564 4.8125 45.8877C4.8125 45.5394 4.6888 45.2708 4.44141 45.082C4.19401 44.8932 3.90592 44.7988 3.57715 44.7988C2.99121 44.7988 2.58594 44.9941 2.36133 45.3848C2.23763 45.5996 2.16764 45.9056 2.15137 46.3027H1.28223C1.28223 45.7819 1.38639 45.3392 1.59473 44.9746C1.9528 44.3236 2.58268 43.998 3.48438 43.998C4.19727 43.998 4.74902 44.1576 5.13965 44.4766C5.53027 44.7923 5.72559 45.2513 5.72559 45.8535C5.72559 46.2832 5.61003 46.6315 5.37891 46.8984C5.23568 47.0645 5.05013 47.1947 4.82227 47.2891C5.1901 47.39 5.47656 47.5853 5.68164 47.875C5.88997 48.1615 5.99414 48.513 5.99414 48.9297C5.99414 49.597 5.77441 50.1406 5.33496 50.5605C4.89551 50.9805 4.27214 51.1904 3.46484 51.1904ZM9.13867 44.0078C10.0436 44.0078 10.6979 44.3805 11.1016 45.126C11.4141 45.7021 11.5703 46.4915 11.5703 47.4941C11.5703 48.4447 11.4287 49.2308 11.1455 49.8525C10.7354 50.7445 10.0648 51.1904 9.13379 51.1904C8.29395 51.1904 7.66895 50.8258 7.25879 50.0967C6.91699 49.488 6.74609 48.6709 6.74609 47.6455C6.74609 46.8512 6.84863 46.1693 7.05371 45.5996C7.43783 44.5384 8.13281 44.0078 9.13867 44.0078ZM9.12891 50.3896C9.58464 50.3896 9.94759 50.1878 10.2178 49.7842C10.488 49.3805 10.623 48.6286 10.623 47.5283C10.623 46.734 10.5254 46.0814 10.3301 45.5703C10.1348 45.056 9.75553 44.7988 9.19238 44.7988C8.6748 44.7988 8.29557 45.043 8.05469 45.5312C7.81706 46.0163 7.69824 46.7324 7.69824 47.6797C7.69824 48.3926 7.77474 48.9655 7.92773 49.3984C8.16211 50.0592 8.5625 50.3896 9.12891 50.3896Z" fill="#A3A3A3"/>
<path d="M4.17285 7.52441V4.35547L1.93164 7.52441H4.17285ZM4.1875 10V8.29102H1.12109V7.43164L4.32422 2.98828H5.06641V7.52441H6.09668V8.29102H5.06641V10H4.1875ZM9.13867 3.00781C10.0436 3.00781 10.6979 3.38053 11.1016 4.12598C11.4141 4.70215 11.5703 5.49154 11.5703 6.49414C11.5703 7.44466 11.4287 8.23079 11.1455 8.85254C10.7354 9.74447 10.0648 10.1904 9.13379 10.1904C8.29395 10.1904 7.66895 9.82585 7.25879 9.09668C6.91699 8.48796 6.74609 7.6709 6.74609 6.64551C6.74609 5.85124 6.84863 5.16927 7.05371 4.59961C7.43783 3.53841 8.13281 3.00781 9.13867 3.00781ZM9.12891 9.38965C9.58464 9.38965 9.94759 9.18783 10.2178 8.78418C10.488 8.38053 10.623 7.62858 10.623 6.52832C10.623 5.73405 10.5254 5.08138 10.3301 4.57031C10.1348 4.05599 9.75553 3.79883 9.19238 3.79883C8.6748 3.79883 8.29557 4.04297 8.05469 4.53125C7.81706 5.01628 7.69824 5.73242 7.69824 6.67969C7.69824 7.39258 7.77474 7.96549 7.92773 8.39844C8.16211 9.05924 8.5625 9.38965 9.12891 9.38965Z" fill="#A3A3A3"/>
</svg>
