<svg width="311" height="242" viewBox="0 0 311 242" fill="none" xmlns="http://www.w3.org/2000/svg">
<path d="M23 207H307" stroke="#EAEAEA"/>
<path d="M23 157H307" stroke="#EAEAEA"/>
<path d="M23 107H307" stroke="#EAEAEA"/>
<path d="M23 57H307" stroke="#EAEAEA"/>
<path d="M23 7H307" stroke="#EAEAEA"/>
<path d="M27.467 224.084C26.963 224.084 26.499 223.996 26.075 223.82C25.651 223.644 25.283 223.388 24.971 223.052C24.659 222.716 24.415 222.308 24.239 221.828C24.071 221.348 23.987 220.8 23.987 220.184V219.416C23.987 218.808 24.075 218.264 24.251 217.784C24.427 217.304 24.667 216.896 24.971 216.56C25.283 216.224 25.651 215.968 26.075 215.792C26.499 215.608 26.963 215.516 27.467 215.516C27.971 215.516 28.435 215.604 28.859 215.78C29.283 215.956 29.651 216.212 29.963 216.548C30.275 216.884 30.515 217.296 30.683 217.784C30.859 218.264 30.947 218.808 30.947 219.416V220.184C30.947 220.792 30.859 221.336 30.683 221.816C30.507 222.296 30.263 222.704 29.951 223.04C29.647 223.376 29.283 223.636 28.859 223.82C28.435 223.996 27.971 224.084 27.467 224.084ZM27.467 223.292C27.843 223.292 28.191 223.224 28.511 223.088C28.831 222.952 29.107 222.752 29.339 222.488C29.571 222.224 29.751 221.9 29.879 221.516C30.015 221.124 30.083 220.68 30.083 220.184V219.416C30.083 218.928 30.015 218.492 29.879 218.108C29.743 217.716 29.559 217.388 29.327 217.124C29.095 216.86 28.819 216.66 28.499 216.524C28.179 216.38 27.835 216.308 27.467 216.308C27.091 216.308 26.743 216.376 26.423 216.512C26.103 216.648 25.827 216.848 25.595 217.112C25.363 217.376 25.179 217.704 25.043 218.096C24.915 218.48 24.851 218.92 24.851 219.416V220.184C24.851 220.68 24.919 221.12 25.055 221.504C25.191 221.888 25.375 222.212 25.607 222.476C25.839 222.74 26.115 222.944 26.435 223.088C26.755 223.224 27.099 223.292 27.467 223.292ZM36.9313 224H32.3353V225.56H31.5433V223.28H32.1793C32.3233 223.064 32.4393 222.856 32.5273 222.656C32.6153 222.456 32.6833 222.228 32.7313 221.972C32.7793 221.708 32.8113 221.404 32.8273 221.06C32.8513 220.716 32.8633 220.296 32.8633 219.8V218H36.8833V223.28H37.7233V225.56H36.9313V224ZM33.6553 219.8C33.6553 220.296 33.6433 220.724 33.6193 221.084C33.6033 221.436 33.5713 221.744 33.5233 222.008C33.4833 222.272 33.4273 222.504 33.3553 222.704C33.2833 222.896 33.1993 223.088 33.1033 223.28H36.0913V218.72H33.6553V219.8ZM41.2009 224.084C40.4089 224.084 39.7809 223.844 39.3169 223.364C38.8529 222.876 38.6209 222.176 38.6209 221.264V220.736C38.6209 219.832 38.8529 219.136 39.3169 218.648C39.7889 218.16 40.4169 217.916 41.2009 217.916C41.9849 217.916 42.6089 218.16 43.0729 218.648C43.5449 219.136 43.7809 219.832 43.7809 220.736V221.228H39.4369V221.264C39.4369 221.96 39.5969 222.48 39.9169 222.824C40.2369 223.168 40.6649 223.34 41.2009 223.34C41.6969 223.34 42.0729 223.236 42.3289 223.028C42.5929 222.82 42.7849 222.56 42.9049 222.248H43.7209C43.6569 222.504 43.5609 222.744 43.4329 222.968C43.3049 223.192 43.1369 223.388 42.9289 223.556C42.7209 223.716 42.4729 223.844 42.1849 223.94C41.8969 224.036 41.5689 224.084 41.2009 224.084ZM41.2009 218.66C40.6809 218.66 40.2649 218.824 39.9529 219.152C39.6489 219.472 39.4769 219.932 39.4369 220.532H42.9529C42.9209 219.908 42.7449 219.44 42.4249 219.128C42.1129 218.816 41.7049 218.66 41.2009 218.66ZM47.6814 224.084C47.2974 224.084 46.9454 224.02 46.6254 223.892C46.3134 223.764 46.0414 223.58 45.8094 223.34C45.5854 223.1 45.4094 222.808 45.2814 222.464C45.1614 222.112 45.1014 221.712 45.1014 221.264V220.736C45.1014 220.296 45.1614 219.904 45.2814 219.56C45.4094 219.208 45.5854 218.912 45.8094 218.672C46.0414 218.424 46.3134 218.236 46.6254 218.108C46.9454 217.98 47.2974 217.916 47.6814 217.916C48.0174 217.916 48.3134 217.96 48.5694 218.048C48.8334 218.136 49.0614 218.26 49.2534 218.42C49.4534 218.572 49.6134 218.752 49.7334 218.96C49.8614 219.168 49.9574 219.388 50.0214 219.62H49.1814C49.0614 219.348 48.8854 219.12 48.6534 218.936C48.4294 218.752 48.1054 218.66 47.6814 218.66C47.1694 218.66 46.7454 218.84 46.4094 219.2C46.0814 219.552 45.9174 220.064 45.9174 220.736V221.264C45.9174 221.592 45.9614 221.888 46.0494 222.152C46.1374 222.408 46.2614 222.624 46.4214 222.8C46.5814 222.976 46.7654 223.112 46.9734 223.208C47.1894 223.296 47.4254 223.34 47.6814 223.34C48.1134 223.34 48.4414 223.244 48.6654 223.052C48.8894 222.86 49.0614 222.596 49.1814 222.26H50.0214C49.9014 222.788 49.6494 223.224 49.2654 223.568C48.8814 223.912 48.3534 224.084 47.6814 224.084ZM53.74 224.084C53.356 224.084 53.004 224.02 52.684 223.892C52.372 223.764 52.1 223.58 51.868 223.34C51.644 223.1 51.468 222.808 51.34 222.464C51.22 222.112 51.16 221.712 51.16 221.264V220.736C51.16 220.296 51.22 219.904 51.34 219.56C51.468 219.208 51.644 218.912 51.868 218.672C52.1 218.424 52.372 218.236 52.684 218.108C53.004 217.98 53.356 217.916 53.74 217.916C54.076 217.916 54.372 217.96 54.628 218.048C54.892 218.136 55.12 218.26 55.312 218.42C55.512 218.572 55.672 218.752 55.792 218.96C55.92 219.168 56.016 219.388 56.08 219.62H55.24C55.12 219.348 54.944 219.12 54.712 218.936C54.488 218.752 54.164 218.66 53.74 218.66C53.228 218.66 52.804 218.84 52.468 219.2C52.14 219.552 51.976 220.064 51.976 220.736V221.264C51.976 221.592 52.02 221.888 52.108 222.152C52.196 222.408 52.32 222.624 52.48 222.8C52.64 222.976 52.824 223.112 53.032 223.208C53.248 223.296 53.484 223.34 53.74 223.34C54.172 223.34 54.5 223.244 54.724 223.052C54.948 222.86 55.12 222.596 55.24 222.26H56.08C55.96 222.788 55.708 223.224 55.324 223.568C54.94 223.912 54.412 224.084 53.74 224.084ZM59.0186 224.084C58.4186 224.084 57.9586 223.932 57.6386 223.628C57.3186 223.316 57.1586 222.888 57.1586 222.344C57.1586 222.056 57.2026 221.796 57.2906 221.564C57.3866 221.324 57.5346 221.124 57.7346 220.964C57.9426 220.804 58.2066 220.68 58.5266 220.592C58.8466 220.504 59.2306 220.46 59.6786 220.46H61.0466V219.92C61.0466 219.488 60.9386 219.172 60.7226 218.972C60.5146 218.764 60.1666 218.66 59.6786 218.66C59.2386 218.66 58.9066 218.748 58.6826 218.924C58.4666 219.092 58.3426 219.324 58.3106 219.62H57.4586C57.4746 219.372 57.5306 219.144 57.6266 218.936C57.7226 218.728 57.8626 218.548 58.0466 218.396C58.2306 218.244 58.4586 218.128 58.7306 218.048C59.0026 217.96 59.3186 217.916 59.6786 217.916C60.3906 217.916 60.9266 218.092 61.2866 218.444C61.6546 218.796 61.8386 219.288 61.8386 219.92V224H61.2266L61.1066 222.872C60.8986 223.256 60.6106 223.556 60.2426 223.772C59.8826 223.98 59.4746 224.084 59.0186 224.084ZM59.0786 223.34C59.3506 223.34 59.6066 223.292 59.8466 223.196C60.0866 223.092 60.2946 222.956 60.4706 222.788C60.6546 222.612 60.7946 222.412 60.8906 222.188C60.9946 221.956 61.0466 221.712 61.0466 221.456V221.18H59.6786C59.0626 221.18 58.6226 221.288 58.3586 221.504C58.1026 221.72 57.9746 222 57.9746 222.344C57.9746 222.648 58.0666 222.892 58.2506 223.076C58.4426 223.252 58.7186 223.34 59.0786 223.34ZM31.2428 231.836L33.0428 230.6H33.8828V239H33.0428V231.548L31.2428 232.772V231.836ZM38.5581 239.084C38.2221 239.084 37.9181 239.036 37.6461 238.94C37.3821 238.844 37.1501 238.716 36.9501 238.556C36.7501 238.388 36.5821 238.196 36.4461 237.98C36.3181 237.756 36.2261 237.516 36.1701 237.26H37.0581C37.1781 237.556 37.3541 237.8 37.5861 237.992C37.8181 238.184 38.1421 238.28 38.5581 238.28C38.8381 238.28 39.0901 238.232 39.3141 238.136C39.5461 238.032 39.7461 237.864 39.9141 237.632C40.0821 237.392 40.2141 237.08 40.3101 236.696C40.4141 236.304 40.4741 235.816 40.4901 235.232C40.2741 235.536 39.9941 235.776 39.6501 235.952C39.3141 236.12 38.9301 236.204 38.4981 236.204C38.1301 236.204 37.7901 236.14 37.4781 236.012C37.1661 235.876 36.8941 235.688 36.6621 235.448C36.4301 235.208 36.2461 234.924 36.1101 234.596C35.9821 234.268 35.9181 233.904 35.9181 233.504V233.216C35.9181 232.824 35.9821 232.464 36.1101 232.136C36.2461 231.8 36.4301 231.512 36.6621 231.272C36.9021 231.032 37.1821 230.848 37.5021 230.72C37.8221 230.584 38.1741 230.516 38.5581 230.516C38.9741 230.516 39.3501 230.588 39.6861 230.732C40.0301 230.868 40.3221 231.08 40.5621 231.368C40.8021 231.656 40.9861 232.024 41.1141 232.472C41.2501 232.912 41.3181 233.44 41.3181 234.056V234.824C41.3181 235.6 41.2501 236.26 41.1141 236.804C40.9781 237.34 40.7861 237.78 40.5381 238.124C40.2901 238.46 39.9981 238.704 39.6621 238.856C39.3261 239.008 38.9581 239.084 38.5581 239.084ZM38.5581 235.412C38.8381 235.412 39.0941 235.372 39.3261 235.292C39.5581 235.204 39.7541 235.088 39.9141 234.944C40.0821 234.792 40.2101 234.612 40.2981 234.404C40.3941 234.196 40.4461 233.964 40.4541 233.708V233.336C40.4541 232.688 40.2821 232.188 39.9381 231.836C39.6021 231.484 39.1421 231.308 38.5581 231.308C38.0301 231.308 37.6021 231.48 37.2741 231.824C36.9461 232.16 36.7821 232.624 36.7821 233.216V233.504C36.7821 234.096 36.9461 234.564 37.2741 234.908C37.6021 235.244 38.0301 235.412 38.5581 235.412ZM45.6948 239.084C45.3588 239.084 45.0548 239.036 44.7828 238.94C44.5188 238.844 44.2868 238.716 44.0868 238.556C43.8868 238.388 43.7188 238.196 43.5828 237.98C43.4548 237.756 43.3628 237.516 43.3068 237.26H44.1948C44.3148 237.556 44.4908 237.8 44.7228 237.992C44.9548 238.184 45.2788 238.28 45.6948 238.28C45.9748 238.28 46.2268 238.232 46.4508 238.136C46.6828 238.032 46.8828 237.864 47.0508 237.632C47.2188 237.392 47.3508 237.08 47.4468 236.696C47.5508 236.304 47.6108 235.816 47.6268 235.232C47.4108 235.536 47.1308 235.776 46.7868 235.952C46.4508 236.12 46.0668 236.204 45.6348 236.204C45.2668 236.204 44.9268 236.14 44.6148 236.012C44.3028 235.876 44.0308 235.688 43.7988 235.448C43.5668 235.208 43.3828 234.924 43.2468 234.596C43.1188 234.268 43.0548 233.904 43.0548 233.504V233.216C43.0548 232.824 43.1188 232.464 43.2468 232.136C43.3828 231.8 43.5668 231.512 43.7988 231.272C44.0388 231.032 44.3188 230.848 44.6388 230.72C44.9588 230.584 45.3108 230.516 45.6948 230.516C46.1108 230.516 46.4868 230.588 46.8228 230.732C47.1668 230.868 47.4588 231.08 47.6988 231.368C47.9388 231.656 48.1228 232.024 48.2508 232.472C48.3868 232.912 48.4548 233.44 48.4548 234.056V234.824C48.4548 235.6 48.3868 236.26 48.2508 236.804C48.1148 237.34 47.9228 237.78 47.6748 238.124C47.4268 238.46 47.1348 238.704 46.7988 238.856C46.4628 239.008 46.0948 239.084 45.6948 239.084ZM45.6948 235.412C45.9748 235.412 46.2308 235.372 46.4628 235.292C46.6948 235.204 46.8908 235.088 47.0508 234.944C47.2188 234.792 47.3468 234.612 47.4348 234.404C47.5308 234.196 47.5828 233.964 47.5908 233.708V233.336C47.5908 232.688 47.4188 232.188 47.0748 231.836C46.7388 231.484 46.2788 231.308 45.6948 231.308C45.1668 231.308 44.7388 231.48 44.4108 231.824C44.0828 232.16 43.9188 232.624 43.9188 233.216V233.504C43.9188 234.096 44.0828 234.564 44.4108 234.908C44.7388 235.244 45.1668 235.412 45.6948 235.412ZM49.5916 230.6H54.8716V231.368L51.7396 239H50.8516L53.9956 231.368H49.5916V230.6Z" fill="#9BA9B2"/>
<path d="M27 144H59V207H27V144Z" fill="#2C287D"/>
<path d="M98 132H130V207H98V132Z" fill="#2C287D"/>
<path d="M93.934 220.064H89.254V224H88.414V215.6H89.254V219.296H93.934V215.6H94.774V224H93.934V220.064ZM101.002 218.912L100.258 220.16L97.8575 224H96.8735V218H97.6655V223.1L98.4095 221.84L100.81 218H101.794V224H101.002V218.912ZM105.694 221.24H104.626V224H103.834V218H104.626V220.52H105.694L107.41 218H108.394L106.414 220.892L108.634 224H107.65L105.694 221.24ZM111.997 224.084C111.597 224.084 111.233 224.02 110.905 223.892C110.585 223.764 110.309 223.58 110.077 223.34C109.845 223.1 109.665 222.808 109.537 222.464C109.417 222.112 109.357 221.712 109.357 221.264V220.736C109.357 220.296 109.421 219.904 109.549 219.56C109.677 219.208 109.853 218.912 110.077 218.672C110.309 218.424 110.585 218.236 110.905 218.108C111.233 217.98 111.597 217.916 111.997 217.916C112.397 217.916 112.757 217.98 113.077 218.108C113.405 218.236 113.685 218.42 113.917 218.66C114.149 218.9 114.325 219.196 114.445 219.548C114.573 219.9 114.637 220.296 114.637 220.736V221.264C114.637 221.704 114.573 222.1 114.445 222.452C114.317 222.796 114.137 223.092 113.905 223.34C113.681 223.58 113.405 223.764 113.077 223.892C112.749 224.02 112.389 224.084 111.997 224.084ZM111.997 223.34C112.541 223.34 112.981 223.164 113.317 222.812C113.653 222.452 113.821 221.936 113.821 221.264V220.736C113.821 220.072 113.649 219.56 113.305 219.2C112.969 218.84 112.533 218.66 111.997 218.66C111.453 218.66 111.013 218.84 110.677 219.2C110.341 219.552 110.173 220.064 110.173 220.736V221.264C110.173 221.928 110.341 222.44 110.677 222.8C111.021 223.16 111.461 223.34 111.997 223.34ZM115.418 223.34H115.598C115.742 223.34 115.874 223.308 115.994 223.244C116.122 223.172 116.23 223.044 116.318 222.86C116.414 222.676 116.486 222.428 116.534 222.116C116.59 221.796 116.618 221.384 116.618 220.88V218H120.698V224H119.906V218.72H117.41V220.88C117.41 221.504 117.366 222.024 117.278 222.44C117.198 222.848 117.078 223.176 116.918 223.424C116.758 223.664 116.566 223.836 116.342 223.94C116.118 224.036 115.87 224.084 115.598 224.084H115.418V223.34ZM124.177 224.084C123.577 224.084 123.117 223.932 122.797 223.628C122.477 223.316 122.317 222.888 122.317 222.344C122.317 222.056 122.361 221.796 122.449 221.564C122.545 221.324 122.693 221.124 122.893 220.964C123.101 220.804 123.365 220.68 123.685 220.592C124.005 220.504 124.389 220.46 124.837 220.46H126.205V219.92C126.205 219.488 126.097 219.172 125.881 218.972C125.673 218.764 125.325 218.66 124.837 218.66C124.397 218.66 124.065 218.748 123.841 218.924C123.625 219.092 123.501 219.324 123.469 219.62H122.617C122.633 219.372 122.689 219.144 122.785 218.936C122.881 218.728 123.021 218.548 123.205 218.396C123.389 218.244 123.617 218.128 123.889 218.048C124.161 217.96 124.477 217.916 124.837 217.916C125.549 217.916 126.085 218.092 126.445 218.444C126.813 218.796 126.997 219.288 126.997 219.92V224H126.385L126.265 222.872C126.057 223.256 125.769 223.556 125.401 223.772C125.041 223.98 124.633 224.084 124.177 224.084ZM124.237 223.34C124.509 223.34 124.765 223.292 125.005 223.196C125.245 223.092 125.453 222.956 125.629 222.788C125.813 222.612 125.953 222.412 126.049 222.188C126.153 221.956 126.205 221.712 126.205 221.456V221.18H124.837C124.221 221.18 123.781 221.288 123.517 221.504C123.261 221.72 123.133 222 123.133 222.344C123.133 222.648 123.225 222.892 123.409 223.076C123.601 223.252 123.877 223.34 124.237 223.34ZM131.191 224.084C130.399 224.084 129.771 223.844 129.307 223.364C128.843 222.876 128.611 222.176 128.611 221.264V220.736C128.611 219.832 128.843 219.136 129.307 218.648C129.779 218.16 130.407 217.916 131.191 217.916C131.975 217.916 132.599 218.16 133.063 218.648C133.535 219.136 133.771 219.832 133.771 220.736V221.228H129.427V221.264C129.427 221.96 129.587 222.48 129.907 222.824C130.227 223.168 130.655 223.34 131.191 223.34C131.687 223.34 132.063 223.236 132.319 223.028C132.583 222.82 132.775 222.56 132.895 222.248H133.711C133.647 222.504 133.551 222.744 133.423 222.968C133.295 223.192 133.127 223.388 132.919 223.556C132.711 223.716 132.463 223.844 132.175 223.94C131.887 224.036 131.559 224.084 131.191 224.084ZM131.191 218.66C130.671 218.66 130.255 218.824 129.943 219.152C129.639 219.472 129.467 219.932 129.427 220.532H132.943C132.911 219.908 132.735 219.44 132.415 219.128C132.103 218.816 131.695 218.66 131.191 218.66ZM135.452 218H137.672C138.4 218 138.932 218.148 139.268 218.444C139.604 218.74 139.772 219.14 139.772 219.644C139.772 219.9 139.708 220.136 139.58 220.352C139.452 220.568 139.26 220.748 139.004 220.892C139.34 221.028 139.592 221.22 139.76 221.468C139.928 221.708 140.012 221.98 140.012 222.284C140.012 222.82 139.844 223.24 139.508 223.544C139.172 223.848 138.64 224 137.912 224H135.452V218ZM136.244 221.3V223.28H137.912C138.384 223.28 138.716 223.196 138.908 223.028C139.1 222.86 139.196 222.612 139.196 222.284C139.196 221.964 139.1 221.72 138.908 221.552C138.716 221.384 138.384 221.3 137.912 221.3H136.244ZM136.244 218.72V220.58H137.672C138.144 220.58 138.476 220.5 138.668 220.34C138.86 220.172 138.956 219.94 138.956 219.644C138.956 219.356 138.86 219.132 138.668 218.972C138.476 218.804 138.144 218.72 137.672 218.72H136.244ZM100.378 238.232L103.354 235.28C103.61 235.024 103.834 234.792 104.026 234.584C104.226 234.376 104.39 234.18 104.518 233.996C104.654 233.812 104.754 233.636 104.818 233.468C104.882 233.3 104.914 233.124 104.914 232.94C104.914 232.468 104.75 232.08 104.422 231.776C104.094 231.464 103.646 231.308 103.078 231.308C102.51 231.308 102.062 231.464 101.734 231.776C101.406 232.08 101.242 232.468 101.242 232.94H100.378C100.378 232.596 100.442 232.276 100.57 231.98C100.698 231.684 100.878 231.428 101.11 231.212C101.342 230.996 101.626 230.828 101.962 230.708C102.298 230.58 102.67 230.516 103.078 230.516C103.486 230.516 103.858 230.58 104.194 230.708C104.53 230.828 104.814 230.996 105.046 231.212C105.278 231.428 105.458 231.684 105.586 231.98C105.714 232.276 105.778 232.596 105.778 232.94C105.778 233.404 105.618 233.856 105.298 234.296C104.986 234.736 104.55 235.228 103.99 235.772L101.458 238.232H105.778V239H100.378V238.232ZM110.096 239.084C109.672 239.084 109.288 239.016 108.944 238.88C108.608 238.736 108.32 238.508 108.08 238.196C107.84 237.884 107.656 237.484 107.528 236.996C107.4 236.5 107.336 235.896 107.336 235.184V234.416C107.336 233.712 107.4 233.116 107.528 232.628C107.664 232.132 107.852 231.728 108.092 231.416C108.332 231.104 108.62 230.876 108.956 230.732C109.3 230.588 109.68 230.516 110.096 230.516C110.512 230.516 110.888 230.588 111.224 230.732C111.568 230.868 111.86 231.092 112.1 231.404C112.34 231.716 112.524 232.12 112.652 232.616C112.788 233.112 112.856 233.712 112.856 234.416V235.184C112.856 235.888 112.788 236.488 112.652 236.984C112.524 237.472 112.34 237.872 112.1 238.184C111.86 238.496 111.568 238.724 111.224 238.868C110.888 239.012 110.512 239.084 110.096 239.084ZM110.096 238.292C110.384 238.292 110.644 238.244 110.876 238.148C111.116 238.044 111.316 237.872 111.476 237.632C111.644 237.392 111.772 237.072 111.86 236.672C111.948 236.272 111.992 235.776 111.992 235.184V234.416C111.992 233.824 111.948 233.332 111.86 232.94C111.772 232.54 111.644 232.22 111.476 231.98C111.308 231.74 111.108 231.568 110.876 231.464C110.644 231.36 110.384 231.308 110.096 231.308C109.808 231.308 109.544 231.36 109.304 231.464C109.072 231.56 108.872 231.728 108.704 231.968C108.544 232.208 108.42 232.528 108.332 232.928C108.244 233.328 108.2 233.824 108.2 234.416V235.184C108.2 235.776 108.244 236.272 108.332 236.672C108.42 237.064 108.548 237.38 108.716 237.62C108.884 237.86 109.084 238.032 109.316 238.136C109.548 238.24 109.808 238.292 110.096 238.292ZM117.42 239.084C116.996 239.084 116.612 239.016 116.268 238.88C115.932 238.736 115.644 238.508 115.404 238.196C115.164 237.884 114.98 237.484 114.852 236.996C114.724 236.5 114.66 235.896 114.66 235.184V234.416C114.66 233.712 114.724 233.116 114.852 232.628C114.988 232.132 115.176 231.728 115.416 231.416C115.656 231.104 115.944 230.876 116.28 230.732C116.624 230.588 117.004 230.516 117.42 230.516C117.836 230.516 118.212 230.588 118.548 230.732C118.892 230.868 119.184 231.092 119.424 231.404C119.664 231.716 119.848 232.12 119.976 232.616C120.112 233.112 120.18 233.712 120.18 234.416V235.184C120.18 235.888 120.112 236.488 119.976 236.984C119.848 237.472 119.664 237.872 119.424 238.184C119.184 238.496 118.892 238.724 118.548 238.868C118.212 239.012 117.836 239.084 117.42 239.084ZM117.42 238.292C117.708 238.292 117.968 238.244 118.2 238.148C118.44 238.044 118.64 237.872 118.8 237.632C118.968 237.392 119.096 237.072 119.184 236.672C119.272 236.272 119.316 235.776 119.316 235.184V234.416C119.316 233.824 119.272 233.332 119.184 232.94C119.096 232.54 118.968 232.22 118.8 231.98C118.632 231.74 118.432 231.568 118.2 231.464C117.968 231.36 117.708 231.308 117.42 231.308C117.132 231.308 116.868 231.36 116.628 231.464C116.396 231.56 116.196 231.728 116.028 231.968C115.868 232.208 115.744 232.528 115.656 232.928C115.568 233.328 115.524 233.824 115.524 234.416V235.184C115.524 235.776 115.568 236.272 115.656 236.672C115.744 237.064 115.872 237.38 116.04 237.62C116.208 237.86 116.408 238.032 116.64 238.136C116.872 238.24 117.132 238.292 117.42 238.292ZM124.624 239.084C124.184 239.084 123.792 239.028 123.448 238.916C123.104 238.796 122.816 238.632 122.584 238.424C122.352 238.208 122.172 237.956 122.044 237.668C121.924 237.38 121.864 237.064 121.864 236.72C121.864 236.216 121.996 235.788 122.26 235.436C122.524 235.076 122.884 234.804 123.34 234.62C122.956 234.444 122.652 234.2 122.428 233.888C122.212 233.576 122.104 233.192 122.104 232.736C122.104 232.424 122.164 232.136 122.284 231.872C122.412 231.6 122.584 231.364 122.8 231.164C123.024 230.964 123.288 230.808 123.592 230.696C123.904 230.576 124.248 230.516 124.624 230.516C125.008 230.516 125.352 230.572 125.656 230.684C125.968 230.796 126.232 230.952 126.448 231.152C126.672 231.352 126.844 231.588 126.964 231.86C127.084 232.124 127.144 232.416 127.144 232.736C127.144 233.184 127.028 233.564 126.796 233.876C126.572 234.188 126.268 234.432 125.884 234.608C126.34 234.8 126.704 235.076 126.976 235.436C127.248 235.788 127.384 236.216 127.384 236.72C127.384 237.056 127.32 237.368 127.192 237.656C127.072 237.944 126.892 238.196 126.652 238.412C126.412 238.62 126.12 238.784 125.776 238.904C125.44 239.024 125.056 239.084 124.624 239.084ZM124.624 238.292C124.92 238.292 125.184 238.252 125.416 238.172C125.656 238.084 125.856 237.968 126.016 237.824C126.176 237.68 126.3 237.516 126.388 237.332C126.476 237.14 126.52 236.936 126.52 236.72C126.52 236.464 126.468 236.232 126.364 236.024C126.268 235.816 126.132 235.64 125.956 235.496C125.788 235.344 125.588 235.224 125.356 235.136C125.124 235.048 124.88 234.992 124.624 234.968C124.36 234.992 124.112 235.048 123.88 235.136C123.648 235.216 123.444 235.332 123.268 235.484C123.1 235.628 122.968 235.804 122.872 236.012C122.776 236.22 122.728 236.456 122.728 236.72C122.728 236.936 122.772 237.14 122.86 237.332C122.948 237.516 123.072 237.68 123.232 237.824C123.392 237.968 123.588 238.084 123.82 238.172C124.06 238.252 124.328 238.292 124.624 238.292ZM124.624 234.272C124.832 234.248 125.036 234.204 125.236 234.14C125.436 234.068 125.612 233.972 125.764 233.852C125.924 233.724 126.048 233.568 126.136 233.384C126.232 233.2 126.28 232.984 126.28 232.736C126.28 232.552 126.24 232.376 126.16 232.208C126.088 232.032 125.98 231.88 125.836 231.752C125.692 231.616 125.516 231.508 125.308 231.428C125.108 231.348 124.88 231.308 124.624 231.308C124.368 231.308 124.136 231.348 123.928 231.428C123.728 231.508 123.556 231.616 123.412 231.752C123.268 231.88 123.156 232.032 123.076 232.208C123.004 232.376 122.968 232.552 122.968 232.736C122.968 232.976 123.016 233.188 123.112 233.372C123.208 233.548 123.332 233.7 123.484 233.828C123.644 233.956 123.824 234.056 124.024 234.128C124.224 234.2 124.424 234.248 124.624 234.272Z" fill="#9BA9B2"/>
<path d="M190 110H222V207H190V110Z" fill="#2C287D"/>
<path d="M168.459 220.064H167.127V224H166.287V215.6H167.127V219.296H168.447L171.159 215.6H172.167L169.155 219.668L172.407 224H171.375L168.459 220.064ZM176.532 224.084C176.116 224.084 175.748 224.008 175.428 223.856C175.108 223.696 174.844 223.452 174.636 223.124V226.4H173.844V218H174.456L174.552 219.008C174.76 218.64 175.028 218.368 175.356 218.192C175.692 218.008 176.084 217.916 176.532 217.916C176.876 217.916 177.192 217.976 177.48 218.096C177.768 218.216 178.016 218.396 178.224 218.636C178.432 218.868 178.592 219.16 178.704 219.512C178.824 219.864 178.884 220.272 178.884 220.736V221.264C178.884 221.72 178.824 222.124 178.704 222.476C178.592 222.828 178.432 223.124 178.224 223.364C178.016 223.604 177.768 223.784 177.48 223.904C177.192 224.024 176.876 224.084 176.532 224.084ZM176.352 223.34C176.872 223.34 177.288 223.172 177.6 222.836C177.912 222.492 178.068 221.968 178.068 221.264V220.736C178.068 220.04 177.908 219.52 177.588 219.176C177.276 218.832 176.864 218.66 176.352 218.66C175.872 218.66 175.468 218.828 175.14 219.164C174.82 219.5 174.652 219.992 174.636 220.64V221.264C174.636 221.936 174.796 222.452 175.116 222.812C175.436 223.164 175.848 223.34 176.352 223.34ZM182.839 224.084C182.439 224.084 182.075 224.02 181.747 223.892C181.427 223.764 181.151 223.58 180.919 223.34C180.687 223.1 180.507 222.808 180.379 222.464C180.259 222.112 180.199 221.712 180.199 221.264V220.736C180.199 220.296 180.263 219.904 180.391 219.56C180.519 219.208 180.695 218.912 180.919 218.672C181.151 218.424 181.427 218.236 181.747 218.108C182.075 217.98 182.439 217.916 182.839 217.916C183.239 217.916 183.599 217.98 183.919 218.108C184.247 218.236 184.527 218.42 184.759 218.66C184.991 218.9 185.167 219.196 185.287 219.548C185.415 219.9 185.479 220.296 185.479 220.736V221.264C185.479 221.704 185.415 222.1 185.287 222.452C185.159 222.796 184.979 223.092 184.747 223.34C184.523 223.58 184.247 223.764 183.919 223.892C183.591 224.02 183.231 224.084 182.839 224.084ZM182.839 223.34C183.383 223.34 183.823 223.164 184.159 222.812C184.495 222.452 184.663 221.936 184.663 221.264V220.736C184.663 220.072 184.491 219.56 184.147 219.2C183.811 218.84 183.375 218.66 182.839 218.66C182.295 218.66 181.855 218.84 181.519 219.2C181.183 219.552 181.015 220.064 181.015 220.736V221.264C181.015 221.928 181.183 222.44 181.519 222.8C181.863 223.16 182.303 223.34 182.839 223.34ZM191.045 218.72H187.949V224H187.157V218H191.837V224H191.045V218.72ZM198 218.912L197.256 220.16L194.856 224H193.872V218H194.664V223.1L195.408 221.84L197.808 218H198.792V224H198V218.912ZM200.833 218H203.053C203.781 218 204.313 218.148 204.649 218.444C204.985 218.74 205.153 219.14 205.153 219.644C205.153 219.9 205.089 220.136 204.961 220.352C204.833 220.568 204.641 220.748 204.385 220.892C204.721 221.028 204.973 221.22 205.141 221.468C205.309 221.708 205.393 221.98 205.393 222.284C205.393 222.82 205.225 223.24 204.889 223.544C204.553 223.848 204.021 224 203.293 224H200.833V218ZM201.625 221.3V223.28H203.293C203.765 223.28 204.097 223.196 204.289 223.028C204.481 222.86 204.577 222.612 204.577 222.284C204.577 221.964 204.481 221.72 204.289 221.552C204.097 221.384 203.765 221.3 203.293 221.3H201.625ZM201.625 218.72V220.58H203.053C203.525 220.58 203.857 220.5 204.049 220.34C204.241 220.172 204.337 219.94 204.337 219.644C204.337 219.356 204.241 219.132 204.049 218.972C203.857 218.804 203.525 218.72 203.053 218.72H201.625ZM211.195 221.3H207.859V224H207.067V218H207.859V220.58H211.195V218H211.987V224H211.195V221.3ZM218.156 218.912L217.412 220.16L215.012 224H214.028V218H214.82V223.1L215.564 221.84L217.964 218H218.948V224H218.156V218.912ZM220.989 218H221.781V223.28H224.817V218H225.609V223.28H226.509V225.56H225.717V224H220.989V218ZM229.634 221.24H228.566V224H227.774V218H228.566V220.52H229.634L231.35 218H232.334L230.354 220.892L232.574 224H231.59L229.634 221.24ZM238.019 218.912L237.275 220.16L234.875 224H233.891V218H234.683V223.1L235.427 221.84L237.827 218H238.811V224H238.019V218.912ZM244.98 218.912L244.236 220.16L241.836 224H240.852V218H241.644V223.1L242.388 221.84L244.788 218H245.772V224H244.98V218.912ZM243.312 217.244C242.808 217.244 242.412 217.1 242.124 216.812C241.836 216.524 241.692 216.12 241.692 215.6H242.46C242.46 215.96 242.532 216.22 242.676 216.38C242.828 216.54 243.04 216.62 243.312 216.62C243.592 216.62 243.808 216.54 243.96 216.38C244.112 216.22 244.188 215.96 244.188 215.6H244.932C244.932 216.12 244.788 216.524 244.5 216.812C244.212 217.1 243.816 217.244 243.312 217.244ZM193.819 238.232L196.795 235.28C197.051 235.024 197.275 234.792 197.467 234.584C197.667 234.376 197.831 234.18 197.959 233.996C198.095 233.812 198.195 233.636 198.259 233.468C198.323 233.3 198.355 233.124 198.355 232.94C198.355 232.468 198.191 232.08 197.863 231.776C197.535 231.464 197.087 231.308 196.519 231.308C195.951 231.308 195.503 231.464 195.175 231.776C194.847 232.08 194.683 232.468 194.683 232.94H193.819C193.819 232.596 193.883 232.276 194.011 231.98C194.139 231.684 194.319 231.428 194.551 231.212C194.783 230.996 195.067 230.828 195.403 230.708C195.739 230.58 196.111 230.516 196.519 230.516C196.927 230.516 197.299 230.58 197.635 230.708C197.971 230.828 198.255 230.996 198.487 231.212C198.719 231.428 198.899 231.684 199.027 231.98C199.155 232.276 199.219 232.596 199.219 232.94C199.219 233.404 199.059 233.856 198.739 234.296C198.427 234.736 197.991 235.228 197.431 235.772L194.899 238.232H199.219V239H193.819V238.232ZM203.537 239.084C203.113 239.084 202.729 239.016 202.385 238.88C202.049 238.736 201.761 238.508 201.521 238.196C201.281 237.884 201.097 237.484 200.969 236.996C200.841 236.5 200.777 235.896 200.777 235.184V234.416C200.777 233.712 200.841 233.116 200.969 232.628C201.105 232.132 201.293 231.728 201.533 231.416C201.773 231.104 202.061 230.876 202.397 230.732C202.741 230.588 203.121 230.516 203.537 230.516C203.953 230.516 204.329 230.588 204.665 230.732C205.009 230.868 205.301 231.092 205.541 231.404C205.781 231.716 205.965 232.12 206.093 232.616C206.229 233.112 206.297 233.712 206.297 234.416V235.184C206.297 235.888 206.229 236.488 206.093 236.984C205.965 237.472 205.781 237.872 205.541 238.184C205.301 238.496 205.009 238.724 204.665 238.868C204.329 239.012 203.953 239.084 203.537 239.084ZM203.537 238.292C203.825 238.292 204.085 238.244 204.317 238.148C204.557 238.044 204.757 237.872 204.917 237.632C205.085 237.392 205.213 237.072 205.301 236.672C205.389 236.272 205.433 235.776 205.433 235.184V234.416C205.433 233.824 205.389 233.332 205.301 232.94C205.213 232.54 205.085 232.22 204.917 231.98C204.749 231.74 204.549 231.568 204.317 231.464C204.085 231.36 203.825 231.308 203.537 231.308C203.249 231.308 202.985 231.36 202.745 231.464C202.513 231.56 202.313 231.728 202.145 231.968C201.985 232.208 201.861 232.528 201.773 232.928C201.685 233.328 201.641 233.824 201.641 234.416V235.184C201.641 235.776 201.685 236.272 201.773 236.672C201.861 237.064 201.989 237.38 202.157 237.62C202.325 237.86 202.525 238.032 202.757 238.136C202.989 238.24 203.249 238.292 203.537 238.292ZM207.561 231.836L209.361 230.6H210.201V239H209.361V231.548L207.561 232.772V231.836ZM215.056 239.084C214.632 239.084 214.248 239.016 213.904 238.88C213.568 238.736 213.28 238.508 213.04 238.196C212.8 237.884 212.616 237.484 212.488 236.996C212.36 236.5 212.296 235.896 212.296 235.184V234.416C212.296 233.712 212.36 233.116 212.488 232.628C212.624 232.132 212.812 231.728 213.052 231.416C213.292 231.104 213.58 230.876 213.916 230.732C214.26 230.588 214.64 230.516 215.056 230.516C215.472 230.516 215.848 230.588 216.184 230.732C216.528 230.868 216.82 231.092 217.06 231.404C217.3 231.716 217.484 232.12 217.612 232.616C217.748 233.112 217.816 233.712 217.816 234.416V235.184C217.816 235.888 217.748 236.488 217.612 236.984C217.484 237.472 217.3 237.872 217.06 238.184C216.82 238.496 216.528 238.724 216.184 238.868C215.848 239.012 215.472 239.084 215.056 239.084ZM215.056 238.292C215.344 238.292 215.604 238.244 215.836 238.148C216.076 238.044 216.276 237.872 216.436 237.632C216.604 237.392 216.732 237.072 216.82 236.672C216.908 236.272 216.952 235.776 216.952 235.184V234.416C216.952 233.824 216.908 233.332 216.82 232.94C216.732 232.54 216.604 232.22 216.436 231.98C216.268 231.74 216.068 231.568 215.836 231.464C215.604 231.36 215.344 231.308 215.056 231.308C214.768 231.308 214.504 231.36 214.264 231.464C214.032 231.56 213.832 231.728 213.664 231.968C213.504 232.208 213.38 232.528 213.292 232.928C213.204 233.328 213.16 233.824 213.16 234.416V235.184C213.16 235.776 213.204 236.272 213.292 236.672C213.38 237.064 213.508 237.38 213.676 237.62C213.844 237.86 214.044 238.032 214.276 238.136C214.508 238.24 214.768 238.292 215.056 238.292Z" fill="#9BA9B2"/>
<path d="M275 88H307V207H275V88Z" fill="#2C287D"/>
<path d="M274.249 220.328L271.801 224H270.793L273.745 219.644L271.033 215.6H272.053L274.285 218.924L276.517 215.6H277.513L274.801 219.596L277.753 224H276.721L274.249 220.328ZM281.054 224.084C280.262 224.084 279.634 223.844 279.17 223.364C278.706 222.876 278.474 222.176 278.474 221.264V220.736C278.474 219.832 278.706 219.136 279.17 218.648C279.642 218.16 280.27 217.916 281.054 217.916C281.838 217.916 282.462 218.16 282.926 218.648C283.398 219.136 283.634 219.832 283.634 220.736V221.228H279.29V221.264C279.29 221.96 279.45 222.48 279.77 222.824C280.09 223.168 280.518 223.34 281.054 223.34C281.55 223.34 281.926 223.236 282.182 223.028C282.446 222.82 282.638 222.56 282.758 222.248H283.574C283.51 222.504 283.414 222.744 283.286 222.968C283.158 223.192 282.99 223.388 282.782 223.556C282.574 223.716 282.326 223.844 282.038 223.94C281.75 224.036 281.422 224.084 281.054 224.084ZM281.054 218.66C280.534 218.66 280.118 218.824 279.806 219.152C279.502 219.472 279.33 219.932 279.29 220.532H282.806C282.774 219.908 282.598 219.44 282.278 219.128C281.966 218.816 281.558 218.66 281.054 218.66ZM288.003 224.084C287.587 224.084 287.219 224.008 286.899 223.856C286.579 223.696 286.315 223.452 286.107 223.124V226.4H285.315V218H285.927L286.023 219.008C286.231 218.64 286.499 218.368 286.827 218.192C287.163 218.008 287.555 217.916 288.003 217.916C288.347 217.916 288.663 217.976 288.951 218.096C289.239 218.216 289.487 218.396 289.695 218.636C289.903 218.868 290.063 219.16 290.175 219.512C290.295 219.864 290.355 220.272 290.355 220.736V221.264C290.355 221.72 290.295 222.124 290.175 222.476C290.063 222.828 289.903 223.124 289.695 223.364C289.487 223.604 289.239 223.784 288.951 223.904C288.663 224.024 288.347 224.084 288.003 224.084ZM287.823 223.34C288.343 223.34 288.759 223.172 289.071 222.836C289.383 222.492 289.539 221.968 289.539 221.264V220.736C289.539 220.04 289.379 219.52 289.059 219.176C288.747 218.832 288.335 218.66 287.823 218.66C287.343 218.66 286.939 218.828 286.611 219.164C286.291 219.5 286.123 219.992 286.107 220.64V221.264C286.107 221.936 286.267 222.452 286.587 222.812C286.907 223.164 287.319 223.34 287.823 223.34ZM294.25 224.084C293.866 224.084 293.514 224.02 293.194 223.892C292.882 223.764 292.61 223.58 292.378 223.34C292.154 223.1 291.978 222.808 291.85 222.464C291.73 222.112 291.67 221.712 291.67 221.264V220.736C291.67 220.296 291.73 219.904 291.85 219.56C291.978 219.208 292.154 218.912 292.378 218.672C292.61 218.424 292.882 218.236 293.194 218.108C293.514 217.98 293.866 217.916 294.25 217.916C294.586 217.916 294.882 217.96 295.138 218.048C295.402 218.136 295.63 218.26 295.822 218.42C296.022 218.572 296.182 218.752 296.302 218.96C296.43 219.168 296.526 219.388 296.59 219.62H295.75C295.63 219.348 295.454 219.12 295.222 218.936C294.998 218.752 294.674 218.66 294.25 218.66C293.738 218.66 293.314 218.84 292.978 219.2C292.65 219.552 292.486 220.064 292.486 220.736V221.264C292.486 221.592 292.53 221.888 292.618 222.152C292.706 222.408 292.83 222.624 292.99 222.8C293.15 222.976 293.334 223.112 293.542 223.208C293.758 223.296 293.994 223.34 294.25 223.34C294.682 223.34 295.01 223.244 295.234 223.052C295.458 222.86 295.63 222.596 295.75 222.26H296.59C296.47 222.788 296.218 223.224 295.834 223.568C295.45 223.912 294.922 224.084 294.25 224.084ZM300.368 224.084C299.968 224.084 299.604 224.02 299.276 223.892C298.956 223.764 298.68 223.58 298.448 223.34C298.216 223.1 298.036 222.808 297.908 222.464C297.788 222.112 297.728 221.712 297.728 221.264V220.736C297.728 220.296 297.792 219.904 297.92 219.56C298.048 219.208 298.224 218.912 298.448 218.672C298.68 218.424 298.956 218.236 299.276 218.108C299.604 217.98 299.968 217.916 300.368 217.916C300.768 217.916 301.128 217.98 301.448 218.108C301.776 218.236 302.056 218.42 302.288 218.66C302.52 218.9 302.696 219.196 302.816 219.548C302.944 219.9 303.008 220.296 303.008 220.736V221.264C303.008 221.704 302.944 222.1 302.816 222.452C302.688 222.796 302.508 223.092 302.276 223.34C302.052 223.58 301.776 223.764 301.448 223.892C301.12 224.02 300.76 224.084 300.368 224.084ZM300.368 223.34C300.912 223.34 301.352 223.164 301.688 222.812C302.024 222.452 302.192 221.936 302.192 221.264V220.736C302.192 220.072 302.02 219.56 301.676 219.2C301.34 218.84 300.904 218.66 300.368 218.66C299.824 218.66 299.384 218.84 299.048 219.2C298.712 219.552 298.544 220.064 298.544 220.736V221.264C298.544 221.928 298.712 222.44 299.048 222.8C299.392 223.16 299.832 223.34 300.368 223.34ZM308.814 221.3H305.478V224H304.686V218H305.478V220.58H308.814V218H309.606V224H308.814V221.3ZM279.099 238.232L282.075 235.28C282.331 235.024 282.555 234.792 282.747 234.584C282.947 234.376 283.111 234.18 283.239 233.996C283.375 233.812 283.475 233.636 283.539 233.468C283.603 233.3 283.635 233.124 283.635 232.94C283.635 232.468 283.471 232.08 283.143 231.776C282.815 231.464 282.367 231.308 281.799 231.308C281.231 231.308 280.783 231.464 280.455 231.776C280.127 232.08 279.963 232.468 279.963 232.94H279.099C279.099 232.596 279.163 232.276 279.291 231.98C279.419 231.684 279.599 231.428 279.831 231.212C280.063 230.996 280.347 230.828 280.683 230.708C281.019 230.58 281.391 230.516 281.799 230.516C282.207 230.516 282.579 230.58 282.915 230.708C283.251 230.828 283.535 230.996 283.767 231.212C283.999 231.428 284.179 231.684 284.307 231.98C284.435 232.276 284.499 232.596 284.499 232.94C284.499 233.404 284.339 233.856 284.019 234.296C283.707 234.736 283.271 235.228 282.711 235.772L280.179 238.232H284.499V239H279.099V238.232ZM288.816 239.084C288.392 239.084 288.008 239.016 287.664 238.88C287.328 238.736 287.04 238.508 286.8 238.196C286.56 237.884 286.376 237.484 286.248 236.996C286.12 236.5 286.056 235.896 286.056 235.184V234.416C286.056 233.712 286.12 233.116 286.248 232.628C286.384 232.132 286.572 231.728 286.812 231.416C287.052 231.104 287.34 230.876 287.676 230.732C288.02 230.588 288.4 230.516 288.816 230.516C289.232 230.516 289.608 230.588 289.944 230.732C290.288 230.868 290.58 231.092 290.82 231.404C291.06 231.716 291.244 232.12 291.372 232.616C291.508 233.112 291.576 233.712 291.576 234.416V235.184C291.576 235.888 291.508 236.488 291.372 236.984C291.244 237.472 291.06 237.872 290.82 238.184C290.58 238.496 290.288 238.724 289.944 238.868C289.608 239.012 289.232 239.084 288.816 239.084ZM288.816 238.292C289.104 238.292 289.364 238.244 289.596 238.148C289.836 238.044 290.036 237.872 290.196 237.632C290.364 237.392 290.492 237.072 290.58 236.672C290.668 236.272 290.712 235.776 290.712 235.184V234.416C290.712 233.824 290.668 233.332 290.58 232.94C290.492 232.54 290.364 232.22 290.196 231.98C290.028 231.74 289.828 231.568 289.596 231.464C289.364 231.36 289.104 231.308 288.816 231.308C288.528 231.308 288.264 231.36 288.024 231.464C287.792 231.56 287.592 231.728 287.424 231.968C287.264 232.208 287.14 232.528 287.052 232.928C286.964 233.328 286.92 233.824 286.92 234.416V235.184C286.92 235.776 286.964 236.272 287.052 236.672C287.14 237.064 287.268 237.38 287.436 237.62C287.604 237.86 287.804 238.032 288.036 238.136C288.268 238.24 288.528 238.292 288.816 238.292ZM292.84 231.836L294.64 230.6H295.48V239H294.64V231.548L292.84 232.772V231.836ZM296.916 230.6H302.196V231.368L299.064 239H298.176L301.32 231.368H296.916V230.6Z" fill="#9BA9B2"/>
<path d="M11.3358 209.084C10.9118 209.084 10.5278 209.016 10.1838 208.88C9.84778 208.736 9.55978 208.508 9.31978 208.196C9.07978 207.884 8.89578 207.484 8.76778 206.996C8.63978 206.5 8.57578 205.896 8.57578 205.184V204.416C8.57578 203.712 8.63978 203.116 8.76778 202.628C8.90378 202.132 9.09178 201.728 9.33178 201.416C9.57178 201.104 9.85978 200.876 10.1958 200.732C10.5398 200.588 10.9198 200.516 11.3358 200.516C11.7518 200.516 12.1278 200.588 12.4638 200.732C12.8078 200.868 13.0998 201.092 13.3398 201.404C13.5798 201.716 13.7638 202.12 13.8918 202.616C14.0278 203.112 14.0958 203.712 14.0958 204.416V205.184C14.0958 205.888 14.0278 206.488 13.8918 206.984C13.7638 207.472 13.5798 207.872 13.3398 208.184C13.0998 208.496 12.8078 208.724 12.4638 208.868C12.1278 209.012 11.7518 209.084 11.3358 209.084ZM11.3358 208.292C11.6238 208.292 11.8838 208.244 12.1158 208.148C12.3558 208.044 12.5558 207.872 12.7158 207.632C12.8838 207.392 13.0118 207.072 13.0998 206.672C13.1878 206.272 13.2318 205.776 13.2318 205.184V204.416C13.2318 203.824 13.1878 203.332 13.0998 202.94C13.0118 202.54 12.8838 202.22 12.7158 201.98C12.5478 201.74 12.3478 201.568 12.1158 201.464C11.8838 201.36 11.6238 201.308 11.3358 201.308C11.0478 201.308 10.7838 201.36 10.5438 201.464C10.3118 201.56 10.1118 201.728 9.94378 201.968C9.78378 202.208 9.65978 202.528 9.57178 202.928C9.48378 203.328 9.43978 203.824 9.43978 204.416V205.184C9.43978 205.776 9.48378 206.272 9.57178 206.672C9.65978 207.064 9.78778 207.38 9.95578 207.62C10.1238 207.86 10.3238 208.032 10.5558 208.136C10.7878 208.24 11.0478 208.292 11.3358 208.292Z" fill="#9BA9B2"/>
<path d="M1.61813 161.232L4.59413 158.28C4.85013 158.024 5.07413 157.792 5.26613 157.584C5.46613 157.376 5.63013 157.18 5.75813 156.996C5.89413 156.812 5.99413 156.636 6.05813 156.468C6.12213 156.3 6.15413 156.124 6.15413 155.94C6.15413 155.468 5.99013 155.08 5.66213 154.776C5.33413 154.464 4.88613 154.308 4.31813 154.308C3.75013 154.308 3.30213 154.464 2.97413 154.776C2.64613 155.08 2.48213 155.468 2.48213 155.94H1.61813C1.61813 155.596 1.68213 155.276 1.81013 154.98C1.93813 154.684 2.11813 154.428 2.35013 154.212C2.58213 153.996 2.86613 153.828 3.20213 153.708C3.53813 153.58 3.91013 153.516 4.31813 153.516C4.72613 153.516 5.09813 153.58 5.43413 153.708C5.77013 153.828 6.05413 153.996 6.28613 154.212C6.51813 154.428 6.69813 154.684 6.82613 154.98C6.95413 155.276 7.01813 155.596 7.01813 155.94C7.01813 156.404 6.85813 156.856 6.53813 157.296C6.22613 157.736 5.79013 158.228 5.23013 158.772L2.69813 161.232H7.01813V162H1.61813V161.232ZM11.3358 162.084C10.9118 162.084 10.5278 162.016 10.1838 161.88C9.84778 161.736 9.55978 161.508 9.31978 161.196C9.07978 160.884 8.89578 160.484 8.76778 159.996C8.63978 159.5 8.57578 158.896 8.57578 158.184V157.416C8.57578 156.712 8.63978 156.116 8.76778 155.628C8.90378 155.132 9.09178 154.728 9.33178 154.416C9.57178 154.104 9.85978 153.876 10.1958 153.732C10.5398 153.588 10.9198 153.516 11.3358 153.516C11.7518 153.516 12.1278 153.588 12.4638 153.732C12.8078 153.868 13.0998 154.092 13.3398 154.404C13.5798 154.716 13.7638 155.12 13.8918 155.616C14.0278 156.112 14.0958 156.712 14.0958 157.416V158.184C14.0958 158.888 14.0278 159.488 13.8918 159.984C13.7638 160.472 13.5798 160.872 13.3398 161.184C13.0998 161.496 12.8078 161.724 12.4638 161.868C12.1278 162.012 11.7518 162.084 11.3358 162.084ZM11.3358 161.292C11.6238 161.292 11.8838 161.244 12.1158 161.148C12.3558 161.044 12.5558 160.872 12.7158 160.632C12.8838 160.392 13.0118 160.072 13.0998 159.672C13.1878 159.272 13.2318 158.776 13.2318 158.184V157.416C13.2318 156.824 13.1878 156.332 13.0998 155.94C13.0118 155.54 12.8838 155.22 12.7158 154.98C12.5478 154.74 12.3478 154.568 12.1158 154.464C11.8838 154.36 11.6238 154.308 11.3358 154.308C11.0478 154.308 10.7838 154.36 10.5438 154.464C10.3118 154.56 10.1118 154.728 9.94378 154.968C9.78378 155.208 9.65978 155.528 9.57178 155.928C9.48378 156.328 9.43978 156.824 9.43978 157.416V158.184C9.43978 158.776 9.48378 159.272 9.57178 159.672C9.65978 160.064 9.78778 160.38 9.95578 160.62C10.1238 160.86 10.3238 161.032 10.5558 161.136C10.7878 161.24 11.0478 161.292 11.3358 161.292Z" fill="#9BA9B2"/>
<path d="M1.19063 109.216L5.12663 103.6H6.17063V109.216H7.31063V109.984H6.17063V112H5.33063V109.984H1.19063V109.216ZM5.33063 109.216V104.572L2.11463 109.216H5.33063ZM11.3358 112.084C10.9118 112.084 10.5278 112.016 10.1838 111.88C9.84778 111.736 9.55978 111.508 9.31978 111.196C9.07978 110.884 8.89578 110.484 8.76778 109.996C8.63978 109.5 8.57578 108.896 8.57578 108.184V107.416C8.57578 106.712 8.63978 106.116 8.76778 105.628C8.90378 105.132 9.09178 104.728 9.33178 104.416C9.57178 104.104 9.85978 103.876 10.1958 103.732C10.5398 103.588 10.9198 103.516 11.3358 103.516C11.7518 103.516 12.1278 103.588 12.4638 103.732C12.8078 103.868 13.0998 104.092 13.3398 104.404C13.5798 104.716 13.7638 105.12 13.8918 105.616C14.0278 106.112 14.0958 106.712 14.0958 107.416V108.184C14.0958 108.888 14.0278 109.488 13.8918 109.984C13.7638 110.472 13.5798 110.872 13.3398 111.184C13.0998 111.496 12.8078 111.724 12.4638 111.868C12.1278 112.012 11.7518 112.084 11.3358 112.084ZM11.3358 111.292C11.6238 111.292 11.8838 111.244 12.1158 111.148C12.3558 111.044 12.5558 110.872 12.7158 110.632C12.8838 110.392 13.0118 110.072 13.0998 109.672C13.1878 109.272 13.2318 108.776 13.2318 108.184V107.416C13.2318 106.824 13.1878 106.332 13.0998 105.94C13.0118 105.54 12.8838 105.22 12.7158 104.98C12.5478 104.74 12.3478 104.568 12.1158 104.464C11.8838 104.36 11.6238 104.308 11.3358 104.308C11.0478 104.308 10.7838 104.36 10.5438 104.464C10.3118 104.56 10.1118 104.728 9.94378 104.968C9.78378 105.208 9.65978 105.528 9.57178 105.928C9.48378 106.328 9.43978 106.824 9.43978 107.416V108.184C9.43978 108.776 9.48378 109.272 9.57178 109.672C9.65978 110.064 9.78778 110.38 9.95578 110.62C10.1238 110.86 10.3238 111.032 10.5558 111.136C10.7878 111.24 11.0478 111.292 11.3358 111.292Z" fill="#9BA9B2"/>
<path d="M4.19906 62.084C3.77506 62.084 3.39106 62.016 3.04706 61.88C2.71106 61.736 2.42306 61.52 2.18306 61.232C1.94306 60.944 1.75906 60.58 1.63106 60.14C1.50306 59.692 1.43906 59.16 1.43906 58.544V57.776C1.43906 57 1.50706 56.344 1.64306 55.808C1.78706 55.264 1.98306 54.824 2.23106 54.488C2.47906 54.144 2.77506 53.896 3.11906 53.744C3.46306 53.592 3.84306 53.516 4.25906 53.516C4.57906 53.516 4.86706 53.564 5.12306 53.66C5.38706 53.756 5.61506 53.888 5.80706 54.056C6.00706 54.216 6.17106 54.408 6.29906 54.632C6.42706 54.856 6.52306 55.092 6.58706 55.34H5.69906C5.57906 55.044 5.40306 54.8 5.17106 54.608C4.94706 54.416 4.64306 54.32 4.25906 54.32C3.96306 54.32 3.69506 54.372 3.45506 54.476C3.21506 54.572 3.00706 54.74 2.83106 54.98C2.66306 55.212 2.52706 55.524 2.42306 55.916C2.32706 56.308 2.27106 56.796 2.25506 57.38C2.47106 57.068 2.75106 56.828 3.09506 56.66C3.43906 56.484 3.82706 56.396 4.25906 56.396C4.62706 56.396 4.96706 56.464 5.27906 56.6C5.59106 56.728 5.86306 56.912 6.09506 57.152C6.32706 57.392 6.50706 57.68 6.63506 58.016C6.77106 58.344 6.83906 58.704 6.83906 59.096V59.384C6.83906 59.784 6.77106 60.148 6.63506 60.476C6.50706 60.804 6.32306 61.088 6.08306 61.328C5.85106 61.568 5.57506 61.756 5.25506 61.892C4.93506 62.02 4.58306 62.084 4.19906 62.084ZM4.19906 57.188C3.62306 57.188 3.16706 57.348 2.83106 57.668C2.49506 57.98 2.31906 58.392 2.30306 58.904V59.264C2.30306 59.912 2.47106 60.412 2.80706 60.764C3.15106 61.116 3.61506 61.292 4.19906 61.292C4.72706 61.292 5.15506 61.124 5.48306 60.788C5.81106 60.444 5.97506 59.976 5.97506 59.384V59.096C5.97506 58.504 5.81106 58.04 5.48306 57.704C5.15506 57.36 4.72706 57.188 4.19906 57.188ZM11.3358 62.084C10.9118 62.084 10.5278 62.016 10.1838 61.88C9.84778 61.736 9.55978 61.508 9.31978 61.196C9.07978 60.884 8.89578 60.484 8.76778 59.996C8.63978 59.5 8.57578 58.896 8.57578 58.184V57.416C8.57578 56.712 8.63978 56.116 8.76778 55.628C8.90378 55.132 9.09178 54.728 9.33178 54.416C9.57178 54.104 9.85978 53.876 10.1958 53.732C10.5398 53.588 10.9198 53.516 11.3358 53.516C11.7518 53.516 12.1278 53.588 12.4638 53.732C12.8078 53.868 13.0998 54.092 13.3398 54.404C13.5798 54.716 13.7638 55.12 13.8918 55.616C14.0278 56.112 14.0958 56.712 14.0958 57.416V58.184C14.0958 58.888 14.0278 59.488 13.8918 59.984C13.7638 60.472 13.5798 60.872 13.3398 61.184C13.0998 61.496 12.8078 61.724 12.4638 61.868C12.1278 62.012 11.7518 62.084 11.3358 62.084ZM11.3358 61.292C11.6238 61.292 11.8838 61.244 12.1158 61.148C12.3558 61.044 12.5558 60.872 12.7158 60.632C12.8838 60.392 13.0118 60.072 13.0998 59.672C13.1878 59.272 13.2318 58.776 13.2318 58.184V57.416C13.2318 56.824 13.1878 56.332 13.0998 55.94C13.0118 55.54 12.8838 55.22 12.7158 54.98C12.5478 54.74 12.3478 54.568 12.1158 54.464C11.8838 54.36 11.6238 54.308 11.3358 54.308C11.0478 54.308 10.7838 54.36 10.5438 54.464C10.3118 54.56 10.1118 54.728 9.94378 54.968C9.78378 55.208 9.65978 55.528 9.57178 55.928C9.48378 56.328 9.43978 56.824 9.43978 57.416V58.184C9.43978 58.776 9.48378 59.272 9.57178 59.672C9.65978 60.064 9.78778 60.38 9.95578 60.62C10.1238 60.86 10.3238 61.032 10.5558 61.136C10.7878 61.24 11.0478 61.292 11.3358 61.292Z" fill="#9BA9B2"/>
<path d="M4.13766 12.084C3.69766 12.084 3.30566 12.028 2.96166 11.916C2.61766 11.796 2.32966 11.632 2.09766 11.424C1.86566 11.208 1.68566 10.956 1.55766 10.668C1.43766 10.38 1.37766 10.064 1.37766 9.72C1.37766 9.216 1.50966 8.788 1.77366 8.436C2.03766 8.076 2.39766 7.804 2.85366 7.62C2.46966 7.444 2.16566 7.2 1.94166 6.888C1.72566 6.576 1.61766 6.192 1.61766 5.736C1.61766 5.424 1.67766 5.136 1.79766 4.872C1.92566 4.6 2.09766 4.364 2.31366 4.164C2.53766 3.964 2.80166 3.808 3.10566 3.696C3.41766 3.576 3.76166 3.516 4.13766 3.516C4.52166 3.516 4.86566 3.572 5.16966 3.684C5.48166 3.796 5.74566 3.952 5.96166 4.152C6.18566 4.352 6.35766 4.588 6.47766 4.86C6.59766 5.124 6.65766 5.416 6.65766 5.736C6.65766 6.184 6.54166 6.564 6.30966 6.876C6.08566 7.188 5.78166 7.432 5.39766 7.608C5.85366 7.8 6.21766 8.076 6.48966 8.436C6.76166 8.788 6.89766 9.216 6.89766 9.72C6.89766 10.056 6.83366 10.368 6.70566 10.656C6.58566 10.944 6.40566 11.196 6.16566 11.412C5.92566 11.62 5.63366 11.784 5.28966 11.904C4.95366 12.024 4.56966 12.084 4.13766 12.084ZM4.13766 11.292C4.43366 11.292 4.69766 11.252 4.92966 11.172C5.16966 11.084 5.36966 10.968 5.52966 10.824C5.68966 10.68 5.81366 10.516 5.90166 10.332C5.98966 10.14 6.03366 9.936 6.03366 9.72C6.03366 9.464 5.98166 9.232 5.87766 9.024C5.78166 8.816 5.64566 8.64 5.46966 8.496C5.30166 8.344 5.10166 8.224 4.86966 8.136C4.63766 8.048 4.39366 7.992 4.13766 7.968C3.87366 7.992 3.62566 8.048 3.39366 8.136C3.16166 8.216 2.95766 8.332 2.78166 8.484C2.61366 8.628 2.48166 8.804 2.38566 9.012C2.28966 9.22 2.24166 9.456 2.24166 9.72C2.24166 9.936 2.28566 10.14 2.37366 10.332C2.46166 10.516 2.58566 10.68 2.74566 10.824C2.90566 10.968 3.10166 11.084 3.33366 11.172C3.57366 11.252 3.84166 11.292 4.13766 11.292ZM4.13766 7.272C4.34566 7.248 4.54966 7.204 4.74966 7.14C4.94966 7.068 5.12566 6.972 5.27766 6.852C5.43766 6.724 5.56166 6.568 5.64966 6.384C5.74566 6.2 5.79366 5.984 5.79366 5.736C5.79366 5.552 5.75366 5.376 5.67366 5.208C5.60166 5.032 5.49366 4.88 5.34966 4.752C5.20566 4.616 5.02966 4.508 4.82166 4.428C4.62166 4.348 4.39366 4.308 4.13766 4.308C3.88166 4.308 3.64966 4.348 3.44166 4.428C3.24166 4.508 3.06966 4.616 2.92566 4.752C2.78166 4.88 2.66966 5.032 2.58966 5.208C2.51766 5.376 2.48166 5.552 2.48166 5.736C2.48166 5.976 2.52966 6.188 2.62566 6.372C2.72166 6.548 2.84566 6.7 2.99766 6.828C3.15766 6.956 3.33766 7.056 3.53766 7.128C3.73766 7.2 3.93766 7.248 4.13766 7.272ZM11.3358 12.084C10.9118 12.084 10.5278 12.016 10.1838 11.88C9.84778 11.736 9.55978 11.508 9.31978 11.196C9.07978 10.884 8.89578 10.484 8.76778 9.996C8.63978 9.5 8.57578 8.896 8.57578 8.184V7.416C8.57578 6.712 8.63978 6.116 8.76778 5.628C8.90378 5.132 9.09178 4.728 9.33178 4.416C9.57178 4.104 9.85978 3.876 10.1958 3.732C10.5398 3.588 10.9198 3.516 11.3358 3.516C11.7518 3.516 12.1278 3.588 12.4638 3.732C12.8078 3.868 13.0998 4.092 13.3398 4.404C13.5798 4.716 13.7638 5.12 13.8918 5.616C14.0278 6.112 14.0958 6.712 14.0958 7.416V8.184C14.0958 8.888 14.0278 9.488 13.8918 9.984C13.7638 10.472 13.5798 10.872 13.3398 11.184C13.0998 11.496 12.8078 11.724 12.4638 11.868C12.1278 12.012 11.7518 12.084 11.3358 12.084ZM11.3358 11.292C11.6238 11.292 11.8838 11.244 12.1158 11.148C12.3558 11.044 12.5558 10.872 12.7158 10.632C12.8838 10.392 13.0118 10.072 13.0998 9.672C13.1878 9.272 13.2318 8.776 13.2318 8.184V7.416C13.2318 6.824 13.1878 6.332 13.0998 5.94C13.0118 5.54 12.8838 5.22 12.7158 4.98C12.5478 4.74 12.3478 4.568 12.1158 4.464C11.8838 4.36 11.6238 4.308 11.3358 4.308C11.0478 4.308 10.7838 4.36 10.5438 4.464C10.3118 4.56 10.1118 4.728 9.94378 4.968C9.78378 5.208 9.65978 5.528 9.57178 5.928C9.48378 6.328 9.43978 6.824 9.43978 7.416V8.184C9.43978 8.776 9.48378 9.272 9.57178 9.672C9.65978 10.064 9.78778 10.38 9.95578 10.62C10.1238 10.86 10.3238 11.032 10.5558 11.136C10.7878 11.24 11.0478 11.292 11.3358 11.292Z" fill="#9BA9B2"/>
</svg>
