<svg width="24" height="24" viewBox="0 0 24 24" fill="none" xmlns="http://www.w3.org/2000/svg">
<path fill-rule="evenodd" clip-rule="evenodd" d="M0.30282 22.235C-0.10094 22.6388 -0.10094 23.2934 0.302821 23.6972C0.706581 24.1009 1.36121 24.1009 1.76497 23.6972L12.0001 13.4621L22.2352 23.6972C22.6389 24.1009 23.2935 24.1009 23.6973 23.6972C24.1011 23.2934 24.1011 22.6388 23.6973 22.235L13.4622 11.9999L23.6972 1.76497C24.1009 1.36121 24.1009 0.706582 23.6972 0.302821C23.2934 -0.100939 22.6388 -0.100939 22.235 0.302821L12.0001 10.5378L1.7651 0.302826C1.36134 -0.100935 0.706715 -0.100935 0.302954 0.302826C-0.100807 0.706587 -0.100807 1.36121 0.302954 1.76497L10.5379 11.9999L0.30282 22.235Z" fill="#2C287D"/>
</svg>
