<svg width="34" height="40" viewBox="0 0 34 40" fill="none" xmlns="http://www.w3.org/2000/svg">
<path d="M31.8071 5.30116H28.4336V1.92773C28.4337 0.86742 27.5661 0 26.5064 0H1.92765C0.86742 0 0 0.86742 0 1.92773V32.771C0 33.8313 0.86742 34.6988 1.92773 34.6988H5.30124V38.0723C5.30124 39.1325 6.16827 40 7.22897 40H23.614C24.6738 40 26.1735 39.4053 26.9451 38.6791L32.3302 33.6102C33.1027 32.8839 33.734 31.4217 33.734 30.3615L33.7349 7.22905C33.7349 6.16866 32.8674 5.30116 31.8071 5.30116ZM5.30108 7.22897V33.253H1.92765C1.66648 33.253 1.44578 33.0323 1.44578 32.7711V1.92773C1.44578 1.66656 1.66648 1.44586 1.92765 1.44586H26.5064C26.7671 1.44586 26.9883 1.66656 26.9883 1.92773V5.30124H7.22881C6.16811 5.30124 5.30108 6.16866 5.30108 7.22897ZM31.3392 32.5575L25.9542 37.626C25.8439 37.7297 25.7002 37.8313 25.5416 37.9281V33.4939C25.5416 33.1628 25.6751 32.8649 25.8953 32.6433C26.1175 32.4231 26.4153 32.2892 26.7464 32.2892H31.5681C31.4934 32.3907 31.4168 32.4842 31.3392 32.5575ZM32.2881 30.3613C32.2881 30.5045 32.262 30.6703 32.2225 30.8432H26.7464C25.2838 30.8461 24.0987 32.0312 24.0957 33.4938V38.4957C23.9237 38.5305 23.7579 38.554 23.6139 38.554H7.22881V38.5541C6.9671 38.5541 6.74694 38.3334 6.74694 38.0722V7.22889C6.74694 6.96772 6.96717 6.74702 7.22881 6.74702H31.807C32.0682 6.74702 32.2889 6.96772 32.2889 7.22889L32.2881 30.3613Z" fill="#919193"/>
<path d="M26.5063 12.0481H12.5305C12.131 12.0481 11.8076 12.3715 11.8076 12.771C11.8076 13.1705 12.1311 13.4939 12.5305 13.4939H26.5063C26.9054 13.4939 27.2292 13.1705 27.2292 12.771C27.2292 12.3715 26.9054 12.0481 26.5063 12.0481Z" fill="#919193"/>
<path d="M26.5063 21.6867H12.5305C12.131 21.6867 11.8076 22.01 11.8076 22.4096C11.8076 22.8091 12.1311 23.1325 12.5305 23.1325H26.5063C26.9054 23.1325 27.2292 22.8091 27.2292 22.4096C27.2292 22.01 26.9054 21.6867 26.5063 21.6867Z" fill="#919193"/>
<path d="M20.2413 26.506H12.5305C12.131 26.506 11.8076 26.8293 11.8076 27.2289C11.8076 27.6284 12.131 27.9518 12.5305 27.9518H20.2413C20.6403 27.9518 20.9637 27.6284 20.9637 27.2289C20.9637 26.8293 20.6403 26.506 20.2413 26.506Z" fill="#919193"/>
<path d="M26.5063 16.8674H12.5305C12.131 16.8674 11.8076 17.1908 11.8076 17.5903C11.8076 17.9898 12.1311 18.3132 12.5305 18.3132H26.5063C26.9054 18.3132 27.2292 17.9898 27.2292 17.5903C27.2292 17.1908 26.9054 16.8674 26.5063 16.8674Z" fill="#919193"/>
</svg>
