<svg width="40" height="40" viewBox="0 0 40 40" fill="none" xmlns="http://www.w3.org/2000/svg">
<path d="M21.7167 2.84107L3.4 0.0369439C2.55 -0.0973857 1.68333 0.137691 1.03333 0.691801C0.383333 1.2627 0 2.08547 0 2.94182V38.3209C0 39.2444 0.75 40 1.66667 40H7.08333V31.1846C7.08333 29.5559 8.38333 28.2462 10 28.2462H14.1667C15.7833 28.2462 17.0833 29.5559 17.0833 31.1846V40H24.1667V5.74595C24.1667 4.30191 23.1333 3.07615 21.7167 2.84107ZM9.16667 24.4681H6.66667C5.97667 24.4681 5.41667 23.904 5.41667 23.2088C5.41667 22.5136 5.97667 21.9495 6.66667 21.9495H9.16667C9.85667 21.9495 10.4167 22.5136 10.4167 23.2088C10.4167 23.904 9.85667 24.4681 9.16667 24.4681ZM9.16667 19.4308H6.66667C5.97667 19.4308 5.41667 18.8666 5.41667 18.1714C5.41667 17.4763 5.97667 16.9121 6.66667 16.9121H9.16667C9.85667 16.9121 10.4167 17.4763 10.4167 18.1714C10.4167 18.8666 9.85667 19.4308 9.16667 19.4308ZM9.16667 14.3934H6.66667C5.97667 14.3934 5.41667 13.8292 5.41667 13.1341C5.41667 12.4389 5.97667 11.8747 6.66667 11.8747H9.16667C9.85667 11.8747 10.4167 12.4389 10.4167 13.1341C10.4167 13.8292 9.85667 14.3934 9.16667 14.3934ZM9.16667 9.35606H6.66667C5.97667 9.35606 5.41667 8.79187 5.41667 8.09672C5.41667 7.40156 5.97667 6.83738 6.66667 6.83738H9.16667C9.85667 6.83738 10.4167 7.40156 10.4167 8.09672C10.4167 8.79187 9.85667 9.35606 9.16667 9.35606ZM17.5 24.4681H15C14.31 24.4681 13.75 23.904 13.75 23.2088C13.75 22.5136 14.31 21.9495 15 21.9495H17.5C18.19 21.9495 18.75 22.5136 18.75 23.2088C18.75 23.904 18.19 24.4681 17.5 24.4681ZM17.5 19.4308H15C14.31 19.4308 13.75 18.8666 13.75 18.1714C13.75 17.4763 14.31 16.9121 15 16.9121H17.5C18.19 16.9121 18.75 17.4763 18.75 18.1714C18.75 18.8666 18.19 19.4308 17.5 19.4308ZM17.5 14.3934H15C14.31 14.3934 13.75 13.8292 13.75 13.1341C13.75 12.4389 14.31 11.8747 15 11.8747H17.5C18.19 11.8747 18.75 12.4389 18.75 13.1341C18.75 13.8292 18.19 14.3934 17.5 14.3934ZM17.5 9.35606H15C14.31 9.35606 13.75 8.79187 13.75 8.09672C13.75 7.40156 14.31 6.83738 15 6.83738H17.5C18.19 6.83738 18.75 7.40156 18.75 8.09672C18.75 8.79187 18.19 9.35606 17.5 9.35606Z" fill="white"/>
<path d="M37.7 17.9059L25.8334 15.4023V39.9998H37.0834C38.6917 39.9998 40 38.6817 40 37.0613V20.7772C40 19.3903 39.0617 18.2098 37.7 17.9059ZM33.75 34.9624H31.25C30.56 34.9624 30 34.3982 30 33.7031C30 33.0079 30.56 32.4437 31.25 32.4437H33.75C34.44 32.4437 35 33.0079 35 33.7031C35 34.3982 34.44 34.9624 33.75 34.9624ZM33.75 29.9251H31.25C30.56 29.9251 30 29.3609 30 28.6657C30 27.9706 30.56 27.4064 31.25 27.4064H33.75C34.44 27.4064 35 27.9706 35 28.6657C35 29.3609 34.44 29.9251 33.75 29.9251ZM33.75 24.8877H31.25C30.56 24.8877 30 24.3235 30 23.6284C30 22.9332 30.56 22.369 31.25 22.369H33.75C34.44 22.369 35 22.9332 35 23.6284C35 24.3235 34.44 24.8877 33.75 24.8877Z" fill="white"/>
</svg>
