<svg width="32" height="40" viewBox="0 0 32 40" fill="none" xmlns="http://www.w3.org/2000/svg">
<path d="M27.9626 40.0002H4.03739C3.49045 40.0008 2.94909 39.8911 2.44624 39.6777C1.94339 39.4643 1.48957 39.1517 1.11237 38.7588C0.735173 38.3659 0.44249 37.901 0.252126 37.3924C0.0617624 36.8838 -0.0223033 36.342 0.00504395 35.8002L1.09378 12.8135C1.13884 11.7829 1.58348 10.8095 2.33486 10.0965C3.08625 9.3834 4.08627 8.98585 5.12612 8.98682H26.8739C27.9137 8.98585 28.9138 9.3834 29.6651 10.0965C30.4165 10.8095 30.8612 11.7829 30.9062 12.8135L31.995 35.8002C32.0223 36.342 31.9382 36.8838 31.7479 37.3924C31.5575 37.901 31.2648 38.3659 30.8876 38.7588C30.5104 39.1517 30.0566 39.4643 29.5538 39.6777C29.0509 39.8911 28.5096 40.0008 27.9626 40.0002ZM5.12612 11.6668C4.76964 11.6668 4.42776 11.8073 4.17569 12.0573C3.92362 12.3074 3.782 12.6465 3.782 13.0002L2.69327 35.9335C2.68416 36.1141 2.71218 36.2947 2.77563 36.4642C2.83909 36.6338 2.93665 36.7887 3.06238 36.9197C3.18811 37.0507 3.33939 37.1549 3.507 37.226C3.67462 37.2971 3.85507 37.3337 4.03739 37.3335H27.9626C28.1449 37.3337 28.3254 37.2971 28.493 37.226C28.6606 37.1549 28.8119 37.0507 28.9376 36.9197C29.0634 36.7887 29.1609 36.6338 29.2244 36.4642C29.2878 36.2947 29.3158 36.1141 29.3067 35.9335L28.218 12.9468C28.218 12.5932 28.0764 12.2541 27.8243 12.004C27.5722 11.754 27.2304 11.6135 26.8739 11.6135L5.12612 11.6668Z" fill="white"/>
<path d="M24.0647 10.3333H21.3764V8C21.3764 6.58551 20.81 5.22896 19.8017 4.22876C18.7934 3.22857 17.4259 2.66667 16 2.66667C14.5741 2.66667 13.2065 3.22857 12.1983 4.22876C11.19 5.22896 10.6235 6.58551 10.6235 8V10.3333H7.9353V8C7.9353 5.87827 8.78497 3.84344 10.2974 2.34315C11.8098 0.842855 13.8611 0 16 0C18.1389 0 20.1902 0.842855 21.7026 2.34315C23.215 3.84344 24.0647 5.87827 24.0647 8V10.3333Z" fill="white"/>
<path d="M27.9625 38.6668H4.03729C3.67267 38.6673 3.31176 38.5942 2.97653 38.4519C2.6413 38.3096 2.33875 38.1012 2.08728 37.8393C1.83582 37.5773 1.6407 37.2674 1.51379 36.9283C1.38688 36.5892 1.33083 36.2281 1.34907 35.8668L2.4378 12.8802C2.46896 12.1939 2.76588 11.5461 3.26668 11.0717C3.76749 10.5972 4.43354 10.3328 5.12603 10.3335H26.8738C27.5663 10.3328 28.2323 10.5972 28.7331 11.0717C29.2339 11.5461 29.5309 12.1939 29.562 12.8802L30.6508 35.8668C30.669 36.2281 30.6129 36.5892 30.486 36.9283C30.3591 37.2674 30.164 37.5773 29.9125 37.8393C29.6611 38.1012 29.3585 38.3096 29.0233 38.4519C28.6881 38.5942 28.3271 38.6673 27.9625 38.6668Z" fill="white"/>
</svg>
