<svg width="157" height="56" viewBox="0 0 157 56" fill="none" xmlns="http://www.w3.org/2000/svg">
<path fill-rule="evenodd" clip-rule="evenodd" d="M137.84 38.4794L145.334 51.4411L140.273 54.3671L132.81 41.4486C134.679 40.8288 136.393 39.8164 137.837 38.4794H137.84ZM151.747 45.0203L154.668 39.9676L141.645 32.4547C141.058 34.3342 140.075 36.0661 138.762 37.5337L151.747 45.0203ZM141.954 25.4169V25.3329H157V31.1705H141.978C142.371 29.2691 142.36 27.3067 141.947 25.4097L141.954 25.4169ZM138.649 19.0681L151.62 11.5815L154.54 16.6366L141.587 24.1088C140.979 22.2383 139.977 20.5196 138.649 19.0681ZM145.231 5.24709L140.187 2.3283L132.709 15.2516C134.581 15.8562 136.301 16.8548 137.753 18.18L145.231 5.24709ZM125.559 0H131.4V14.9012C129.475 14.4867 127.484 14.4867 125.559 14.9012V0ZM111.868 5.22788L116.924 2.3091L124.37 15.2084C122.49 15.7946 120.758 16.7768 119.29 18.0888L111.868 5.22788ZM118.394 18.9745L105.582 11.5815L102.664 16.6366L115.394 23.9863C116.023 22.12 117.046 20.4107 118.394 18.9745ZM114.532 42.7256V42.944H114.717V42.9176H127.303V55.5049H114.532V55.5313H101.934V30.1359H114.532V42.7256ZM122.179 21.9797H134.775V34.5645H122.179V21.9797Z" fill="#2C287D"/>
<path fill-rule="evenodd" clip-rule="evenodd" d="M75.9952 36.5712C76.3627 36.5496 76.735 36.5376 77.1145 36.5376H77.1097C77.8043 36.5328 78.4983 36.5833 79.1849 36.6888C79.743 36.7666 80.2815 36.9481 80.7726 37.2241C81.1943 37.466 81.5416 37.8188 81.7766 38.2442C82.028 38.7402 82.1487 39.292 82.1273 39.8476C82.1273 41.187 81.6709 42.0991 80.7558 42.5912C79.8398 43.0808 78.4788 43.3257 76.6725 43.3257H75.0344V36.6384C75.3082 36.6168 75.6277 36.5928 75.9952 36.5712ZM84.7382 33.914C82.8855 32.6995 80.2314 32.0922 76.7758 32.0922H76.7806C75.8198 32.0922 74.7013 32.133 73.4251 32.2146C72.2154 32.3001 71.0121 32.4605 69.8222 32.6947V55.5241H75.0416V47.7663H76.6797C80.1561 47.7695 82.831 47.1526 84.7045 45.9156C86.578 44.6786 87.5148 42.6672 87.5148 39.8812C87.5164 37.1177 86.5909 35.1286 84.7382 33.914ZM39.5436 55.5289C38.0496 52.8757 36.4331 50.257 34.6941 47.6726C32.9849 45.1273 31.1307 42.6821 29.1409 40.3493V55.5289H23.9887V32.3586H28.2377C28.9727 33.0947 29.7862 33.9981 30.6781 35.0686C31.57 36.1391 32.4795 37.2809 33.4067 38.4938C34.3322 39.7084 35.2521 40.9678 36.1665 42.2719C37.0808 43.5761 37.9391 44.8299 38.7413 46.0332V32.3514H43.9271V55.5217L39.5436 55.5289ZM9.40185 55.9969C7.96639 56.0299 6.53721 55.7971 5.18648 55.3104C4.07971 54.9028 3.07898 54.2515 2.25854 53.4046C1.47978 52.5753 0.897028 51.582 0.553171 50.4978C0.173236 49.2922 -0.0132209 48.034 0.000728508 46.7701V32.3682H5.22011V46.3261C5.20116 47.1377 5.30811 47.9474 5.53716 48.7264C5.71177 49.3164 6.00795 49.8634 6.40666 50.3322C6.76726 50.7395 7.22862 51.0449 7.74453 51.2179C8.3008 51.4012 8.8834 51.492 9.46911 51.4867C10.7405 51.4867 11.7717 51.0963 12.5628 50.3154C13.3538 49.5345 13.7541 48.2087 13.7637 46.3381V32.3586H18.9759V46.7605C18.9903 48.0311 18.7988 49.2956 18.4091 50.505C18.0546 51.5974 17.4595 52.5964 16.6677 53.4286C15.8344 54.281 14.8162 54.9306 13.6917 55.3272C12.3127 55.8024 10.8602 56.0292 9.40185 55.9969ZM66.4763 32.3586V36.8064H59.4843V55.5289H54.2649V36.8064H47.2729V32.3586H66.4763Z" fill="#2C287D"/>
</svg>
