<svg width="40" height="32" viewBox="0 0 40 32" fill="none" xmlns="http://www.w3.org/2000/svg">
<path d="M37.2445 6.58952H26.6053V5.27462C26.6053 -0.325097 21.2223 0.00362915 21.2223 0.00362915H18.6776C13.0037 0.00362915 13.2971 5.31381 13.2971 5.31381V6.58952H2.61698C-0.0969469 6.58952 0.000436637 9.22565 0.000436637 9.22565V14.3715C0.000436637 14.3715 11.3905 18.4603 19.9166 18.4603C29.2334 18.4603 39.9969 14.331 39.9969 14.331V9.22565C39.9981 6.46435 37.2445 6.58952 37.2445 6.58952ZM16.8888 5.16462C16.8888 2.52849 20.0243 2.4893 20.0243 2.4893C23.2046 2.4893 23.1072 5.20508 23.1072 5.20508V6.52377H16.8888V5.16462ZM23.3071 17.483L16.6902 17.488V14.9708H23.3071V17.483Z" fill="white"/>
<path d="M39.9982 29.3641V16.2315C39.9982 16.2315 31.3336 20.1686 19.8603 20.1686C9.30573 20.1686 0.000488281 16.1089 0.000488281 16.1089V29.3628C0.000488281 32.0394 2.57346 32.0002 2.57346 32.0002H37.2881C40.166 32.0015 39.9982 29.3641 39.9982 29.3641ZM23.3072 22.4192C23.3072 23.3231 22.5691 24.0527 21.6555 24.0527H18.3445C17.4308 24.0527 16.6902 23.3231 16.6902 22.4192V20.7351H23.3072V22.4192Z" fill="white"/>
</svg>
