<svg width="48" height="24" viewBox="0 0 48 24" fill="none" xmlns="http://www.w3.org/2000/svg">
<path d="M47.6827 11.2348L36.7739 0.37946C36.382 -0.0758762 35.6934 -0.128957 35.2358 0.261078C34.7782 0.65102 34.7248 1.33631 35.1168 1.79165C35.1534 1.83409 35.1931 1.87374 35.2358 1.91003L44.2792 10.9199H1.09086C0.488429 10.9199 0 11.4059 0 12.0055C0 12.6051 0.488429 13.091 1.09086 13.091H44.2792L35.2358 22.09C34.7782 22.4799 34.7248 23.1652 35.1168 23.6205C35.5088 24.0759 36.1974 24.129 36.6549 23.7389C36.6976 23.7025 36.7374 23.663 36.7739 23.6205L47.6828 12.7652C48.1057 12.342 48.1057 11.6582 47.6827 11.2348Z" fill="#2C287D"/>
</svg>
