<svg width="40" height="38" viewBox="0 0 40 38" fill="none" xmlns="http://www.w3.org/2000/svg">
<path d="M1.11125 24.5879H5.55542C6.16903 24.5879 6.66667 25.088 6.66667 25.7053V36.8818C6.66667 37.499 6.16903 37.9996 5.55542 37.9996H1.11125C0.49764 37.9996 0 37.499 0 36.8818V25.7053C0 25.088 0.49764 24.5879 1.11125 24.5879Z" fill="white"/>
<path d="M12.222 15.647H16.6666C17.2802 15.647 17.7779 16.1475 17.7779 16.7648V36.8823C17.7779 37.4995 17.2802 38.0001 16.6666 38.0001H12.222C11.6084 38.0001 11.1112 37.4995 11.1112 36.8823V16.7648C11.1112 16.1475 11.6084 15.647 12.222 15.647Z" fill="white"/>
<path d="M23.3333 20.1177H27.7779C28.3915 20.1177 28.8887 20.6182 28.8887 21.2355V36.8823C28.8887 37.4995 28.3915 38.0001 27.7779 38.0001H23.3333C22.7197 38.0001 22.222 37.4995 22.222 36.8823V21.2355C22.222 20.6182 22.7197 20.1177 23.3333 20.1177Z" fill="white"/>
<path d="M34.4446 13.4121H38.8888C39.5024 13.4121 40 13.9127 40 14.5299V36.8826C40 37.4998 39.5024 38.0004 38.8888 38.0004H34.4446C33.831 38.0004 33.3334 37.4998 33.3334 36.8826V14.5299C33.3334 13.9127 33.831 13.4121 34.4446 13.4121Z" fill="white"/>
<path d="M36.6667 0C34.8267 0.00204646 33.3354 1.50211 33.3333 3.35293C33.3378 3.71802 33.4021 4.07983 33.5238 4.42364L27.9614 7.74956C27.2314 6.97067 26.1731 6.5933 25.1184 6.73533C24.0633 6.87735 23.1413 7.52158 22.6404 8.46623L17.7344 6.02193C17.7584 5.87827 17.7726 5.73338 17.7779 5.58808C17.7804 4.23086 16.9694 3.00626 15.7235 2.48523C14.4775 1.96461 13.0424 2.2507 12.0882 3.21009C11.1336 4.16947 10.8484 5.61264 11.3656 6.8663L5.00163 11.6436C4.49707 11.3411 3.9209 11.1798 3.33333 11.1766C1.49251 11.1766 0 12.6774 0 14.5295C0 16.3811 1.49251 17.8824 3.33333 17.8824C5.17415 17.8824 6.66667 16.3811 6.66667 14.5295C6.66382 14.1259 6.58813 13.7269 6.44328 13.3507L12.8707 8.52558C14.128 9.23079 15.6962 9.0241 16.7301 8.01642L22.3092 10.7959C22.6811 12.4622 24.2399 13.5803 25.9273 13.3913C27.6147 13.2022 28.8908 11.7668 28.8888 10.0588C28.8888 9.97366 28.87 9.89343 28.8639 9.80994L34.9137 6.1922C35.4382 6.52577 36.0457 6.70381 36.6667 6.70586C38.5075 6.70586 40 5.20457 40 3.35293C40 1.50129 38.5075 0 36.6667 0Z" fill="white"/>
</svg>
