<svg width="48" height="24" viewBox="0 0 48 24" fill="none" xmlns="http://www.w3.org/2000/svg">
<path d="M0.317261 11.2348L11.2261 0.37946C11.618 -0.0758762 12.3066 -0.128957 12.7642 0.261078C13.2218 0.65102 13.2752 1.33631 12.8832 1.79165C12.8466 1.83409 12.8069 1.87374 12.7642 1.91003L3.72079 10.9199H46.9091C47.5116 10.9199 48 11.4059 48 12.0055C48 12.6051 47.5116 13.091 46.9091 13.091H3.72079L12.7642 22.09C13.2218 22.4799 13.2752 23.1652 12.8832 23.6205C12.4912 24.0759 11.8026 24.129 11.3451 23.7389C11.3024 23.7025 11.2626 23.663 11.2261 23.6205L0.317165 12.7652C-0.105736 12.342 -0.105732 11.6582 0.317261 11.2348Z" fill="#2C287D"/>
</svg>
