<svg width="68" height="56" viewBox="0 0 68 56" fill="none" xmlns="http://www.w3.org/2000/svg">
<path d="M33.8696 38.3213C42.8607 38.3213 50.1494 31.2364 50.1494 22.4966C50.1494 13.7569 42.8607 6.672 33.8696 6.672C24.8786 6.672 17.5898 13.7569 17.5898 22.4966C17.5898 31.2364 24.8786 38.3213 33.8696 38.3213Z" fill="#2C287D"/>
<path d="M11.0034 6.04674C11.0408 5.08667 11.3035 4.14815 11.771 3.3047C12.2384 2.46125 12.8979 1.73576 13.6979 1.18508C14.4241 0.677038 15.2486 0.32114 16.1203 0.139425C16.992 -0.0422889 17.8923 -0.0459512 18.7655 0.128663C18.7144 1.06464 18.4519 1.97764 17.9972 2.80123C17.5425 3.62481 16.9069 4.33828 16.1367 4.88971C15.4066 5.41704 14.5745 5.79172 13.6917 5.9907C12.8089 6.18968 11.894 6.20875 11.0034 6.04674Z" fill="#E4E4E4"/>
<path d="M7.10054 10.1143C6.53821 9.43298 6.11877 8.64868 5.86652 7.80678C5.61428 6.96487 5.53423 6.08209 5.63101 5.20952C5.72778 4.33696 5.99945 3.49196 6.43031 2.72344C6.86117 1.95492 7.44266 1.27814 8.14109 0.7323C9.22239 2.01842 9.76429 3.66214 9.65624 5.32806C9.59451 6.25749 9.33512 7.16379 8.89486 7.98828C8.45461 8.81277 7.8433 9.53707 7.10054 10.1143Z" fill="#E4E4E4"/>
<path d="M8.60843 12.0259C8.73875 11.2903 9.02036 10.5887 9.43596 9.96404C9.85157 9.33937 10.3924 8.80482 11.0254 8.39316C11.8072 7.88676 12.7033 7.57677 13.6352 7.49032C14.567 7.40387 15.5062 7.54361 16.3705 7.89729C15.8783 9.22462 14.9624 10.3593 13.76 11.1312C13.004 11.6079 12.1594 11.9325 11.2752 12.0861C10.391 12.2396 9.48458 12.2192 8.60843 12.0259Z" fill="#E4E4E4"/>
<path d="M7.63358 18.0949C7.69444 17.3002 7.93361 16.5287 8.33387 15.8359C8.73413 15.1431 9.2855 14.5463 9.94829 14.0884C10.6528 13.5985 11.4602 13.2705 12.3107 13.1287C13.1613 12.9869 14.0334 13.0349 14.8625 13.2692C14.5264 14.8284 13.5844 16.1965 12.2375 17.0816C10.8871 17.9776 9.2431 18.3395 7.63358 18.0949Z" fill="#E4E4E4"/>
<path d="M6.33013 17.3762C6.72192 16.5715 6.93768 15.6949 6.96346 14.8029C6.98925 13.911 6.82448 13.0237 6.47981 12.1983C6.13195 11.38 5.619 10.6396 4.97199 10.022C4.32499 9.40433 3.55739 8.92232 2.71564 8.6051C2.0078 10.1515 1.941 11.9086 2.52943 13.5027C2.85692 14.3716 3.36368 15.1643 4.0178 15.831C4.67192 16.4977 5.45924 17.0238 6.33013 17.3762Z" fill="#E4E4E4"/>
<path d="M8.22142 24.2034C8.12863 23.4661 8.19375 22.7178 8.41258 22.0067C8.6314 21.2956 8.99908 20.6375 9.49196 20.0748C10.1007 19.3813 10.8732 18.8457 11.7415 18.5148C12.6098 18.184 13.5475 18.0682 14.4719 18.1775C14.5016 18.9458 14.3744 19.7121 14.0978 20.4312C13.8213 21.1502 13.401 21.8073 12.8618 22.3637C12.2651 22.9766 11.5428 23.4576 10.7427 23.7748C9.94267 24.092 9.08322 24.2381 8.22142 24.2034Z" fill="#E4E4E4"/>
<path d="M6.79022 23.244C5.04516 23.1818 3.38434 22.4898 2.12424 21.3001C1.44244 20.653 0.902505 19.8755 0.537688 19.0152C0.172871 18.155 -0.0090971 17.2304 0.00300803 16.2983C1.90275 16.429 3.67716 17.279 4.95376 18.6698C6.10484 19.9276 6.75682 21.5516 6.79022 23.244Z" fill="#E4E4E4"/>
<path d="M7.14434 29.6974C7.0273 28.0681 6.35146 26.5263 5.22757 25.3245C3.92705 23.9335 2.13744 23.0818 0.222064 22.9421C0.21989 23.8811 0.418326 24.81 0.804521 25.6686C1.19071 26.5272 1.75602 27.2963 2.46376 27.926C3.74491 29.0702 5.41428 29.702 7.14434 29.6974Z" fill="#E4E4E4"/>
<path d="M8.58647 30.7323C8.42819 29.9533 8.43199 29.1507 8.59766 28.3732C8.76332 27.5957 9.08741 26.8592 9.55034 26.2084C10.0564 25.4978 10.7125 24.9032 11.4737 24.4654C12.2349 24.0275 13.0833 23.7567 13.9607 23.6716C14.1476 24.4899 14.151 25.3385 13.9707 26.1583C13.7904 26.978 13.4306 27.7493 12.9165 28.4182C12.4036 29.0849 11.752 29.6361 11.0053 30.0352C10.2586 30.4342 9.43393 30.6719 8.58647 30.7323Z" fill="#E4E4E4"/>
<path d="M9.98483 36.0827C9.46748 34.5011 8.38928 33.1556 6.9472 32.2918C5.36138 31.3407 3.46533 31.0243 1.6496 31.4078C2.08732 33.0761 3.17806 34.5062 4.68357 35.3856C5.47405 35.8469 6.35103 36.1465 7.26196 36.2663C8.17289 36.3861 9.09901 36.3236 9.98483 36.0827Z" fill="#E4E4E4"/>
<path d="M12.1499 37.06C11.7194 36.3774 11.4328 35.6165 11.3074 34.8227C11.1819 34.0288 11.2201 33.2182 11.4197 32.4391C11.6318 31.6082 12.0203 30.8308 12.5596 30.1583C13.0989 29.4857 13.7768 28.9331 14.5486 28.5369C15.3657 29.9011 15.6143 31.5237 15.2423 33.0644C15.0362 33.9049 14.6549 34.694 14.1225 35.3819C13.5902 36.0697 12.9185 36.6412 12.1499 37.06Z" fill="#E4E4E4"/>
<path d="M14.2419 40.6856C13.3349 39.2704 11.919 38.244 10.2769 37.811C9.29382 37.5516 8.26466 37.5092 7.26301 37.6869C6.26136 37.8645 5.31197 38.2578 4.48276 38.8387C5.56299 40.2754 7.14844 41.2644 8.92967 41.6126C10.7559 41.9711 12.6522 41.6401 14.2419 40.6856Z" fill="#E4E4E4"/>
<path d="M16.7793 41.9648C16.1301 41.4293 15.6193 40.75 15.2886 39.9825C14.9579 39.2151 14.8169 38.3814 14.8771 37.5499C14.9374 36.7184 15.1971 35.9128 15.635 35.1993C16.0729 34.4857 16.6766 33.8846 17.3963 33.4452C18.2115 34.7505 18.5904 36.2744 18.4797 37.8026C18.369 39.3309 17.7744 40.7865 16.7793 41.9648Z" fill="#E4E4E4"/>
<path d="M17.7907 44.5806C16.475 43.4023 14.7698 42.7337 12.9913 42.6987C11.2128 42.6636 9.48167 43.2646 8.11917 44.3902C9.40887 45.6181 11.1229 46.3202 12.9169 46.3555C14.7109 46.3908 16.4521 45.7568 17.7907 44.5806Z" fill="#E4E4E4"/>
<path d="M21.365 45.5796C20.6548 45.1517 20.0616 44.5596 19.637 43.8547C19.2124 43.1498 18.9692 42.3534 18.9285 41.5349C18.8879 40.7164 19.051 39.9006 19.4037 39.1582C19.7564 38.4159 20.2881 37.7697 20.9524 37.2756C22.053 38.3642 22.7043 39.8158 22.7805 41.3496C22.8567 42.8834 22.3524 44.3906 21.365 45.5796Z" fill="#E4E4E4"/>
<path d="M23.3329 48.5476C21.9769 47.3561 20.2139 46.7123 18.3963 46.7449C16.5788 46.7775 14.8408 47.4843 13.5299 48.7237C14.8582 49.9708 16.6327 50.6519 18.4682 50.6189C20.3036 50.5859 22.0518 49.8416 23.3329 48.5476Z" fill="#E4E4E4"/>
<path d="M55.8925 6.18327C54.1361 6.41391 52.3577 5.95861 50.9381 4.91485C50.1638 4.34521 49.5268 3.61447 49.0724 2.77475C48.6181 1.93502 48.3575 1.00698 48.3094 0.0567842C49.2663 -0.0668071 50.239 0.0118856 51.1626 0.287618C52.0862 0.56335 52.9394 1.02978 53.6654 1.65578C54.3264 2.2246 54.8644 2.91864 55.247 3.6965C55.6296 4.47435 55.8492 5.3201 55.8925 6.18327Z" fill="#E4E4E4"/>
<path d="M59.8648 10.2436C59.1453 9.70136 58.5465 9.01952 58.1056 8.24032C57.6646 7.46112 57.3908 6.60115 57.3012 5.71362C57.2115 4.82609 57.3079 3.92989 57.5843 3.08049C57.8607 2.23109 58.3113 1.44656 58.9082 0.775452C60.2753 1.92908 61.1377 3.55713 61.3159 5.32075C61.494 7.08437 60.9743 8.84767 59.8648 10.2436Z" fill="#E4E4E4"/>
<path d="M58.1999 12.1481C58.1373 11.3978 57.9043 10.671 57.5182 10.0211C57.1321 9.37121 56.6028 8.8149 55.9692 8.39317C55.2318 7.89747 54.3816 7.58832 53.4939 7.49305C52.6062 7.39779 51.7083 7.51935 50.8797 7.84699C51.0673 8.59674 51.4044 9.30235 51.8713 9.92287C52.3382 10.5434 52.9257 11.0665 53.5996 11.4618C54.9832 12.273 56.6343 12.5193 58.1999 12.1481Z" fill="#E4E4E4"/>
<path d="M60.6169 17.3762C60.2489 16.5997 60.0461 15.7574 60.021 14.9009C59.9959 14.0445 60.1489 13.192 60.4708 12.396C60.8251 11.5263 61.368 10.7432 62.0617 10.1014C62.7553 9.45969 63.583 8.97477 64.4869 8.68054C65.1335 10.3396 65.0899 12.1826 64.3655 13.8102C63.6411 15.4378 62.2943 16.719 60.6169 17.3762Z" fill="#E4E4E4"/>
<path d="M52.2998 13.147C53.1158 12.9938 53.9553 13.0086 54.7652 13.1904C55.5752 13.3722 56.3381 13.7171 57.0059 14.2034C57.6898 14.6994 58.2545 15.3373 58.6602 16.0718C59.0658 16.8064 59.3025 17.6197 59.3535 18.4542C58.4126 18.514 57.4694 18.3818 56.5829 18.0658C55.6964 17.7498 54.8858 17.257 54.202 16.6181C53.2125 15.687 52.5468 14.4723 52.2998 13.147Z" fill="#E4E4E4"/>
<path d="M52.7636 18.1631C53.6576 18.1598 54.541 18.3541 55.3485 18.7316C56.1561 19.1091 56.8673 19.6602 57.4296 20.3442C57.904 20.9207 58.2579 21.5839 58.471 22.2955C58.684 23.0072 58.7519 23.7532 58.6709 24.4908C56.9794 24.3013 55.4241 23.4871 54.3189 22.2127C53.3361 21.0829 52.7858 19.6503 52.7636 18.1631Z" fill="#E4E4E4"/>
<path d="M60.0656 23.2009C60.0924 21.4794 60.7767 19.831 61.9823 18.5836C62.6322 17.9126 63.4101 17.3743 64.2714 16.9995C65.1328 16.6246 66.0609 16.4205 67.0024 16.3989C66.939 17.9713 66.3383 19.4766 65.2974 20.6712C64.6458 21.4206 63.8457 22.0314 62.9462 22.4664C62.0467 22.9013 61.0665 23.1512 60.0656 23.2009Z" fill="#E4E4E4"/>
<path d="M59.9086 29.9526C59.8362 29.0856 59.9446 28.2132 60.2271 27.3889C60.5096 26.5646 60.9603 25.8059 61.5515 25.1592C62.201 24.4494 62.9993 23.8868 63.8912 23.5102C64.7831 23.1337 65.7475 22.9521 66.7177 22.9781C66.6325 24.6813 65.9455 26.3018 64.7753 27.5595C63.508 28.92 61.775 29.7721 59.9086 29.9526Z" fill="#E4E4E4"/>
<path d="M58.3788 30.9048C57.5733 30.8111 56.7959 30.5554 56.095 30.1536C55.3941 29.7518 54.7846 29.2125 54.3043 28.5692C53.8 27.8926 53.4545 27.1142 53.2929 26.2903C53.1313 25.4663 53.1575 24.6173 53.3696 23.8046C54.1955 23.9702 54.9801 24.2945 55.6786 24.7587C56.3772 25.223 56.9758 25.8182 57.4405 26.5103C58.3071 27.8055 58.6424 29.3759 58.3788 30.9048Z" fill="#E4E4E4"/>
<path d="M56.692 36.0611C57.1981 34.572 58.1953 33.2921 59.5251 32.4247C60.4167 31.8418 61.425 31.4542 62.482 31.288C63.5389 31.1219 64.6198 31.1811 65.6515 31.4617C64.9752 33.216 63.6484 34.6528 61.9384 35.4826C60.3132 36.2767 58.4555 36.4815 56.692 36.0611Z" fill="#E4E4E4"/>
<path d="M54.925 37.1031C54.1958 36.7244 53.5524 36.2038 53.034 35.5728C52.5155 34.9418 52.1329 34.2137 51.9092 33.4327C51.6855 32.6516 51.6256 31.834 51.7329 31.0294C51.8402 30.2249 52.1126 29.4502 52.5336 28.7524C53.2971 29.1631 53.9645 29.7272 54.4922 30.4082C55.0199 31.0891 55.3962 31.8717 55.5968 32.705C55.9558 34.2015 55.7152 35.7766 54.925 37.1031Z" fill="#E4E4E4"/>
<path d="M50.1568 42.051C49.5037 41.5446 48.9668 40.908 48.5814 40.183C48.196 39.458 47.9707 38.6609 47.9204 37.8442C47.8701 37.0274 47.9958 36.2094 48.2893 35.4438C48.5829 34.6783 49.0377 33.9825 49.6237 33.4021C50.3991 33.9355 51.0259 34.6518 51.4469 35.4855C51.8679 36.3192 52.0696 37.2436 52.0334 38.1739C52.0022 38.9113 51.8199 39.6348 51.4974 40.3011C51.1749 40.9674 50.7189 41.5626 50.1568 42.051Z" fill="#E4E4E4"/>
<path d="M52.7636 40.4593C53.7251 39.0811 55.1875 38.119 56.849 37.7715C57.8149 37.5649 58.8149 37.5684 59.7791 37.782C60.7434 37.9955 61.6486 38.4138 62.4314 39.0076C61.3489 40.3456 59.8083 41.25 58.0977 41.5516C56.243 41.8815 54.3306 41.4899 52.7636 40.4593Z" fill="#E4E4E4"/>
<path d="M49.1527 44.9113C50.3702 43.6447 52.0202 42.8653 53.7859 42.723C54.7457 42.643 55.7121 42.7508 56.6295 43.04C57.5468 43.3292 58.397 43.7942 59.1309 44.4082C57.9245 45.5456 56.3703 46.2592 54.7096 46.4384C52.7259 46.6608 50.7323 46.113 49.1527 44.9113Z" fill="#E4E4E4"/>
<path d="M45.8486 45.5796C45.2677 45.0194 44.8151 44.3436 44.5211 43.5974C44.2271 42.8512 44.0984 42.0517 44.1437 41.2526C44.189 40.4535 44.4072 39.6731 44.7837 38.9637C45.1602 38.2542 45.6863 37.6322 46.3269 37.139C46.9078 37.8591 47.3234 38.6945 47.5453 39.5876C47.7671 40.4808 47.7899 41.4107 47.612 42.3133C47.3711 43.5517 46.7565 44.69 45.8486 45.5796Z" fill="#E4E4E4"/>
<path d="M43.9172 48.2134C45.3468 47.1501 47.1202 46.6342 48.9074 46.7617C50.6946 46.8893 52.3739 47.6517 53.6325 48.9069C52.1986 49.9593 50.4277 50.4684 48.6436 50.3411C46.8596 50.2137 45.1818 49.4585 43.9172 48.2134Z" fill="#E4E4E4"/>
<path d="M25.4322 45.9246L32.0478 48.7093C32.4777 48.5897 32.9227 48.5304 33.3694 48.5332C33.7831 48.5367 34.1945 48.5947 34.5925 48.7057L41.4454 45.9856L41.2848 47.1966L35.4213 49.8915L45.9069 53.3051L47.5901 56L34.8116 51.1384C34.3778 50.9702 33.916 50.8824 33.4497 50.8796C32.9642 50.8759 32.4824 50.9625 32.0295 51.1348L19.5395 55.7808L21.6936 53.1039L31.5512 49.931L25.6658 47.2792L25.4322 45.9246Z" fill="#E4E4E4"/>
<path d="M33.4863 9.77295L38.3129 16.4061L46.2174 18.8746L41.2958 25.4431L41.3542 33.5998L33.4863 31.0234L25.6148 33.5998L25.6732 25.4431L20.7516 18.8746L28.6561 16.4061L33.4863 9.77295Z" fill="white"/>
</svg>
