<svg width="40" height="28" viewBox="0 0 40 28" fill="none" xmlns="http://www.w3.org/2000/svg">
<path fill-rule="evenodd" clip-rule="evenodd" d="M2.84026 0H25.8824C26.5322 0 27.0588 0.522333 27.0588 1.16668V3.50002H33.7626C34.498 3.50002 35.1444 3.98344 35.3464 4.68463L37.363 11.6843C37.5996 11.7255 37.8196 11.8378 37.9916 12.0083L39.6554 13.6583C39.876 13.877 40 14.1739 40 14.4833V22.1668C40 22.811 39.4732 23.3334 38.8236 23.3334H35.2942C35.2942 25.9107 33.1872 28 30.5882 28C27.9892 28 25.8824 25.9107 25.8824 23.3334H14.1176C14.1176 25.9107 12.0108 28 9.41176 28C6.81278 28 4.70588 25.9107 4.70588 23.3334H1.17648C0.52672 23.3334 0 22.811 0 22.1668V2.8166C0 2.50718 0.12394 2.21043 0.34458 1.99163L2.00836 0.341709C2.229 0.122907 2.52824 0 2.84026 0ZM34.911 11.6668L33.2302 5.83336H27.0588V10.5C27.0588 11.1444 27.5856 11.6668 28.2352 11.6668H34.911ZM30.5882 21C31.8878 21 32.9412 22.0448 32.9412 23.3334C32.9412 24.6222 31.8878 25.6668 30.5882 25.6668C29.2888 25.6668 28.2352 24.6222 28.2352 23.3334C28.2352 22.0448 29.2888 21 30.5882 21ZM7.05882 23.3334C7.05882 24.6222 8.11228 25.6668 9.41176 25.6668C10.7113 25.6668 11.7647 24.6222 11.7647 23.3334C11.7647 22.0448 10.7113 21 9.41176 21C8.11228 21 7.05882 22.0448 7.05882 23.3334Z" fill="white"/>
</svg>
