<svg width="157" height="56" viewBox="50 0 157 56" fill="none" xmlns="http://www.w3.org/2000/svg">
<path fill-rule="evenodd" clip-rule="evenodd" d="M137.84 38.4794L145.334 51.4411L140.273 54.3671L132.81 41.4486C134.679 40.8288 136.393 39.8164 137.837 38.4794H137.84ZM151.747 45.0203L154.668 39.9676L141.645 32.4547C141.058 34.3342 140.075 36.0661 138.762 37.5337L151.747 45.0203ZM141.954 25.4169V25.3329H157V31.1705H141.978C142.371 29.2691 142.36 27.3067 141.947 25.4097L141.954 25.4169ZM138.649 19.0681L151.62 11.5815L154.54 16.6366L141.587 24.1088C140.979 22.2383 139.977 20.5196 138.649 19.0681ZM145.231 5.24709L140.187 2.3283L132.709 15.2516C134.581 15.8562 136.301 16.8548 137.753 18.18L145.231 5.24709ZM125.559 0H131.4V14.9012C129.475 14.4867 127.484 14.4867 125.559 14.9012V0ZM111.868 5.22788L116.924 2.3091L124.37 15.2084C122.49 15.7946 120.758 16.7768 119.29 18.0888L111.868 5.22788ZM118.394 18.9745L105.582 11.5815L102.664 16.6366L115.394 23.9863C116.023 22.12 117.046 20.4107 118.394 18.9745ZM114.532 42.7256V42.944H114.717V42.9176H127.303V55.5049H114.532V55.5313H101.934V30.1359H114.532V42.7256ZM122.179 21.9797H134.775V34.5645H122.179V21.9797Z" fill="#2C287D"/>
</svg>